<?xml version="1.0" encoding="utf-8" ?>
<svg xmlns="http://www.w3.org/2000/svg" xmlns:xlink="http://www.w3.org/1999/xlink" width="1204" height="896">
	<path transform="scale(1.3855 1.38485)" d="M334.5 271.681C334.722 268.156 334.633 265.229 332.186 262.369C322.605 251.175 286.455 261.885 280.039 248.373C277.884 243.834 279.166 233.76 279.412 228.489C281.557 182.424 296.051 144.284 330.544 112.918C372.206 75.033 431.77 59.2981 487.206 61.9871C536.264 64.3667 586.833 79.4456 620.663 116.947C640.336 138.756 647.147 168.296 645.598 197.073C644.658 214.526 637.793 250.916 624.225 262.977C621.567 265.34 618.318 266.753 614.716 266.504C611.701 266.296 609.011 265.112 607.03 262.784C604.208 259.465 603.819 255.153 604.314 251.001C605.336 242.445 609.541 233.649 611.825 225.282C620.853 192.207 620.211 165.64 598.757 137.859C575.331 107.526 536.871 91.836 499.735 87.1516C468.19 83.4643 436.22 86.5809 405.981 96.2914C416.456 98.4223 424.656 102.645 432.256 110.186C460.844 103.972 499.187 102.419 524.83 118.905C535.611 125.835 541.7 136.188 551.077 144.412C558.511 150.934 568.042 154.494 574.746 162C578.095 165.749 580.276 170.156 581.304 175.07C582.545 180.999 581.491 187.51 583.284 193.229C584.668 197.644 588.01 201.538 590.381 205.46C595.518 213.956 594.808 224.498 589.301 232.641C585.272 238.623 579.022 242.748 571.938 244.101C566.819 245.043 561.776 244.18 557.04 242.142C554.84 247.144 551.477 251.155 547.651 255.007C555.008 254.956 572.067 253.869 578.624 255.511C580.411 255.959 581.971 256.794 583.283 258.097C584.847 259.651 585.798 261.759 585.694 263.984C585.598 266.038 584.639 267.831 583.12 269.186C576.952 274.692 551.622 268.416 550.679 275.229C550.554 276.132 550.688 276.807 551.273 277.521C552.759 279.333 556.482 279.539 558.674 279.636C562.487 279.804 568.331 278.516 571.154 281.648C572.125 282.725 572.609 284.045 572.535 285.497C572.453 287.113 571.62 288.623 570.381 289.646C562.72 295.968 535.393 284.875 533.236 297.411C533.004 298.755 533.276 300.079 534.123 301.163C535.597 303.051 538.313 303.726 540.595 303.889C547.451 304.381 559.746 304.595 566.135 302.643C570.149 301.417 573.523 299.167 577.222 297.29C582.67 294.526 588.198 291.893 593.67 289.172C601.46 285.296 615.157 276.865 622.739 285.492C624.71 287.735 625.556 290.391 625.242 293.35C624.579 299.599 617.426 310.171 614.448 316.063C611.291 322.307 608.175 328.623 605.423 335.054C589.411 372.459 592.183 403.766 592.431 443.299C597.273 446.83 600.215 451.081 601.095 457.088C602.055 463.635 601.406 471.06 601.395 477.682L601.337 519.353C601.339 525.676 600.612 532.998 602.324 539.093C603.434 543.044 605.95 546.489 609.201 548.961C611.778 550.921 615.022 552.377 618.229 552.879C625.628 554.04 635.708 553.17 643.484 553.165L695.348 553.16C695.381 553.06 695.418 552.96 695.449 552.859C698.094 544.174 691.436 525.44 700.633 520.103C705.523 517.265 720.633 517.363 726.008 518.899C728.337 519.564 730.828 520.802 732.011 523.013C734.29 527.273 734.355 544.458 732.789 549.161C731.958 551.657 730.347 553.603 727.931 554.702C723.261 556.826 704.026 556.03 697.874 555.927C697.944 555.995 698.015 556.061 698.083 556.129C703.011 561.105 699.76 562.453 709.236 562.641C727.941 563.011 746.767 562.614 765.48 562.576C773.598 562.56 782.964 561.655 790.957 563.022C802.188 564.943 805.619 573.726 814.943 577.78C822.524 581.076 857.58 579.411 868.261 579.534C868.663 580.692 868.684 580.934 868.452 582.136C867.055 582.898 827.572 582.563 823.496 582.301C820.39 582.101 816.773 581.695 813.846 580.584C804.864 577.176 800.255 566.869 789.867 565.694C782.554 564.867 774.646 565.442 767.276 565.446L723.745 565.487C717.628 565.494 710.669 566.145 704.635 565.328C697.435 564.354 698.911 559.961 695.853 556.671C695.226 555.997 694.014 555.916 693.138 555.861C686.598 555.455 679.887 555.754 673.329 555.761L637.975 555.84C632.037 555.881 626.008 556.165 620.079 555.821C611.355 555.313 603.501 550.289 600.288 541.999C599.437 539.805 598.959 537.508 598.733 535.169C598.086 528.458 598.586 521.332 598.593 514.577L598.699 473.596C598.73 467.579 599.622 460.048 597.757 454.345C596.748 451.259 594.595 448.91 592.481 446.526L592.455 532.917C592.451 540.89 592.306 548.876 592.385 556.848C592.432 561.55 592.873 566.425 592.593 571.11C592.481 572.973 592.142 574.908 591.012 576.445C590.138 577.639 588.822 578.434 587.358 578.65C585.771 578.879 583.912 578.339 582.674 577.324C581.496 576.358 580.911 574.967 580.7 573.489C579.988 568.498 580.677 559.172 580.658 553.635L580.548 499.247C580.564 491.455 581.369 480.122 580.399 472.693C580.224 471.355 580.065 470.111 578.964 469.273C577.63 469.146 577.335 469.131 576.126 469.681C575.256 470.702 574.958 471.497 574.905 472.842C574.682 478.563 574.937 484.378 574.966 490.106L575.359 530.278L575.679 572.377C575.717 576.745 575.425 581.151 575.597 585.513C575.659 587.078 575.793 588.778 576.389 590.24C578.092 594.409 583.555 593.189 585.937 596.107C586.673 597.008 586.787 598.071 586.603 599.193C586.308 600.994 585.481 602.905 583.862 603.888C581.697 605.203 578.838 604.756 576.51 604.156C571.437 602.85 567.191 599.28 564.63 594.761C563.25 592.324 562.813 590.157 562.624 587.38C562.114 579.875 562.426 572.211 562.436 564.688L562.478 526.086L562.43 478.804C562.449 472.505 561.618 460.148 563.253 454.659C564.803 449.454 568.148 445.066 573.01 442.558C578.3 439.829 583.939 439.952 589.5 441.684C589.518 404.489 586.927 371.699 601.802 336.438C607.58 322.742 614.971 309.935 621.462 296.605C622.384 294.711 623.01 292.005 622.203 289.979C621.364 287.846 619.685 286.153 617.559 285.297C615.167 284.334 612.452 284.492 609.99 285.085C605.7 286.117 601.631 288.332 597.681 290.254C588.071 294.932 578.529 300.73 568.678 304.789C563.671 306.853 540.525 307.867 535.529 305.643C533.43 304.709 532.134 303.093 531.33 300.973C530.488 298.752 530.06 296.162 531.131 293.945C535.993 283.885 558.35 291.019 566.159 288.237C567.441 287.781 569.047 286.936 569.617 285.618C569.981 284.776 569.848 284.6 569.549 283.792C566.816 281.65 561.499 282.604 558.157 282.425C555.025 282.257 550.631 281.402 548.549 278.834C547.797 277.907 547.514 276.867 547.642 275.685C548.964 263.452 573.774 273.009 581.034 267.136C582.098 266.275 582.895 265.06 582.934 263.657C582.969 262.411 582.364 261.039 581.457 260.187C577.14 256.137 551.628 257.668 544.51 257.555C540.571 260.295 536.63 262.835 532.181 264.698C525.502 267.495 518.703 269.14 512.477 273.014C512.82 273.329 513.15 273.639 513.471 273.977C523.828 284.904 529.222 298.573 528.801 313.632C528.131 332.665 517.273 349.866 500.378 358.659C492.267 362.976 484.584 365.241 477.704 371.769C478.698 373.278 479.701 375.026 480.173 376.778C480.713 378.781 480.688 380.851 480.384 382.89C479.488 388.909 472.115 413.945 469.423 418.902C466.482 420.918 463.35 422.472 460.175 424.075C457.8 429.36 456.374 435.409 454.72 440.962C451.956 450.367 449.126 459.753 446.229 469.117L423.073 545.296C419.871 556.002 416.266 566.587 413.323 577.368C415.149 577.313 417.002 577.151 418.737 576.55C421.297 575.665 423.125 573.964 424.375 571.586C427.694 565.272 429.273 556.402 431.469 549.489L450.201 488.449C453.524 477.364 456.895 462.693 461.857 452.479C464.392 447.26 469.52 443.292 474.981 441.496C481.219 439.444 489.891 440.122 495.705 443.195C498.768 444.813 502.134 447.566 503.809 450.631C507.025 456.516 508.774 463.301 510.779 469.667L519.127 496.614L543.477 574.408C545.616 581.259 549.959 590.208 546.116 597.073C544.535 599.899 541.861 601.788 538.783 602.685C533.862 604.118 518.28 604.296 513.82 601.739C511.69 600.518 510.101 598.664 509.039 596.473C506.678 591.6 503.751 575.232 502.262 569.076C485.372 568.854 468.466 569.069 451.573 568.983C449.649 576.672 447.904 584.486 445.689 592.092C444.483 596.231 443.258 599.346 439.261 601.457C434.217 604.121 420.433 604.543 415.003 602.735C412.042 601.749 409.543 599.697 408.181 596.859C405.502 591.273 407.894 585.433 409.727 580.004C401.629 579.886 393.53 579.879 385.431 579.985C384.428 581.95 383.367 583.537 381.819 585.113C380.099 586.865 378.209 588.295 375.773 588.883C370.703 590.105 338.239 590.357 333.576 588.906C326.521 586.711 322.171 578.396 314.472 577.992C298.832 577.17 282.862 577.812 267.193 577.813L177.194 577.893C164.13 577.916 162.493 575.789 153.568 566.959C150.92 564.339 147.934 561.985 144.174 561.292C139.726 560.472 134.489 560.981 129.931 560.983L102.549 561.003L0 561.067L0 558.443L104.458 558.424L130.257 558.392C135.15 558.383 140.638 557.874 145.425 558.82C149.448 559.616 152.679 562.259 155.512 565.072C165.285 574.774 166.201 575.278 179.973 575.275L274.807 575.284C281.85 575.283 314.066 574.277 318.557 575.844C324.522 577.925 328.112 583.84 333.904 586.085C337.485 587.474 368.224 587.655 372.81 586.786C375.408 586.293 377.911 585.226 379.814 583.348C380.85 582.326 381.721 581.157 382.57 579.979L355.148 579.936C349.739 579.942 343.629 580.573 338.344 579.477C336.392 579.053 334.598 578.091 333.166 576.698C328.758 572.353 329.938 558.577 330.072 552.392C330.173 547.735 331.27 543.228 334.722 539.911C336.361 538.306 338.38 537.141 340.59 536.525C346.324 534.958 363.103 535.539 369.877 535.793C374.832 535.98 378.778 536.885 382.228 540.688C383.829 542.452 384.903 544.407 385.493 546.717C387.22 553.475 386.157 569.601 386.107 577.349C394.27 577.382 402.433 577.365 410.596 577.296C418.838 547.847 428.461 518.737 437.254 489.444C441.438 475.2 445.751 460.995 450.193 446.829C452.283 439.934 454.005 432.67 456.519 425.941C450.803 429.508 444.709 432.578 438.783 435.788L408.012 452.39L382.153 466.499C373.833 471.025 365.451 476.137 356.235 478.608C343.732 481.96 330.72 481.778 318.15 478.845C309.433 476.811 301.81 472.246 297.038 464.495C290.432 453.763 293.492 440.94 289.621 429.397C287.277 422.405 277.094 416.385 279.001 408.559C279.724 405.591 281.654 403.579 283.808 401.56C278.586 397.286 268.891 391.126 267.985 384.021C266.973 376.08 275.878 373.067 263.374 362.89C257.75 358.314 243.336 352.38 242.626 344.393C241.855 335.738 276.571 303.414 282.201 290.767C285.326 283.747 284.051 277.416 285.295 270.24C285.687 267.975 286.476 265.681 288.015 263.933C289.973 261.711 292.804 260.92 295.664 260.81C304.687 260.463 324.714 268.782 334.5 271.681ZM282.244 247.174C295.3 260.282 337.562 245.686 337.418 268.894C337.41 270.113 337.206 271.334 337.014 272.536C351.582 277.973 366.585 282.36 381.32 287.334C387.616 289.46 394.488 291.361 400.44 294.289C403.033 295.565 406.4 297.567 407.721 300.249C408.593 302.021 408.598 303.876 407.907 305.71C404.163 315.638 384.546 323.606 377.853 334.143C373.822 340.489 370.233 356.888 368.047 364.449C363.528 380.08 358.797 395.638 354.6 411.357C353.479 415.553 352.074 422.302 347.675 424.293C346.362 424.887 344.94 424.818 343.62 424.286C338.945 422.401 335.594 415.834 333.913 411.41C330.263 401.805 331.247 390.824 331.274 380.722L331.361 337.99C331.388 329.674 331.878 321.034 331.084 312.759C330.765 309.428 330.068 305.927 328.593 302.9C326.026 297.635 321.205 294.87 316.074 292.523C308.625 289.117 299.604 285.78 296.436 277.475C295.492 275.002 295.285 272.371 296.438 269.919C297.279 268.133 299.936 266.075 299.986 264.322C298.228 263.197 296.193 263.223 294.203 263.66C292.253 264.089 290.592 265.119 289.537 266.843C289.176 267.445 288.883 268.084 288.662 268.75C286.452 275.286 288.802 282.386 286.114 289.066C280.511 302.985 266.757 315.87 256.91 327.078C253.309 331.177 249.199 335.547 246.694 340.421C245.937 341.894 245.317 343.233 245.782 344.917C248.3 354.039 271.835 359.147 272.848 372.706C273.115 376.285 271.493 380.196 270.429 383.567C272.44 388.673 281.561 397.42 286.298 399.891C289.359 401.487 292.47 396.976 295.359 403.738C296.312 405.969 296.876 409.918 295.767 412.154C295.575 412.541 295.288 412.811 294.985 413.109C293.925 413.256 293.542 413.194 292.681 412.512C289.852 410.271 287.991 406.482 285.475 403.848C283.518 405.825 281.715 407.62 281.808 410.619C281.995 416.624 289.667 421.368 291.845 427.03C297.6 441.987 291.101 457.223 305.007 469.413C313.931 477.235 330.014 479.208 341.577 478.403C348.447 477.935 355.204 476.413 361.612 473.891C367.176 471.656 372.395 468.618 377.658 465.765L401.029 453.069L436.451 433.89C443.434 430.126 450.66 426.546 457.452 422.453C458.274 419.993 459.058 417.52 459.805 415.036C463.785 402.325 468.105 383.079 474.46 371.996C466.815 366.045 458.399 363.062 450.018 358.439C435.004 350.21 424.807 335.322 422.562 318.349C420.705 304.066 424.69 289.638 433.615 278.331C438.84 271.733 445.216 266.898 452.752 263.216C438.724 251.535 424.59 241.018 408.05 233.094C382.053 220.64 355.488 220.113 337.325 194.578C337.244 194.682 337.165 194.787 337.082 194.89C329.72 204.093 317.071 208.365 305.679 209.585C302.159 209.961 298.263 209.879 295.437 207.433C293.316 205.597 292.417 202.84 292.299 200.109C291.769 187.916 304.378 161.565 310.868 151.262C314.908 144.958 319.494 139.021 324.574 133.52C339.448 117.667 359.614 102.063 381.263 97.2629C384.467 96.5397 387.72 96.0516 390.995 95.8025C394.076 95.5949 397.43 95.7863 400.419 94.9735C406.5 93.3198 412.492 91.3684 418.607 89.8275C435.108 85.5754 452.042 83.2276 469.078 82.8302C511.347 81.5541 557.794 93.5182 589.172 123.093C607.109 140 619.331 161.013 620.005 186.037C620.442 202.292 617.038 217.852 612.43 233.354C610.603 239.502 607.638 245.918 607.094 252.307C606.801 255.744 607.287 258.885 609.829 261.448C611.416 263.048 613.509 263.881 615.762 263.76C619.172 263.578 622.001 261.54 624.124 259.015C639.505 240.726 644.513 199.658 642.354 176.58C639.629 147.45 627.127 124.022 604.565 105.396C566.215 73.7351 516.332 63.7356 467.713 64.6832C413.247 67.4475 359.107 84.4863 321.572 125.976C296.858 153.294 284.877 186.604 282.488 223.119C282.05 229.822 281.5 236.839 281.866 243.538C281.921 244.539 282.032 245.526 282.16 246.52L282.209 246.929C282.22 247.011 282.233 247.092 282.244 247.174ZM434.349 112.514C440.944 122.092 442.521 131.89 440.46 143.286C439.313 149.627 437.018 155.666 434.153 161.418C427.524 174.724 409.21 198.94 418.681 213.046C421.632 217.442 426.608 220.488 431.78 221.464C437.135 222.475 442.104 221.197 446.548 218.107C449.585 215.995 452.45 213.128 454.527 210.063C452.234 203.7 451.481 196.702 454.403 190.391C456.96 184.872 462.088 180.729 467.784 178.752C469.571 178.132 471.428 177.652 473.242 177.11C479.86 170.054 484.795 166.73 494.791 166.384C500.115 166.2 520.439 164.959 523.789 168.261C525.157 169.609 525.759 171.512 525.702 173.406C525.653 175.05 525.14 176.696 523.891 177.82C522.825 178.78 521.375 179.187 519.99 179.403C515.964 180.03 511.268 179.584 507.179 179.58C496.439 179.569 485.558 179.213 474.832 179.782C468.568 189.648 463.579 200.349 457.647 210.429C466.491 227.234 479.509 236.922 495.881 245.688C513.547 254.033 523.813 255.135 543.302 254.98C547.882 250.914 552.006 246.575 554.454 240.86C551.458 238.896 548.797 236.865 546.37 234.216C542.358 229.839 531.038 212.769 529.863 207.071C529.388 204.767 529.713 202.564 531.001 200.569C532.183 198.737 534.119 197.279 536.278 196.85C538.351 196.438 540.429 196.963 542.123 198.208C547.498 202.159 558.741 221.304 559.541 228.052C560.019 232.085 559.192 235.74 558.136 239.614C564.381 242.03 570.409 242.476 576.652 239.701C582.666 236.979 587.326 231.944 589.573 225.738C591.613 220.125 591.499 214.034 588.867 208.638C586.427 203.637 582.047 199.403 580.461 194.026C577.835 185.127 580.726 177.366 575.668 168.264C569.718 157.558 557.345 154.005 548.719 146.126C540.676 138.778 534.885 129.599 525.932 123.107C520.292 119.017 513.943 116.034 507.347 113.841C493.577 109.262 474.94 107.645 460.584 108.792C451.615 109.369 443.102 110.449 434.349 112.514ZM339.291 192.093C355.338 217.179 383.834 218.5 408.499 230.102C425.61 238.15 441.612 249.352 455.644 261.986C467.478 257.62 479.498 256.816 491.64 260.629C498.561 263.188 504.647 266.47 510.453 271.03C519.415 265.205 530.301 262.978 539.905 257.468C512.732 258.501 489.499 249.515 469.481 231.038C463.828 225.82 459.277 219.847 455.621 213.078C451.477 218.659 445.82 223.339 438.745 224.362C432.348 225.287 426.031 223.445 420.905 219.562C416.717 216.39 414.032 212.053 413.322 206.828C409.862 181.382 447.152 154.576 437.126 124.086C436.085 120.922 434.283 116.274 431.685 114.025C431.038 113.464 430.747 113.644 429.942 113.725C397.16 124.298 371.16 144.611 351.346 172.68C346.929 178.937 343.504 185.736 339.291 192.093ZM508.716 273.165C498.443 265.072 485.299 259.625 471.988 261.093C467.025 261.449 462.465 262.622 457.724 264.041C468.551 272.529 480.899 287.234 490.182 297.668C494.2 302.183 498.122 307.134 502.774 311.011C504.143 312.151 505.613 312.886 507.246 313.57C509.472 314.106 513.176 314.867 515.196 313.486C516.131 312.847 516.551 311.691 516.641 310.604C517.478 300.503 502.037 283.963 508.716 273.165ZM469.934 471.209C467.025 483.232 463.241 495.129 459.746 506.995L449.2 543.714C447.564 549.289 445.51 554.81 444.107 560.441C443.785 561.735 443.425 563.039 443.762 564.358C444.61 565.503 445.663 566.233 447.107 566.426C448.155 566.567 448.417 566.478 449.358 566.004C450.531 563.511 450.814 560.643 451.608 558.007C452.635 553.594 453.986 542.704 457.806 540.223C464.19 536.077 480.541 541.957 484.893 537.208C485.16 535.02 484.923 532.832 484.514 530.675C483.544 525.561 471.238 472.681 470.174 471.422C470.105 471.341 470.014 471.28 469.934 471.209ZM476.148 369.936C481.723 362.983 490.345 360.779 497.969 356.89C506.232 352.673 512.78 346.605 518.021 339.005C525.308 327.704 527.778 313.96 524.88 300.829C523.453 294.214 517.852 280.758 512.076 276.588C511.667 276.292 511.255 276.136 510.786 275.962C510.16 276.301 510.038 276.204 509.784 276.927C506.477 286.345 527.951 310.112 515.832 316.232C512.916 317.705 508.898 316.993 505.957 315.879C503.162 314.82 500.685 313.114 498.487 311.107C492.244 305.405 458.969 265.259 454.172 265.503C441.573 272.024 431.58 282.346 427.277 296.083C423.335 308.67 424.447 323.075 430.594 334.779C438.007 348.895 448.225 354.57 461.88 361.141C466.883 363.549 471.99 366.197 476.148 369.936ZM572.209 496.705C572.189 492.588 571.097 470.189 573.614 467.793C574.871 466.596 577.834 466.147 579.476 466.535C580.805 466.848 581.899 467.667 582.592 468.842C584.473 472.029 583.463 543.037 583.455 553.493C583.451 558.458 582.724 568.425 583.575 572.927C583.819 574.221 584.396 575.229 585.696 575.679C586.393 575.92 587.172 575.767 587.887 575.67C589.159 574.383 589.327 572.253 589.461 570.517C589.807 566.042 589.554 561.37 589.548 556.876L589.506 530.346L589.528 444.872C585.486 443.362 582.182 442.956 577.897 443.52C572.987 445.497 568.822 448.202 566.705 453.269C565.846 455.327 565.617 457.424 565.501 459.634C565.116 466.925 565.388 474.36 565.379 481.669L565.333 521.773L565.334 564.361C565.336 571.533 565.058 578.812 565.383 585.971C565.475 588.001 565.681 590.316 566.453 592.215C568.114 596.302 572.188 599.676 576.216 601.253C577.65 601.814 579.989 602.6 581.474 602.052C582.462 601.688 583.179 600.971 583.54 599.979C583.881 599.042 583.908 598.459 583.434 597.625C579.923 596.633 576.211 595.655 574.264 592.237C573.312 590.566 572.938 588.616 572.784 586.72C571.973 576.758 572.518 566.297 572.474 556.283L572.209 496.705ZM429.17 110.972C420.919 104.148 410.967 98.7107 399.993 98.4718C377.411 105.364 352.854 122.971 341.562 144.082C335.042 156.272 331.983 171.043 336.085 184.54C336.587 186.191 337.249 187.803 337.862 189.417C340.705 183.802 344.111 178.425 347.437 173.085C369.047 142.349 393.563 123.109 429.17 110.972ZM698.121 553.093C703.073 553.203 719.666 554.082 723.574 553.027C725.693 552.7 727.367 552.165 728.698 550.351C731.711 546.244 731.381 532.826 730.528 527.79C730.421 527.157 730.201 526.634 729.932 526.054C729.706 524.64 728.963 523.408 727.76 522.593C723.799 519.912 709.342 520.747 704.708 521.205C702.653 521.828 700.916 522.938 699.898 524.891C696.32 531.752 701.001 547.244 698.121 553.093ZM509.561 566.313C510.695 565.824 510.947 565.878 511.525 564.739C511.148 561.019 509.858 557.141 508.963 553.506L503.509 531.463L493.849 493.246C492.517 487.904 491.573 482.297 490.051 477.029C489.704 475.828 489.114 474.27 488.151 473.449C487.444 472.846 486.338 472.555 485.441 472.419C484.378 473.309 483.501 473.932 483.104 475.331C484.311 485.62 488.745 500.165 491.24 510.833L499.551 546.364C501.113 552.947 502.507 559.721 504.469 566.194C506.166 566.249 507.863 566.319 509.561 566.313ZM333.714 274.64C327.761 272.6 321.739 270.669 315.884 268.361L316.122 268.863C318.392 273.699 320.156 282.957 324.46 286.148C326.433 285.966 327.936 283.78 329.165 282.331C330.974 279.862 332.314 277.35 333.714 274.64ZM336.3 275.336C334.614 279.902 331.147 286.458 326.493 288.654C325.485 289.13 324.383 289.239 323.351 288.769C314.858 284.9 318.341 264.986 304.134 266.07C301.892 267.184 299.932 268.697 299.101 271.167C298.332 273.453 298.923 276.253 300.057 278.316C307.939 292.657 330.589 285.367 333.705 311.062C334.663 318.966 334.113 327.447 334.126 335.416L334.14 380.097C334.122 387.501 333.551 395.398 334.656 402.714C335.327 407.153 339.622 420.777 344.681 421.96C345.515 422.155 346.218 421.966 346.917 421.481C348.271 420.542 349.132 418.581 349.727 417.085C351.629 412.299 352.743 407.053 354.186 402.104L363.18 371.098C366.19 360.772 371.076 339.532 376.373 331.291C377.718 329.199 379.712 327.279 381.529 325.599C387.285 320.28 394.134 316.28 399.97 311.069C402.276 309.01 406.034 305.683 405.398 302.276C403.873 299.605 401.112 297.896 398.433 296.54C392.524 293.55 385.73 291.767 379.446 289.687C365.118 284.944 350.393 280.686 336.3 275.336ZM554.201 237.228L555.072 237.85C555.705 237.585 555.661 237.742 555.972 237.022C557.917 232.538 556.774 226.751 554.877 222.499C552.613 217.422 544.025 201.824 539.101 199.832C538.537 199.604 537.974 199.477 537.379 199.361C535.512 200.216 533.483 201.043 532.743 203.148C531.832 205.74 533.57 209.271 534.786 211.533C539.051 219.462 546.717 232.551 554.201 237.228ZM336.012 191.741C329.934 180.03 330.345 166.047 334.271 153.717C341.696 130.396 360.991 114.046 382.1 103.201C384.654 101.889 388.84 100.53 390.788 98.5056C390.371 98.5034 389.961 98.4701 389.552 98.5569C359.864 103.676 333.596 123.939 316.483 148.248C309.455 158.232 293.303 189.537 295.194 201.355C295.474 203.104 296.197 204.452 297.678 205.459C298.88 206.276 300.334 206.737 301.757 206.975C314.343 205.994 326.771 202.841 335.225 192.732C335.498 192.41 335.761 192.08 336.012 191.741ZM476.946 176.962C487.713 176.864 498.481 176.841 509.248 176.892C512.256 176.932 519.516 177.789 521.748 175.56C522.507 174.802 522.733 173.769 522.651 172.709C522.573 171.687 522.268 171.073 521.686 170.251C518.023 168.024 495.765 169.068 490.485 169.412C484.949 170.812 480.958 172.858 476.946 176.962ZM288.578 402.478C290.056 404.475 291.704 407.38 293.769 408.744C293.461 406.912 293.282 404.864 291.707 403.633C290.863 402.973 289.611 402.696 288.578 402.478ZM456.35 207.027C461.089 198.595 466.511 190.023 470.481 181.21L470.181 180.835C464.713 182.67 459.861 185.768 457.257 191.1C454.735 196.266 455.169 201.576 456.35 207.027ZM462.018 420.041C463.933 418.988 465.894 417.997 467.614 416.637C470.313 408.592 477.534 387.805 477.793 380.298C477.862 378.296 477.37 376.412 476.486 374.621C476.394 374.435 476.297 374.252 476.202 374.067C474.988 376.595 473.781 379.143 472.842 381.788C471.226 386.343 461.075 418.399 461.467 420.222L462.018 420.041ZM338.905 576.926C344.253 578.365 375.925 577.346 383.442 577.322C383.679 570.621 384.615 552.992 382.786 547.249C381.746 543.984 379.641 541.099 376.481 539.607C372.547 537.749 349 537.96 343.747 538.554C342.369 538.71 341.074 539.17 339.784 539.655C336.111 541.869 334.098 544.491 333.116 548.669C331.942 553.665 331.748 569.452 334.493 573.786C335.352 575.142 337.01 576.543 338.607 576.891C338.705 576.912 338.805 576.914 338.905 576.926ZM412.406 580.029C411.163 584.379 408.108 591.22 410.323 595.492C411.62 597.996 414.178 599.575 416.823 600.332C421.624 601.707 433.461 601.594 437.931 599.171C441.307 597.341 442.407 593.945 443.334 590.455C445.225 583.335 446.871 576.138 448.9 569.054C446.483 569.01 443.965 568.983 442.157 567.1C440.958 565.85 440.753 564.304 440.891 562.642C441.341 557.213 446.67 542.426 448.544 535.933C453.072 519.924 457.69 503.94 462.397 487.982C464.098 482.196 465.57 476.278 467.432 470.549C467.733 469.621 468.155 468.589 468.971 467.999C469.716 467.461 470.102 467.567 470.975 467.599C472.22 468.497 472.685 469.744 473.15 471.153C474.521 475.309 475.213 479.738 476.21 483.995L481.151 504.708C483.201 513.558 486.004 522.58 487.488 531.508C487.812 533.459 488.385 536.79 487.211 538.492C485.907 540.385 483.928 541.2 481.723 541.524C476.399 542.305 462.26 539.123 458.827 543.236C455.78 546.886 453.852 561.064 452.248 566.311L459.641 566.362C473.624 566.447 487.607 566.396 501.59 566.207C496.215 544.291 491.058 522.322 486.118 500.304C484.488 493.003 481.722 485.626 480.781 478.219C480.524 476.2 480.521 473.828 481.599 472.037C482.298 470.876 483.281 470.22 484.616 470.007C486.177 469.758 488.542 470.107 489.799 471.148C491.193 472.304 491.948 474.217 492.478 475.906C494.468 482.252 495.581 489.188 497.248 495.674C501.315 511.33 505.264 527.017 509.093 542.733C510.553 548.568 513.952 558.696 514.07 564.459C514.097 565.779 514.068 566.628 513.079 567.592C511.223 569.403 507.409 568.959 505.056 568.916C506.555 575.876 508.39 588.84 511.306 594.747C512.253 596.667 513.614 598.328 515.462 599.449C519.008 601.599 533.479 601.411 537.692 600.197C540.422 599.411 542.627 597.743 543.946 595.206C545.025 593.13 545.284 590.875 544.841 588.589C543.881 583.632 541.98 578.636 540.462 573.816L531.78 546.211L513.035 485.858C510.211 476.867 507.648 467.715 504.568 458.813C502.431 452.635 499.551 447.997 493.488 445.102C489.495 443.195 485.148 442.768 480.773 443.085C474.954 443.764 469.88 446.072 466.186 450.736C464.658 452.666 463.583 454.947 462.717 457.239C458.687 467.914 455.837 479.338 452.527 490.28L434.03 550.827C431.951 557.59 429.264 569.73 425.324 575.232C423.634 577.593 420.373 579.255 417.541 579.62C415.847 579.838 414.11 579.938 412.406 580.029Z"/>
	<path fill="#F2F1F3" fill-opacity="0.015686275" transform="scale(1.3855 1.38485)" d="M288.578 402.478C289.611 402.696 290.863 402.973 291.707 403.633C293.282 404.864 293.461 406.912 293.769 408.744C291.704 407.38 290.056 404.475 288.578 402.478Z"/>
</svg>
