<svg width="638" height="638" viewBox="0 0 638 638" fill="none" xmlns="http://www.w3.org/2000/svg">
<mask id="mask0_1005_57" style="mask-type:alpha" maskUnits="userSpaceOnUse" x="0" y="0" width="638" height="638">
<circle cx="319" cy="319" r="318.198" fill="url(#paint0_linear_1005_57)"/>
</mask>
<g mask="url(#mask0_1005_57)">
<g opacity="0.4" filter="url(#filter0_i_1005_57)">
<path d="M544 544C603.674 484.326 637.198 403.391 637.198 319C637.198 234.609 603.674 153.674 544 94C484.326 34.3263 403.391 0.80196 319 0.801951C234.609 0.801943 153.674 34.3263 94.0001 94L258.222 258.222C274.341 242.102 296.204 233.047 319 233.047C341.796 233.047 363.659 242.102 379.778 258.222C395.898 274.341 404.953 296.204 404.953 319C404.953 341.796 395.898 363.659 379.778 379.778L544 544Z" fill="url(#paint1_linear_1005_57)"/>
<path d="M544 544C603.674 484.326 637.198 403.391 637.198 319C637.198 234.609 603.674 153.674 544 94C484.326 34.3263 403.391 0.80196 319 0.801951C234.609 0.801943 153.674 34.3263 94.0001 94L258.222 258.222C274.341 242.102 296.204 233.047 319 233.047C341.796 233.047 363.659 242.102 379.778 258.222C395.898 274.341 404.953 296.204 404.953 319C404.953 341.796 395.898 363.659 379.778 379.778L544 544Z" fill="#1F2E7E" fill-opacity="0.2"/>
</g>
<g opacity="0.4" filter="url(#filter1_i_1005_57)">
<path d="M599.317 319C599.317 473.815 473.815 599.317 319 599.317C164.185 599.317 38.6827 473.815 38.6827 319C38.6827 164.185 164.185 38.6827 319 38.6827C473.815 38.6827 599.317 164.185 599.317 319ZM50.7083 319C50.7083 467.174 170.827 587.292 319 587.292C467.174 587.292 587.292 467.174 587.292 319C587.292 170.827 467.174 50.7083 319 50.7083C170.827 50.7083 50.7083 170.827 50.7083 319Z" fill="url(#paint2_linear_1005_57)"/>
<path d="M599.317 319C599.317 473.815 473.815 599.317 319 599.317C164.185 599.317 38.6827 473.815 38.6827 319C38.6827 164.185 164.185 38.6827 319 38.6827C473.815 38.6827 599.317 164.185 599.317 319ZM50.7083 319C50.7083 467.174 170.827 587.292 319 587.292C467.174 587.292 587.292 467.174 587.292 319C587.292 170.827 467.174 50.7083 319 50.7083C170.827 50.7083 50.7083 170.827 50.7083 319Z" fill="#1F2E7E" fill-opacity="0.2"/>
</g>
<g filter="url(#filter2_i_1005_57)">
<path d="M599.317 319C599.317 374.442 582.877 428.638 552.075 474.736C521.274 520.834 477.494 556.763 426.273 577.979C375.052 599.196 318.689 604.747 264.313 593.931C209.937 583.115 159.989 556.417 120.786 517.214C81.5827 478.011 54.8851 428.063 44.069 373.687C33.2529 319.311 38.8041 262.949 60.0206 211.727C81.2372 160.506 117.166 116.726 163.264 85.9247C209.362 55.1231 263.559 38.6827 319 38.6827V243.279C304.024 243.279 289.384 247.72 276.932 256.04C264.48 264.361 254.774 276.187 249.043 290.023C243.312 303.859 241.812 319.084 244.734 333.772C247.656 348.461 254.868 361.953 265.457 372.543C276.047 383.133 289.539 390.344 304.228 393.266C318.916 396.188 334.141 394.688 347.977 388.957C361.813 383.226 373.639 373.521 381.96 361.068C390.28 348.616 394.721 333.976 394.721 319H599.317Z" fill="url(#paint3_linear_1005_57)"/>
<path d="M599.317 319C599.317 374.442 582.877 428.638 552.075 474.736C521.274 520.834 477.494 556.763 426.273 577.979C375.052 599.196 318.689 604.747 264.313 593.931C209.937 583.115 159.989 556.417 120.786 517.214C81.5827 478.011 54.8851 428.063 44.069 373.687C33.2529 319.311 38.8041 262.949 60.0206 211.727C81.2372 160.506 117.166 116.726 163.264 85.9247C209.362 55.1231 263.559 38.6827 319 38.6827V243.279C304.024 243.279 289.384 247.72 276.932 256.04C264.48 264.361 254.774 276.187 249.043 290.023C243.312 303.859 241.812 319.084 244.734 333.772C247.656 348.461 254.868 361.953 265.457 372.543C276.047 383.133 289.539 390.344 304.228 393.266C318.916 396.188 334.141 394.688 347.977 388.957C361.813 383.226 373.639 373.521 381.96 361.068C390.28 348.616 394.721 333.976 394.721 319H599.317Z" fill="#1F2E7E" fill-opacity="0.2"/>
</g>
<g opacity="0.3" filter="url(#filter3_ii_1005_57)">
<path d="M88.3486 319C88.3486 257.827 112.649 199.16 155.905 155.905C199.16 112.649 257.827 88.3484 319 88.3484C380.173 88.3484 438.84 112.649 482.095 155.905C525.351 199.16 549.652 257.827 549.652 319L381.305 319C381.305 302.476 374.741 286.628 363.056 274.944C351.372 263.259 335.524 256.695 319 256.695C302.476 256.695 286.628 263.259 274.944 274.944C263.259 286.628 256.695 302.476 256.695 319L88.3486 319Z" fill="url(#paint4_radial_1005_57)"/>
<path d="M88.3486 319C88.3486 257.827 112.649 199.16 155.905 155.905C199.16 112.649 257.827 88.3484 319 88.3484C380.173 88.3484 438.84 112.649 482.095 155.905C525.351 199.16 549.652 257.827 549.652 319L381.305 319C381.305 302.476 374.741 286.628 363.056 274.944C351.372 263.259 335.524 256.695 319 256.695C302.476 256.695 286.628 263.259 274.944 274.944C263.259 286.628 256.695 302.476 256.695 319L88.3486 319Z" fill="#1F2E7E" fill-opacity="0.2"/>
</g>
<g filter="url(#filter4_i_1005_57)">
<path d="M549.652 319C549.652 364.619 536.124 409.213 510.78 447.143C485.435 485.074 449.413 514.637 407.267 532.094C365.121 549.552 318.744 554.119 274.002 545.22C229.26 536.32 188.162 514.352 155.905 482.095C123.648 449.838 101.68 408.74 92.7805 363.998C83.8807 319.256 88.4484 272.88 105.906 230.733C123.363 188.587 152.927 152.565 190.857 127.22C228.787 101.876 273.382 88.3485 319 88.3485V256.695C306.677 256.695 294.631 260.349 284.385 267.195C274.139 274.042 266.154 283.772 261.438 295.157C256.722 306.542 255.488 319.069 257.892 331.155C260.296 343.241 266.23 354.343 274.944 363.056C283.657 371.77 294.759 377.704 306.845 380.108C318.931 382.512 331.458 381.278 342.843 376.562C354.228 371.846 363.958 363.861 370.805 353.615C377.651 343.369 381.305 331.323 381.305 319H549.652Z" fill="url(#paint5_linear_1005_57)"/>
<path d="M549.652 319C549.652 364.619 536.124 409.213 510.78 447.143C485.435 485.074 449.413 514.637 407.267 532.094C365.121 549.552 318.744 554.119 274.002 545.22C229.26 536.32 188.162 514.352 155.905 482.095C123.648 449.838 101.68 408.74 92.7805 363.998C83.8807 319.256 88.4484 272.88 105.906 230.733C123.363 188.587 152.927 152.565 190.857 127.22C228.787 101.876 273.382 88.3485 319 88.3485V256.695C306.677 256.695 294.631 260.349 284.385 267.195C274.139 274.042 266.154 283.772 261.438 295.157C256.722 306.542 255.488 319.069 257.892 331.155C260.296 343.241 266.23 354.343 274.944 363.056C283.657 371.77 294.759 377.704 306.845 380.108C318.931 382.512 331.458 381.278 342.843 376.562C354.228 371.846 363.958 363.861 370.805 353.615C377.651 343.369 381.305 331.323 381.305 319H549.652Z" fill="#1F2E7E" fill-opacity="0.2"/>
</g>
<g filter="url(#filter5_i_1005_57)">
<path d="M199.465 319C199.465 295.358 206.476 272.247 219.611 252.59C232.745 232.933 251.414 217.612 273.256 208.564C295.098 199.517 319.133 197.15 342.32 201.762C365.508 206.374 386.807 217.759 403.524 234.476C420.241 251.193 431.626 272.492 436.238 295.68C440.85 318.867 438.483 342.902 429.436 364.744C420.388 386.586 405.067 405.255 385.41 418.389C365.753 431.524 342.642 438.535 319 438.535L319 367.535C328.599 367.535 337.983 364.689 345.965 359.356C353.946 354.023 360.167 346.442 363.841 337.574C367.514 328.705 368.476 318.946 366.603 309.531C364.73 300.116 360.108 291.468 353.32 284.68C346.532 277.892 337.884 273.27 328.469 271.397C319.054 269.524 309.295 270.486 300.426 274.159C291.558 277.833 283.977 284.054 278.644 292.035C273.311 300.017 270.465 309.401 270.465 319L199.465 319Z" fill="url(#paint6_linear_1005_57)"/>
<path d="M199.465 319C199.465 295.358 206.476 272.247 219.611 252.59C232.745 232.933 251.414 217.612 273.256 208.564C295.098 199.517 319.133 197.15 342.32 201.762C365.508 206.374 386.807 217.759 403.524 234.476C420.241 251.193 431.626 272.492 436.238 295.68C440.85 318.867 438.483 342.902 429.436 364.744C420.388 386.586 405.067 405.255 385.41 418.389C365.753 431.524 342.642 438.535 319 438.535L319 367.535C328.599 367.535 337.983 364.689 345.965 359.356C353.946 354.023 360.167 346.442 363.841 337.574C367.514 328.705 368.476 318.946 366.603 309.531C364.73 300.116 360.108 291.468 353.32 284.68C346.532 277.892 337.884 273.27 328.469 271.397C319.054 269.524 309.295 270.486 300.426 274.159C291.558 277.833 283.977 284.054 278.644 292.035C273.311 300.017 270.465 309.401 270.465 319L199.465 319Z" fill="#1F2E7E" fill-opacity="0.2"/>
</g>
<g opacity="0.4" filter="url(#filter6_i_1005_57)">
<path d="M199.465 319C199.465 295.358 206.476 272.247 219.611 252.59C232.745 232.933 251.414 217.612 273.256 208.564C295.098 199.517 319.133 197.15 342.32 201.762C365.508 206.374 386.807 217.759 403.524 234.476C420.241 251.193 431.626 272.492 436.238 295.68C440.85 318.867 438.483 342.902 429.436 364.744C420.388 386.586 405.067 405.255 385.41 418.389C365.753 431.524 342.642 438.535 319 438.535L319 403.935C335.799 403.935 352.22 398.954 366.187 389.621C380.155 380.288 391.041 367.023 397.47 351.503C403.898 335.983 405.58 318.906 402.303 302.43C399.026 285.954 390.936 270.82 379.058 258.942C367.18 247.063 352.046 238.974 335.57 235.697C319.094 232.42 302.017 234.102 286.497 240.53C270.977 246.959 257.712 257.845 248.379 271.813C239.046 285.78 234.065 302.201 234.065 319L199.465 319Z" fill="url(#paint7_linear_1005_57)"/>
<path d="M199.465 319C199.465 295.358 206.476 272.247 219.611 252.59C232.745 232.933 251.414 217.612 273.256 208.564C295.098 199.517 319.133 197.15 342.32 201.762C365.508 206.374 386.807 217.759 403.524 234.476C420.241 251.193 431.626 272.492 436.238 295.68C440.85 318.867 438.483 342.902 429.436 364.744C420.388 386.586 405.067 405.255 385.41 418.389C365.753 431.524 342.642 438.535 319 438.535L319 403.935C335.799 403.935 352.22 398.954 366.187 389.621C380.155 380.288 391.041 367.023 397.47 351.503C403.898 335.983 405.58 318.906 402.303 302.43C399.026 285.954 390.936 270.82 379.058 258.942C367.18 247.063 352.046 238.974 335.57 235.697C319.094 232.42 302.017 234.102 286.497 240.53C270.977 246.959 257.712 257.845 248.379 271.813C239.046 285.78 234.065 302.201 234.065 319L199.465 319Z" fill="#1F2E7E" fill-opacity="0.2"/>
</g>
</g>
<defs>
<filter id="filter0_i_1005_57" x="72.2294" y="0.802002" width="564.969" height="581.297" filterUnits="userSpaceOnUse" color-interpolation-filters="sRGB">
<feFlood flood-opacity="0" result="BackgroundImageFix"/>
<feBlend mode="normal" in="SourceGraphic" in2="BackgroundImageFix" result="shape"/>
<feColorMatrix in="SourceAlpha" type="matrix" values="0 0 0 0 0 0 0 0 0 0 0 0 0 0 0 0 0 0 127 0" result="hardAlpha"/>
<feOffset dx="-21.7706" dy="38.0986"/>
<feGaussianBlur stdDeviation="46.2626"/>
<feComposite in2="hardAlpha" operator="arithmetic" k2="-1" k3="1"/>
<feColorMatrix type="matrix" values="0 0 0 0 1 0 0 0 0 1 0 0 0 0 1 0 0 0 0.87 0"/>
<feBlend mode="lighten" in2="shape" result="effect1_innerShadow_1005_57"/>
</filter>
<filter id="filter1_i_1005_57" x="16.9121" y="38.6827" width="582.405" height="598.733" filterUnits="userSpaceOnUse" color-interpolation-filters="sRGB">
<feFlood flood-opacity="0" result="BackgroundImageFix"/>
<feBlend mode="normal" in="SourceGraphic" in2="BackgroundImageFix" result="shape"/>
<feColorMatrix in="SourceAlpha" type="matrix" values="0 0 0 0 0 0 0 0 0 0 0 0 0 0 0 0 0 0 127 0" result="hardAlpha"/>
<feOffset dx="-21.7706" dy="38.0986"/>
<feGaussianBlur stdDeviation="46.2626"/>
<feComposite in2="hardAlpha" operator="arithmetic" k2="-1" k3="1"/>
<feColorMatrix type="matrix" values="0 0 0 0 1 0 0 0 0 1 0 0 0 0 1 0 0 0 0.87 0"/>
<feBlend mode="lighten" in2="shape" result="effect1_innerShadow_1005_57"/>
</filter>
<filter id="filter2_i_1005_57" x="16.912" y="38.6827" width="582.405" height="598.733" filterUnits="userSpaceOnUse" color-interpolation-filters="sRGB">
<feFlood flood-opacity="0" result="BackgroundImageFix"/>
<feBlend mode="normal" in="SourceGraphic" in2="BackgroundImageFix" result="shape"/>
<feColorMatrix in="SourceAlpha" type="matrix" values="0 0 0 0 0 0 0 0 0 0 0 0 0 0 0 0 0 0 127 0" result="hardAlpha"/>
<feOffset dx="-21.7706" dy="38.0986"/>
<feGaussianBlur stdDeviation="46.2626"/>
<feComposite in2="hardAlpha" operator="arithmetic" k2="-1" k3="1"/>
<feColorMatrix type="matrix" values="0 0 0 0 1 0 0 0 0 1 0 0 0 0 1 0 0 0 0.87 0"/>
<feBlend mode="lighten" in2="shape" result="effect1_innerShadow_1005_57"/>
</filter>
<filter id="filter3_ii_1005_57" x="69.997" y="88.3484" width="506.004" height="262.767" filterUnits="userSpaceOnUse" color-interpolation-filters="sRGB">
<feFlood flood-opacity="0" result="BackgroundImageFix"/>
<feBlend mode="normal" in="SourceGraphic" in2="BackgroundImageFix" result="shape"/>
<feColorMatrix in="SourceAlpha" type="matrix" values="0 0 0 0 0 0 0 0 0 0 0 0 0 0 0 0 0 0 127 0" result="hardAlpha"/>
<feOffset dx="-18.3516" dy="32.1153"/>
<feGaussianBlur stdDeviation="38.9971"/>
<feComposite in2="hardAlpha" operator="arithmetic" k2="-1" k3="1"/>
<feColorMatrix type="matrix" values="0 0 0 0 1 0 0 0 0 1 0 0 0 0 1 0 0 0 0.87 0"/>
<feBlend mode="lighten" in2="shape" result="effect1_innerShadow_1005_57"/>
<feColorMatrix in="SourceAlpha" type="matrix" values="0 0 0 0 0 0 0 0 0 0 0 0 0 0 0 0 0 0 127 0" result="hardAlpha"/>
<feOffset dx="26.3494" dy="15.3705"/>
<feGaussianBlur stdDeviation="15.3705"/>
<feComposite in2="hardAlpha" operator="arithmetic" k2="-1" k3="1"/>
<feColorMatrix type="matrix" values="0 0 0 0 0.168627 0 0 0 0 0.180392 0 0 0 0 0.239216 0 0 0 0.9 0"/>
<feBlend mode="multiply" in2="effect1_innerShadow_1005_57" result="effect2_innerShadow_1005_57"/>
</filter>
<filter id="filter4_i_1005_57" x="66.5778" y="88.3485" width="483.074" height="499.402" filterUnits="userSpaceOnUse" color-interpolation-filters="sRGB">
<feFlood flood-opacity="0" result="BackgroundImageFix"/>
<feBlend mode="normal" in="SourceGraphic" in2="BackgroundImageFix" result="shape"/>
<feColorMatrix in="SourceAlpha" type="matrix" values="0 0 0 0 0 0 0 0 0 0 0 0 0 0 0 0 0 0 127 0" result="hardAlpha"/>
<feOffset dx="-21.7706" dy="38.0986"/>
<feGaussianBlur stdDeviation="46.2626"/>
<feComposite in2="hardAlpha" operator="arithmetic" k2="-1" k3="1"/>
<feColorMatrix type="matrix" values="0 0 0 0 1 0 0 0 0 1 0 0 0 0 1 0 0 0 0.87 0"/>
<feBlend mode="lighten" in2="shape" result="effect1_innerShadow_1005_57"/>
</filter>
<filter id="filter5_i_1005_57" x="177.695" y="199.465" width="260.84" height="277.168" filterUnits="userSpaceOnUse" color-interpolation-filters="sRGB">
<feFlood flood-opacity="0" result="BackgroundImageFix"/>
<feBlend mode="normal" in="SourceGraphic" in2="BackgroundImageFix" result="shape"/>
<feColorMatrix in="SourceAlpha" type="matrix" values="0 0 0 0 0 0 0 0 0 0 0 0 0 0 0 0 0 0 127 0" result="hardAlpha"/>
<feOffset dx="-21.7706" dy="38.0986"/>
<feGaussianBlur stdDeviation="46.2626"/>
<feComposite in2="hardAlpha" operator="arithmetic" k2="-1" k3="1"/>
<feColorMatrix type="matrix" values="0 0 0 0 1 0 0 0 0 1 0 0 0 0 1 0 0 0 0.87 0"/>
<feBlend mode="lighten" in2="shape" result="effect1_innerShadow_1005_57"/>
</filter>
<filter id="filter6_i_1005_57" x="177.695" y="199.465" width="260.84" height="277.168" filterUnits="userSpaceOnUse" color-interpolation-filters="sRGB">
<feFlood flood-opacity="0" result="BackgroundImageFix"/>
<feBlend mode="normal" in="SourceGraphic" in2="BackgroundImageFix" result="shape"/>
<feColorMatrix in="SourceAlpha" type="matrix" values="0 0 0 0 0 0 0 0 0 0 0 0 0 0 0 0 0 0 127 0" result="hardAlpha"/>
<feOffset dx="-21.7706" dy="38.0986"/>
<feGaussianBlur stdDeviation="46.2626"/>
<feComposite in2="hardAlpha" operator="arithmetic" k2="-1" k3="1"/>
<feColorMatrix type="matrix" values="0 0 0 0 1 0 0 0 0 1 0 0 0 0 1 0 0 0 0.87 0"/>
<feBlend mode="lighten" in2="shape" result="effect1_innerShadow_1005_57"/>
</filter>
<linearGradient id="paint0_linear_1005_57" x1="353.105" y1="863" x2="155.014" y2="49.0091" gradientUnits="userSpaceOnUse">
<stop offset="0.366505" stop-opacity="0"/>
<stop offset="1"/>
</linearGradient>
<linearGradient id="paint1_linear_1005_57" x1="456.488" y1="-239.478" x2="607.159" y2="46.3476" gradientUnits="userSpaceOnUse">
<stop stop-color="#949494"/>
<stop offset="0.635171" stop-color="#181818"/>
<stop offset="1" stop-color="#1D1D1D"/>
</linearGradient>
<linearGradient id="paint2_linear_1005_57" x1="56.7541" y1="-114.536" x2="328.66" y2="-30.3447" gradientUnits="userSpaceOnUse">
<stop stop-color="#949494"/>
<stop offset="0.635171" stop-color="#181818"/>
<stop offset="1" stop-color="#1D1D1D"/>
</linearGradient>
<linearGradient id="paint3_linear_1005_57" x1="56.7541" y1="-114.536" x2="328.66" y2="-30.3447" gradientUnits="userSpaceOnUse">
<stop stop-color="#949494"/>
<stop offset="0.635171" stop-color="#181818"/>
<stop offset="1" stop-color="#1D1D1D"/>
</linearGradient>
<radialGradient id="paint4_radial_1005_57" cx="0" cy="0" r="1" gradientUnits="userSpaceOnUse" gradientTransform="translate(393.326 587.301) rotate(-92.7875) scale(164.497 427.65)">
<stop stop-color="#949494"/>
<stop offset="0.635171" stop-color="#181818"/>
<stop offset="1" stop-color="#1D1D1D"/>
</radialGradient>
<linearGradient id="paint5_linear_1005_57" x1="103.218" y1="-37.7235" x2="326.948" y2="31.5512" gradientUnits="userSpaceOnUse">
<stop stop-color="#949494"/>
<stop offset="0.635171" stop-color="#181818"/>
<stop offset="1" stop-color="#1D1D1D"/>
</linearGradient>
<linearGradient id="paint6_linear_1005_57" x1="430.829" y1="503.871" x2="314.881" y2="467.97" gradientUnits="userSpaceOnUse">
<stop stop-color="#949494"/>
<stop offset="0.635171" stop-color="#181818"/>
<stop offset="1" stop-color="#1D1D1D"/>
</linearGradient>
<linearGradient id="paint7_linear_1005_57" x1="430.829" y1="503.871" x2="314.881" y2="467.97" gradientUnits="userSpaceOnUse">
<stop stop-color="#949494"/>
<stop offset="0.635171" stop-color="#181818"/>
<stop offset="1" stop-color="#1D1D1D"/>
</linearGradient>
</defs>
</svg>
