<?xml version="1.0" encoding="utf-8" ?>
<svg xmlns="http://www.w3.org/2000/svg" xmlns:xlink="http://www.w3.org/1999/xlink" width="500" height="726">
	<path fill="#FEFEF8" d="M113.607 22.6391C120.017 21.7011 131.462 22.4006 138.438 22.4113L189.264 22.3855L379.989 22.4304C406.724 22.5065 433.002 25.0331 452.862 44.9755C462.97 55.1255 469.193 67.8888 472.227 81.8031C475.377 96.251 474.956 111.517 474.919 126.241L474.853 161.606L474.927 292.847C474.921 298.104 474.243 320.685 475.062 323.493C475.249 324.134 476.23 324.453 476.767 324.7C477.198 324.899 477.023 324.79 477.364 325.065C477.441 327.843 477.503 330.621 477.55 333.399L477.571 397.938C477.568 409.341 477.906 420.845 477.526 432.236C477.395 436.169 475.419 437.841 474.958 441.13C474.029 447.754 475.049 455.715 474.789 462.554C475.215 479.921 474.866 497.382 474.86 514.759L474.861 609.341L474.853 686.894C474.855 699.675 475.318 712.633 474.852 725.394C474.756 725.448 474.663 725.508 474.564 725.557C473.327 726.161 472.598 726.011 471.331 725.552L469.861 725.381C469.684 725.482 469.439 725.631 469.242 725.719C468.095 726.228 467.39 725.831 466.325 725.386C465.948 725.609 465.669 725.763 465.242 725.874C463.414 726.346 459.366 726.347 457.782 725.389C457.394 725.634 457.017 725.804 456.564 725.902C453.433 726.582 434.459 726.001 429.981 726.002L355.949 726.001L48.268 725.999C46.4763 725.998 43.749 726.359 42.2225 725.392C41.8434 725.611 41.5555 725.764 41.1296 725.875C39.4022 726.327 35.9001 726.308 34.3865 725.385C33.2254 725.868 33.1739 725.903 31.9728 725.551L30.8533 725.558L29.7329 725.498C28.7444 725.822 28.5764 725.691 27.6114 725.404C27.3526 725.554 27.2213 725.642 26.9249 725.755C25.9195 726.142 25.3771 725.762 24.4508 725.388L24.4512 522.75L24.3781 464.366C24.3849 456.596 25.309 445.161 24.2409 437.901C23.3147 437.682 22.7902 437.572 22.153 436.842C21.0592 429.671 20.407 371.391 21.8271 367.062L22.4544 366.472C22.3171 368.258 21.983 370.885 22.8341 372.509C23.1423 372.443 23.3528 372.441 23.5938 372.227L23.7282 371.531C24.0644 369.761 24.6612 368.199 23.5923 366.625L22.4544 366.472L23.9037 366.056C24.9755 363.3 24.8553 350.016 23.8587 347.27C23.2933 346.881 22.6532 346.475 22.237 345.919C21.2271 344.571 21.8001 342.173 21.9492 340.61C21.9827 338.943 21.8947 337.259 21.8548 335.591C21.2645 330.855 21.554 325.839 21.5617 321.072L21.5775 297.401C21.5779 294.11 21.6955 290.784 21.5394 287.498C21.355 283.618 20.8629 279.711 21.0362 275.828C21.9176 274.73 22.6502 275.824 23.8113 275.081C24.3034 273.859 24.3497 272.538 24.4043 271.237C24.5576 267.582 25.097 247.349 24.2776 245.143C23.989 244.366 22.8689 243.643 22.3243 242.993C21.2296 241.687 21.6305 239.031 21.8503 237.455L21.93 233.022C21.793 232.34 21.6958 231.651 21.6387 230.958C21.4415 228.597 20.8099 207.329 21.2808 206.478C21.4236 206.221 21.6675 206.033 21.8608 205.811C22.6446 205.773 23.246 205.778 23.9409 205.359C25.2728 196.42 24.4772 184.698 24.4793 175.519C24.4847 153.014 23.971 130.418 24.3802 107.928C24.8161 83.9725 29.8478 60.7865 47.7609 43.6775C65.4509 26.7815 89.8658 22.086 113.607 22.6391ZM23.2866 215.626C23.4753 213.767 24.7182 208.039 23.6803 206.64C23.6131 206.549 23.5343 206.468 23.4613 206.382L22.7201 206.349C21.3671 208.073 22.0148 218.379 21.9882 221.293C22.4713 219.673 22.5419 216.973 23.2866 215.626Z"/>
	<path d="M113.607 22.6391C120.017 21.7011 131.462 22.4006 138.438 22.4113L189.264 22.3855L379.989 22.4304C406.724 22.5065 433.002 25.0331 452.862 44.9755C462.97 55.1255 469.193 67.8888 472.227 81.8031C475.377 96.251 474.956 111.517 474.919 126.241L474.853 161.606L474.927 292.847C474.921 298.104 474.243 320.685 475.062 323.493C475.249 324.134 476.23 324.453 476.767 324.7C477.198 324.899 477.023 324.79 477.364 325.065C477.441 327.843 477.503 330.621 477.55 333.399L477.571 397.938C477.568 409.341 477.906 420.845 477.526 432.236C477.395 436.169 475.419 437.841 474.958 441.13C474.029 447.754 475.049 455.715 474.789 462.554C475.215 479.921 474.866 497.382 474.86 514.759L474.861 609.341L474.853 686.894C474.855 699.675 475.318 712.633 474.852 725.394C474.756 725.448 474.663 725.508 474.564 725.557C473.327 726.161 472.598 726.011 471.331 725.552L469.861 725.381C469.684 725.482 469.439 725.631 469.242 725.719C468.095 726.228 467.39 725.831 466.325 725.386C465.948 725.609 465.669 725.763 465.242 725.874C463.414 726.346 459.366 726.347 457.782 725.389C457.452 719.891 457.741 714.2 457.739 708.684L457.737 674.358L457.743 570.311L457.741 250.059L457.739 149.801L457.737 120.538C457.728 110.642 457.811 100.741 456.424 90.9162C454.657 78.4045 449.984 66.6406 441.083 57.4735C426.855 42.82 407.208 40.386 387.776 40.1018C365.716 39.7792 343.613 40.0733 321.548 40.075L194.374 40.0714L134.556 40.0577C120.432 40.054 105.623 39.2941 91.6458 41.558C79.7826 43.4795 68.5061 48.1201 59.8196 56.6021C50.0919 66.1008 45.1571 78.6884 43.4376 91.9961C42.0937 102.398 42.2764 112.964 42.2707 123.433L42.2742 159.767L42.2736 282.804L42.2722 575.08C42.2711 625.171 42.7451 675.306 42.2225 725.392C41.8434 725.611 41.5555 725.764 41.1296 725.875C39.4022 726.327 35.9001 726.308 34.3865 725.385C33.2254 725.868 33.1739 725.903 31.9728 725.551L30.8533 725.558L29.7329 725.498C28.7444 725.822 28.5764 725.691 27.6114 725.404C27.3526 725.554 27.2213 725.642 26.9249 725.755C25.9195 726.142 25.3771 725.762 24.4508 725.388L24.4512 522.75L24.3781 464.366C24.3849 456.596 25.309 445.161 24.2409 437.901C23.3147 437.682 22.7902 437.572 22.153 436.842C21.0592 429.671 20.407 371.391 21.8271 367.062L22.4544 366.472C22.3171 368.258 21.983 370.885 22.8341 372.509C23.1423 372.443 23.3528 372.441 23.5938 372.227L23.7282 371.531C24.0644 369.761 24.6612 368.199 23.5923 366.625L22.4544 366.472L23.9037 366.056C24.9755 363.3 24.8553 350.016 23.8587 347.27C23.2933 346.881 22.6532 346.475 22.237 345.919C21.2271 344.571 21.8001 342.173 21.9492 340.61C21.9827 338.943 21.8947 337.259 21.8548 335.591C21.2645 330.855 21.554 325.839 21.5617 321.072L21.5775 297.401C21.5779 294.11 21.6955 290.784 21.5394 287.498C21.355 283.618 20.8629 279.711 21.0362 275.828C21.9176 274.73 22.6502 275.824 23.8113 275.081C24.3034 273.859 24.3497 272.538 24.4043 271.237C24.5576 267.582 25.097 247.349 24.2776 245.143C23.989 244.366 22.8689 243.643 22.3243 242.993C21.2296 241.687 21.6305 239.031 21.8503 237.455L21.93 233.022C21.793 232.34 21.6958 231.651 21.6387 230.958C21.4415 228.597 20.8099 207.329 21.2808 206.478C21.4236 206.221 21.6675 206.033 21.8608 205.811C22.6446 205.773 23.246 205.778 23.9409 205.359C25.2728 196.42 24.4772 184.698 24.4793 175.519C24.4847 153.014 23.971 130.418 24.3802 107.928C24.8161 83.9725 29.8478 60.7865 47.7609 43.6775C65.4509 26.7815 89.8658 22.086 113.607 22.6391ZM23.2866 215.626C23.4753 213.767 24.7182 208.039 23.6803 206.64C23.6131 206.549 23.5343 206.468 23.4613 206.382L22.7201 206.349C21.3671 208.073 22.0148 218.379 21.9882 221.293C22.4713 219.673 22.5419 216.973 23.2866 215.626Z"/>
	<path fill="#353535" d="M21.93 233.022C21.793 232.34 21.6958 231.651 21.6387 230.958C21.4415 228.597 20.8099 207.329 21.2808 206.478C21.4236 206.221 21.6675 206.033 21.8608 205.811C22.6446 205.773 23.246 205.778 23.9409 205.359C25.2728 196.42 24.4772 184.698 24.4793 175.519C24.4847 153.014 23.971 130.418 24.3802 107.928C24.8161 83.9725 29.8478 60.7865 47.7609 43.6775C65.4509 26.7815 89.8658 22.086 113.607 22.6391C113.553 22.6845 113.502 22.7323 113.446 22.7753C112.143 23.7879 109.428 23.4607 107.82 23.4437C108.509 23.909 115.266 24.4836 116.758 24.8466C120.463 24.8942 124.4 24.6757 128.068 25.1145C124.132 25.6063 120.127 25.1947 116.172 25.391C109.438 25.7251 80.8831 28.1634 76.2165 31.4014L76.4135 31.7425C78.0542 31.7012 79.3896 30.6793 80.9479 30.2344C84.6848 29.1676 92.7828 27.5122 96.4692 28.3721C103.648 27.5302 111.579 27.5732 118.805 28.0016L118.335 28.0683C115.41 28.4671 111.768 27.7887 109.052 28.6803L108.883 29.0244C110.34 30.2864 112.239 29.92 114.024 29.7936C114.835 29.7438 115.644 29.6628 116.448 29.5508C116.352 29.5294 112.823 30.5359 111.882 30.5459C95.8243 30.7166 76.8181 32.301 62.9369 41.1999C59.2569 43.559 55.6463 46.6679 52.6529 49.8547C50.2136 52.4517 48.541 55.5653 46.4266 58.4025C44.9504 60.3833 43.2478 62.0884 41.9452 64.2176C40.7217 66.2177 38.796 69.7689 38.3669 72.0845C38.2938 72.4787 38.3297 72.9132 38.3785 73.3087C38.6366 72.9115 38.8852 72.5125 39.1665 72.1314C40.6435 70.1301 41.2133 67.2078 42.4975 64.9913C42.6635 65.7742 37.8246 78.0711 37.2359 80.7677C35.6094 88.2177 34.6845 102.228 34.6006 109.981C34.396 140.884 34.3921 171.788 34.5889 202.69L34.59 381.014L34.5876 475.25C34.5923 480.821 34.6665 486.409 34.4859 491.976C34.2595 498.954 33.6994 506.252 34.2884 513.199C34.7056 520.644 34.4721 528.223 34.469 535.684L34.4574 574.568L34.5628 693.253C34.5941 703.963 34.2527 714.674 34.3865 725.385C33.2254 725.868 33.1739 725.903 31.9728 725.551L30.8533 725.558L29.7329 725.498C28.7444 725.822 28.5764 725.691 27.6114 725.404C27.3526 725.554 27.2213 725.642 26.9249 725.755C25.9195 726.142 25.3771 725.762 24.4508 725.388L24.4512 522.75L24.3781 464.366C24.3849 456.596 25.309 445.161 24.2409 437.901C23.3147 437.682 22.7902 437.572 22.153 436.842C21.0592 429.671 20.407 371.391 21.8271 367.062L22.4544 366.472C22.3171 368.258 21.983 370.885 22.8341 372.509C23.1423 372.443 23.3528 372.441 23.5938 372.227L23.7282 371.531C24.0644 369.761 24.6612 368.199 23.5923 366.625L22.4544 366.472L23.9037 366.056C24.9755 363.3 24.8553 350.016 23.8587 347.27C23.2933 346.881 22.6532 346.475 22.237 345.919C21.2271 344.571 21.8001 342.173 21.9492 340.61C21.9827 338.943 21.8947 337.259 21.8548 335.591C21.2645 330.855 21.554 325.839 21.5617 321.072L21.5775 297.401C21.5779 294.11 21.6955 290.784 21.5394 287.498C21.355 283.618 20.8629 279.711 21.0362 275.828C21.9176 274.73 22.6502 275.824 23.8113 275.081C24.3034 273.859 24.3497 272.538 24.4043 271.237C24.5576 267.582 25.097 247.349 24.2776 245.143C23.989 244.366 22.8689 243.643 22.3243 242.993C21.2296 241.687 21.6305 239.031 21.8503 237.455L21.93 233.022ZM23.2866 215.626C23.4753 213.767 24.7182 208.039 23.6803 206.64C23.6131 206.549 23.5343 206.468 23.4613 206.382L22.7201 206.349C21.3671 208.073 22.0148 218.379 21.9882 221.293C22.4713 219.673 22.5419 216.973 23.2866 215.626Z"/>
	<path fill="#353535" d="M21.93 233.022C21.793 232.34 21.6958 231.651 21.6387 230.958C21.4415 228.597 20.8099 207.329 21.2808 206.478C21.4236 206.221 21.6675 206.033 21.8608 205.811C22.6446 205.773 23.246 205.778 23.9409 205.359C25.2728 196.42 24.4772 184.698 24.4793 175.519C24.4847 153.014 23.971 130.418 24.3802 107.928C24.8161 83.9725 29.8478 60.7865 47.7609 43.6775C65.4509 26.7815 89.8658 22.086 113.607 22.6391C113.553 22.6845 113.502 22.7323 113.446 22.7753C112.143 23.7879 109.428 23.4607 107.82 23.4437C108.509 23.909 115.266 24.4836 116.758 24.8466C104.249 25.3083 89.3424 24.7765 77.4622 28.7582C73.8621 29.9648 70.5142 31.7966 67.1527 33.5389C59.4843 37.5135 53.6797 41.8398 47.7742 48.1813C42.4678 53.8794 34.9918 64.1925 33.169 71.8917C30.7354 76.2254 29.9989 80.8509 29.1754 85.6956C29.067 86.3327 28.5961 91.1118 28.4454 91.2741C28.3563 91.3701 28.2051 91.3785 28.085 91.4307L27.4386 90.1833C27.4631 90.2786 27.4995 90.3716 27.5122 90.4691C27.5732 90.9408 27.494 91.081 27.3539 91.5018C26.2797 94.7284 26.3699 102.91 26.5983 106.492L26.7313 106.178C26.8959 108.457 27.3586 111.648 26.6116 113.799L26.3796 111.313C26.0473 114.822 25.5383 119.115 26.0437 122.571C26.4419 125.293 27.1542 127.732 27.2457 130.55C27.4054 135.467 26.5707 141.495 27.5811 146.241L27.4172 448.963L27.5418 540.402C27.5569 555.141 28.1701 570.113 27.5442 584.818L27.5706 682.495L27.5388 711.503C27.5314 716.004 27.1402 720.946 27.6114 725.404C27.3526 725.554 27.2213 725.642 26.9249 725.755C25.9195 726.142 25.3771 725.762 24.4508 725.388L24.4512 522.75L24.3781 464.366C24.3849 456.596 25.309 445.161 24.2409 437.901C23.3147 437.682 22.7902 437.572 22.153 436.842C21.0592 429.671 20.407 371.391 21.8271 367.062L22.4544 366.472C22.3171 368.258 21.983 370.885 22.8341 372.509C23.1423 372.443 23.3528 372.441 23.5938 372.227L23.7282 371.531C24.0644 369.761 24.6612 368.199 23.5923 366.625L22.4544 366.472L23.9037 366.056C24.9755 363.3 24.8553 350.016 23.8587 347.27C23.2933 346.881 22.6532 346.475 22.237 345.919C21.2271 344.571 21.8001 342.173 21.9492 340.61C21.9827 338.943 21.8947 337.259 21.8548 335.591C21.2645 330.855 21.554 325.839 21.5617 321.072L21.5775 297.401C21.5779 294.11 21.6955 290.784 21.5394 287.498C21.355 283.618 20.8629 279.711 21.0362 275.828C21.9176 274.73 22.6502 275.824 23.8113 275.081C24.3034 273.859 24.3497 272.538 24.4043 271.237C24.5576 267.582 25.097 247.349 24.2776 245.143C23.989 244.366 22.8689 243.643 22.3243 242.993C21.2296 241.687 21.6305 239.031 21.8503 237.455L21.93 233.022ZM23.2866 215.626C23.4753 213.767 24.7182 208.039 23.6803 206.64C23.6131 206.549 23.5343 206.468 23.4613 206.382L22.7201 206.349C21.3671 208.073 22.0148 218.379 21.9882 221.293C22.4713 219.673 22.5419 216.973 23.2866 215.626Z"/>
	<path fill="#ABA4A5" fill-opacity="0.96078432" d="M21.9882 221.293C22.0148 218.379 21.3671 208.073 22.7201 206.349L23.4613 206.382C23.5343 206.468 23.6131 206.549 23.6803 206.64C24.7182 208.039 23.4753 213.767 23.2866 215.626C22.5419 216.973 22.4713 219.673 21.9882 221.293Z"/>
	<path fill="#1B1B1B" d="M24.2409 437.901C24.9504 437.909 25.3386 437.761 25.8511 438.35C26.6778 439.299 26.79 441.201 26.8587 442.421C27.1073 446.836 26.8662 451.307 26.8576 455.728L26.78 483.526L27.1569 542.939C27.1597 556.269 26.5887 570.732 27.1985 583.906C27.2168 584.3 27.3095 584.506 27.5442 584.818L27.5706 682.495L27.5388 711.503C27.5314 716.004 27.1402 720.946 27.6114 725.404C27.3526 725.554 27.2213 725.642 26.9249 725.755C25.9195 726.142 25.3771 725.762 24.4508 725.388L24.4512 522.75L24.3781 464.366C24.3849 456.596 25.309 445.161 24.2409 437.901Z"/>
	<path fill="#ABA4A5" d="M22.4544 366.472C22.3171 368.258 21.983 370.885 22.8341 372.509C23.1423 372.443 23.3528 372.441 23.5938 372.227C23.1304 377.756 23.3303 383.418 23.3306 388.966L23.337 415.783C23.3336 420.869 23.88 426.878 22.82 431.821L22.4476 431.762C20.5708 427.871 22.9958 377.151 21.8677 367.378C21.8555 367.273 21.8406 367.167 21.8271 367.062L22.4544 366.472Z"/>
	<path fill="#ABA4A5" d="M21.9878 334.4C21.7323 322.57 21.9637 310.686 21.9653 298.851C21.9662 291.861 21.387 284.405 22.2199 277.491C22.3089 278.298 22.451 279.046 22.663 279.829C23.5239 279.194 24.0147 276.225 24.3195 275.114C24.0411 278.14 23.7027 281.161 23.3043 284.173C21.5856 293.477 24.8726 329.574 21.9878 334.4Z"/>
	<path fill="#9D9C9C" d="M21.9878 334.4C24.8726 329.574 21.5856 293.477 23.3043 284.173C23.4474 291.025 24.0433 338.185 22.9078 340.966L22.4458 341.111L21.9492 340.61C21.9827 338.943 21.8947 337.259 21.8548 335.591L21.9878 334.4Z"/>
	<path fill="#9D9C9C" d="M21.9882 221.293C22.4713 219.673 22.5419 216.973 23.2866 215.626C23.5772 221.873 24.1628 231.648 22.9811 237.629L22.5573 237.95L21.8503 237.455L21.93 233.022C21.8771 229.112 21.8965 225.202 21.9882 221.293Z"/>
	<path fill="#9D9C9C" d="M27.5811 146.241C27.6972 142.739 26.906 130.343 28.0436 128.202L28.7355 127.672C29.1263 127.947 29.2097 127.874 29.294 128.374C30.1185 133.263 29.4149 138.863 29.4134 143.845L29.481 177.458L29.5171 288.532C29.4587 297.839 29.4718 307.146 29.5565 316.452C29.5644 320.332 28.9807 325.14 29.7341 328.846L29.5947 614.913L29.6761 694.518L29.6244 715.174C29.6075 718.476 29.2249 722.265 29.7329 725.498C28.7444 725.822 28.5764 725.691 27.6114 725.404C27.1402 720.946 27.5314 716.004 27.5388 711.503L27.5706 682.495L27.5442 584.818C28.1701 570.113 27.5569 555.141 27.5418 540.402L27.4172 448.963L27.5811 146.241Z"/>
	<path fill="#1B1B1B" d="M33.169 71.8917C33.1579 71.9732 33.1479 72.0547 33.1359 72.136C32.4724 76.6592 30.6262 80.9776 29.7778 85.4655C28.8067 90.6025 26.3449 117.826 28.0766 121.213L28.7632 121.444C29.5624 120.704 29.5366 119.709 29.5722 118.652C29.6598 116.045 29.0394 108.978 29.7869 107.085L29.8786 105.841C30.149 104.273 30.2839 102.805 30.2921 101.214L30.5774 101.604L30.1283 101.285C31.124 102.543 30.8606 104.911 30.8617 106.518L30.8999 526.643L30.9281 643.332C31.1 663.92 31.1095 684.51 30.9567 705.098C30.8636 711.904 31.3052 718.766 30.8533 725.558L29.7329 725.498C29.2249 722.265 29.6075 718.476 29.6244 715.174L29.6761 694.518L29.5947 614.913L29.7341 328.846C28.9807 325.14 29.5644 320.332 29.5565 316.452C29.4718 307.146 29.4587 297.839 29.5171 288.532L29.481 177.458L29.4134 143.845C29.4149 138.863 30.1185 133.263 29.294 128.374C29.2097 127.874 29.1263 127.947 28.7355 127.672L28.0436 128.202C26.906 130.343 27.6972 142.739 27.5811 146.241C26.5707 141.495 27.4054 135.467 27.2457 130.55C27.1542 127.732 26.4419 125.293 26.0437 122.571C25.5383 119.115 26.0473 114.822 26.3796 111.313L26.6116 113.799C27.3586 111.648 26.8959 108.457 26.7313 106.178L26.5983 106.492C26.3699 102.91 26.2797 94.7284 27.3539 91.5018C27.494 91.081 27.5732 90.9408 27.5122 90.4691C27.4995 90.3716 27.4631 90.2786 27.4386 90.1833L28.085 91.4307C28.2051 91.3785 28.3563 91.3701 28.4454 91.2741C28.5961 91.1118 29.067 86.3327 29.1754 85.6956C29.9989 80.8509 30.7354 76.2254 33.169 71.8917Z"/>
	<path fill="#565656" d="M33.169 71.8917C33.1579 71.9732 33.1479 72.0547 33.1359 72.136C32.4724 76.6592 30.6262 80.9776 29.7778 85.4655C28.8067 90.6025 26.3449 117.826 28.0766 121.213L28.7632 121.444C29.5624 120.704 29.5366 119.709 29.5722 118.652C29.6598 116.045 29.0394 108.978 29.7869 107.085C30.3371 110.953 29.9605 115.305 29.9244 119.226L29.7783 141.001L29.8217 221.481L29.8134 296.522L29.8624 318.274C29.8705 321.641 30.2421 325.541 29.7341 328.846C28.9807 325.14 29.5644 320.332 29.5565 316.452C29.4718 307.146 29.4587 297.839 29.5171 288.532L29.481 177.458L29.4134 143.845C29.4149 138.863 30.1185 133.263 29.294 128.374C29.2097 127.874 29.1263 127.947 28.7355 127.672L28.0436 128.202C26.906 130.343 27.6972 142.739 27.5811 146.241C26.5707 141.495 27.4054 135.467 27.2457 130.55C27.1542 127.732 26.4419 125.293 26.0437 122.571C25.5383 119.115 26.0473 114.822 26.3796 111.313L26.6116 113.799C27.3586 111.648 26.8959 108.457 26.7313 106.178L26.5983 106.492C26.3699 102.91 26.2797 94.7284 27.3539 91.5018C27.494 91.081 27.5732 90.9408 27.5122 90.4691C27.4995 90.3716 27.4631 90.2786 27.4386 90.1833L28.085 91.4307C28.2051 91.3785 28.3563 91.3701 28.4454 91.2741C28.5961 91.1118 29.067 86.3327 29.1754 85.6956C29.9989 80.8509 30.7354 76.2254 33.169 71.8917Z"/>
	<path fill="#1B1B1B" d="M31.9728 725.551C32.9848 722.786 32.0824 712.858 32.0975 709.116L32.1054 641.836L32.7886 482.632C32.8786 473.867 32.4454 465.134 32.4433 456.383C32.4421 451.452 32.9837 446.589 33.1147 441.674C33.3087 434.39 33.063 427.103 33.3133 419.815C34.3746 422.251 34.0444 489.39 34.0328 497.033C34.0284 499.902 33.4867 510.79 34.1638 512.85C34.2024 512.967 34.2469 513.083 34.2884 513.199C34.7056 520.644 34.4721 528.223 34.469 535.684L34.4574 574.568L34.5628 693.253C34.5941 703.963 34.2527 714.674 34.3865 725.385C33.2254 725.868 33.1739 725.903 31.9728 725.551Z"/>
	<defs>
		<linearGradient id="gradient_0" gradientUnits="userSpaceOnUse" x1="35.847813" y1="62.780731" x2="59.950359" y2="82.62529">
			<stop offset="0" stop-color="#686768"/>
			<stop offset="1" stop-color="#99989A"/>
		</linearGradient>
	</defs>
	<path fill="url(#gradient_0)" d="M116.758 24.8466C120.463 24.8942 124.4 24.6757 128.068 25.1145C124.132 25.6063 120.127 25.1947 116.172 25.391C109.438 25.7251 80.8831 28.1634 76.2165 31.4014L76.4135 31.7425C78.0542 31.7012 79.3896 30.6793 80.9479 30.2344C84.6848 29.1676 92.7828 27.5122 96.4692 28.3721C90.714 29.1717 84.9628 29.9124 79.3454 31.4463C65.1602 35.3573 52.6752 43.8654 43.8493 55.6355C35.0144 67.3657 31.3767 81.6183 30.2557 96.0361C30.0091 99.2079 29.6031 102.669 29.8786 105.841L29.7869 107.085C29.0394 108.978 29.6598 116.045 29.5722 118.652C29.5366 119.709 29.5624 120.704 28.7632 121.444L28.0766 121.213C26.3449 117.826 28.8067 90.6025 29.7778 85.4655C30.6262 80.9776 32.4724 76.6592 33.1359 72.136C33.1479 72.0547 33.1579 71.9732 33.169 71.8917C34.9918 64.1925 42.4678 53.8794 47.7742 48.1813C53.6797 41.8398 59.4843 37.5135 67.1527 33.5389C70.5142 31.7966 73.8621 29.9648 77.4622 28.7582C89.3424 24.7765 104.249 25.3083 116.758 24.8466Z"/>
	<path fill="#1B1B1B" d="M33.5142 111.133C34.2535 112.223 34.0723 113.468 34.0882 114.765C34.2243 125.855 33.6942 136.966 33.6835 148.058L33.6879 245.709L33.5296 246.268C31.9711 243.824 32.8291 189.462 32.7954 182.849C32.7613 176.176 32.3648 169.486 32.2666 162.808C32.172 156.375 32.3835 149.865 32.4669 143.425C32.6066 132.634 33.5313 121.945 33.5142 111.133Z"/>
	<path fill="#1B1B1B" d="M33.8688 369.913C35.3743 371.617 33.8264 396.966 33.6758 401.482C31.8922 398.706 33.9499 374.615 33.8688 369.913Z"/>
	<path fill="#1B1B1B" d="M35.9322 78.2299C36.0133 78.4507 36.0947 78.6717 36.1629 78.8968C36.9982 81.6552 36.1237 85.7268 34.7831 88.2352L34.4585 88.0534C33.4363 85.7675 35.2297 80.5581 35.9322 78.2299Z"/>
	<path fill="#353535" d="M379.989 22.4304C406.724 22.5065 433.002 25.0331 452.862 44.9755C462.97 55.1255 469.193 67.8888 472.227 81.8031C475.377 96.251 474.956 111.517 474.919 126.241L474.853 161.606L474.927 292.847C474.921 298.104 474.243 320.685 475.062 323.493C475.249 324.134 476.23 324.453 476.767 324.7C477.198 324.899 477.023 324.79 477.364 325.065C477.441 327.843 477.503 330.621 477.55 333.399L477.571 397.938C477.568 409.341 477.906 420.845 477.526 432.236C477.395 436.169 475.419 437.841 474.958 441.13C474.029 447.754 475.049 455.715 474.789 462.554C475.215 479.921 474.866 497.382 474.86 514.759L474.861 609.341L474.853 686.894C474.855 699.675 475.318 712.633 474.852 725.394C474.756 725.448 474.663 725.508 474.564 725.557C473.327 726.161 472.598 726.011 471.331 725.552L469.861 725.381C469.684 725.482 469.439 725.631 469.242 725.719C468.095 726.228 467.39 725.831 466.325 725.386C465.71 704.723 466.33 683.918 466.268 663.241L466.309 519.563C465.444 516.877 466.041 503.923 466.039 500.32L466.003 453.325L465.849 199.558L465.999 142.401C466.022 133.787 466.378 124.986 465.992 116.387C465.855 113.328 465.256 110.292 465.012 107.238C464.739 103.823 464.685 100.396 464.172 97.0039C464.003 94.3031 464.14 91.5803 463.998 88.8718C463.825 85.5593 463.077 82.1799 463.47 78.8835C462.837 75.7094 461.545 72.2589 460.213 69.3286C455.687 59.3728 446.33 45.0209 435.692 40.9998C418.89 32.0801 401.982 31.1322 383.337 30.7079C378.645 30.6012 372.704 31.1896 368.172 30.0919C372.068 29.4895 377.647 31.488 380.847 28.7735L380.772 28.4994C356.575 27.61 332.349 28.6895 308.164 28.0065L308.239 27.6607C306.105 27.4489 303.944 27.5131 301.795 27.29C308.069 26.8972 316.037 28.7162 321.802 26.0568C319.314 26.0549 309.675 26.2515 307.907 25.1739L305.387 24.8817C309.464 23.9083 324.316 24.9293 329.704 24.9802C341.592 24.9863 353.48 24.9113 365.367 24.7553C368.026 24.7178 376.267 24.9128 378.324 24.1897C379.268 23.8577 379.29 23.1413 380.492 23.1161C382.384 23.0763 384.302 23.6989 386.203 23.7297C387.072 23.7438 387.555 23.7765 388.162 23.1683C385.416 22.388 378.834 22.9836 375.636 23.1039C376.919 22.6153 378.599 22.6608 379.989 22.4304Z"/>
	<path fill="#353535" d="M379.989 22.4304C406.724 22.5065 433.002 25.0331 452.862 44.9755C462.97 55.1255 469.193 67.8888 472.227 81.8031C475.377 96.251 474.956 111.517 474.919 126.241L474.853 161.606L474.927 292.847C474.921 298.104 474.243 320.685 475.062 323.493C475.249 324.134 476.23 324.453 476.767 324.7C477.198 324.899 477.023 324.79 477.364 325.065C477.441 327.843 477.503 330.621 477.55 333.399L477.571 397.938C477.568 409.341 477.906 420.845 477.526 432.236C477.395 436.169 475.419 437.841 474.958 441.13C474.029 447.754 475.049 455.715 474.789 462.554C474.493 463.11 474.354 463.46 474.314 464.099C473.75 473.125 474.271 482.477 474.287 491.531C474.307 502.624 473.928 513.738 474.035 524.823C474.105 532.021 474.34 539.196 474.308 546.4C474.293 549.708 474.512 553.356 473.813 556.596L473.636 555.889L473.694 556.056L473.585 554.6L473.277 554.557L473.235 554.926C473.135 555.771 473.082 556.459 472.615 557.194C472.231 555.847 472.246 554.324 472.142 552.929C472.038 556.892 472.757 567.17 471.913 570.314C471.457 567.676 471.703 564.69 471.681 561.993L471.612 544.922L471.666 486.036L471.61 229.607L471.633 159.054L471.64 139.971C471.643 135.234 471.946 130.328 471.128 125.649C470.687 125.858 470.296 126.052 469.887 126.322C469.75 105.06 470.433 82.8519 460.264 63.4961C451.991 47.7486 438.062 37.1905 421.216 31.9508C418.561 31.0242 415.648 30.4577 412.912 29.7975C401.606 27.982 390.504 27.7025 379.092 27.7997L379.299 25.5204C377.376 25.9725 375.062 25.8392 373.104 25.5927C369.751 24.9045 365.873 25.2026 362.453 25.2024L346.288 25.2127C333.526 25.2225 320.65 24.7234 307.907 25.1739L305.387 24.8817C309.464 23.9083 324.316 24.9293 329.704 24.9802C341.592 24.9863 353.48 24.9113 365.367 24.7553C368.026 24.7178 376.267 24.9128 378.324 24.1897C379.268 23.8577 379.29 23.1413 380.492 23.1161C382.384 23.0763 384.302 23.6989 386.203 23.7297C387.072 23.7438 387.555 23.7765 388.162 23.1683C385.416 22.388 378.834 22.9836 375.636 23.1039C376.919 22.6153 378.599 22.6608 379.989 22.4304Z"/>
	<defs>
		<linearGradient id="gradient_1" gradientUnits="userSpaceOnUse" x1="437.89517" y1="85.944061" x2="464.36722" y2="64.325157">
			<stop offset="0" stop-color="#9F9C9A"/>
			<stop offset="1" stop-color="#686869"/>
		</linearGradient>
	</defs>
	<path fill="url(#gradient_1)" d="M421.216 31.9508C430 30.6017 431.547 35.2216 438.521 37.3797C455.641 48.6641 465.329 64.3969 469.399 84.3824C471.397 94.1955 471.852 104.731 471.635 114.741C471.557 118.378 471.071 122.015 471.128 125.649C470.687 125.858 470.296 126.052 469.887 126.322C469.75 105.06 470.433 82.8519 460.264 63.4961C451.991 47.7486 438.062 37.1905 421.216 31.9508Z"/>
	<path fill="#9D9C9C" d="M477.55 333.399C477.066 342.029 477.382 350.8 477.382 359.446L477.381 405.87C477.379 412.7 478.068 425.374 477.005 431.461L476.631 431.688C474.988 429.114 476.068 348.559 475.897 337.357C475.839 333.57 475.497 329.786 475.207 326.011C475.885 325.233 476.375 325.285 477.364 325.065C477.441 327.843 477.503 330.621 477.55 333.399Z"/>
	<path fill="#9D9C9C" d="M379.299 25.5204C383.501 24.0977 402.556 25.5867 408.049 26.0893C410.182 28.3086 413.322 27.987 415.798 29.517C414.907 30.0558 413.925 29.9105 412.912 29.7975C401.606 27.982 390.504 27.7025 379.092 27.7997L379.299 25.5204Z"/>
	<path fill="#868683" d="M408.049 26.0893C415.156 26.1809 433.55 32.397 438.521 37.3797C431.547 35.2216 430 30.6017 421.216 31.9508C418.561 31.0242 415.648 30.4577 412.912 29.7975C413.925 29.9105 414.907 30.0558 415.798 29.517C413.322 27.987 410.182 28.3086 408.049 26.0893Z"/>
	<path fill="#9D9C9C" d="M469.887 126.322C470.296 126.052 470.687 125.858 471.128 125.649C471.946 130.328 471.643 135.234 471.64 139.971L471.633 159.054L471.61 229.607L471.666 486.036L471.612 544.922L471.681 561.993C471.703 564.69 471.457 567.676 471.913 570.314C472.757 567.17 472.038 556.892 472.142 552.929C472.246 554.324 472.231 555.847 472.615 557.194C473.082 556.459 473.135 555.771 473.235 554.926L473.277 554.557L473.585 554.6L473.694 556.056L473.636 555.889L473.813 556.596C474.512 553.356 474.293 549.708 474.308 546.4C474.34 539.196 474.105 532.021 474.035 524.823C473.928 513.738 474.307 502.624 474.287 491.531C474.271 482.477 473.75 473.125 474.314 464.099C474.354 463.46 474.493 463.11 474.789 462.554C475.215 479.921 474.866 497.382 474.86 514.759L474.861 609.341L474.853 686.894C474.855 699.675 475.318 712.633 474.852 725.394C474.756 725.448 474.663 725.508 474.564 725.557C473.327 726.161 472.598 726.011 471.331 725.552L469.861 725.381L469.839 339.189L469.783 201.252C469.781 176.28 469.601 151.292 469.887 126.322Z"/>
	<path fill="#1B1B1B" d="M471.913 570.314C472.757 567.17 472.038 556.892 472.142 552.929C472.246 554.324 472.231 555.847 472.615 557.194C473.082 556.459 473.135 555.771 473.235 554.926L473.277 554.557L473.585 554.6L473.694 556.056L473.636 555.889L473.813 556.596C474.512 553.356 474.293 549.708 474.308 546.4C474.34 539.196 474.105 532.021 474.035 524.823C473.928 513.738 474.307 502.624 474.287 491.531C474.271 482.477 473.75 473.125 474.314 464.099C474.354 463.46 474.493 463.11 474.789 462.554C475.215 479.921 474.866 497.382 474.86 514.759L474.861 609.341L474.853 686.894C474.855 699.675 475.318 712.633 474.852 725.394C474.756 725.448 474.663 725.508 474.564 725.557C473.327 726.161 472.598 726.011 471.331 725.552C472.2 722.326 471.478 700.13 471.506 694.998C471.343 653.436 471.478 611.873 471.913 570.314Z"/>
	<path fill="#1B1B1B" d="M463.47 78.8835C464.648 85.9334 465.963 92.7239 466.427 99.8962C466.8 105.68 466.428 111.494 466.378 117.285L466.323 145.599C466.546 169.231 466.556 192.864 466.355 216.496L466.365 411.983C466.337 421.285 466.894 518.371 466.309 519.563C465.444 516.877 466.041 503.923 466.039 500.32L466.003 453.325L465.849 199.558L465.999 142.401C466.022 133.787 466.378 124.986 465.992 116.387C465.855 113.328 465.256 110.292 465.012 107.238C464.739 103.823 464.685 100.396 464.172 97.0039C464.003 94.3031 464.14 91.5803 463.998 88.8718C463.825 85.5593 463.077 82.1799 463.47 78.8835Z"/>
	<path fill="#C7C6C5" d="M307.907 25.1739C320.65 24.7234 333.526 25.2225 346.288 25.2127L362.453 25.2024C365.873 25.2026 369.751 24.9045 373.104 25.5927C373.018 26.0339 373.006 26.807 372.637 27.0861C372.061 27.523 371.137 27.5692 370.437 27.6743L308.239 27.6607C306.105 27.4489 303.944 27.5131 301.795 27.29C308.069 26.8972 316.037 28.7162 321.802 26.0568C319.314 26.0549 309.675 26.2515 307.907 25.1739Z"/>
	<path fill="#868683" d="M373.104 25.5927C375.062 25.8392 377.376 25.9725 379.299 25.5204L379.092 27.7997C376.248 28.009 373.289 27.7601 370.437 27.6743C371.137 27.5692 372.061 27.523 372.637 27.0861C373.006 26.807 373.018 26.0339 373.104 25.5927Z"/>
	<path fill="#1B1B1B" d="M113.607 22.6391C120.017 21.7011 131.462 22.4006 138.438 22.4113L189.264 22.3855L379.989 22.4304C378.599 22.6608 376.919 22.6153 375.636 23.1039C378.834 22.9836 385.416 22.388 388.162 23.1683C387.555 23.7765 387.072 23.7438 386.203 23.7297C384.302 23.6989 382.384 23.0763 380.492 23.1161C379.29 23.1413 379.268 23.8577 378.324 24.1897C376.267 24.9128 368.026 24.7178 365.367 24.7553C353.48 24.9113 341.592 24.9863 329.704 24.9802C324.316 24.9293 309.464 23.9083 305.387 24.8817L174.248 25.1404L141.572 25.0297C137.297 25.0259 132.229 24.5063 128.068 25.1145C124.4 24.6757 120.463 24.8942 116.758 24.8466C115.266 24.4836 108.509 23.909 107.82 23.4437C109.428 23.4607 112.143 23.7879 113.446 22.7753C113.502 22.7323 113.553 22.6845 113.607 22.6391Z"/>
	<defs>
		<linearGradient id="gradient_2" gradientUnits="userSpaceOnUse" x1="198.52339" y1="24.340303" x2="198.59984" y2="29.854698">
			<stop offset="0" stop-color="#B6B4B4"/>
			<stop offset="1" stop-color="#918F8F"/>
		</linearGradient>
	</defs>
	<path fill="url(#gradient_2)" d="M128.068 25.1145C132.229 24.5063 137.297 25.0259 141.572 25.0297L174.248 25.1404L305.387 24.8817L307.907 25.1739C309.675 26.2515 319.314 26.0549 321.802 26.0568C316.037 28.7162 308.069 26.8972 301.795 27.29C303.944 27.5131 306.105 27.4489 308.239 27.6607L308.164 28.0065C284.189 27.6203 260.226 27.9198 236.252 27.892L118.805 28.0016C111.579 27.5732 103.648 27.5302 96.4692 28.3721C92.7828 27.5122 84.6848 29.1676 80.9479 30.2344C79.3896 30.6793 78.0542 31.7012 76.4135 31.7425L76.2165 31.4014C80.8831 28.1634 109.438 25.7251 116.172 25.391C120.127 25.1947 124.132 25.6063 128.068 25.1145Z"/>
	<path fill="#C7C6C5" d="M166.583 27.1098C167.591 26.6215 168.855 26.6734 169.955 26.6784C172.421 26.6894 174.869 27.2563 177.35 27.3113C182.047 27.4155 187.484 26.5388 192.048 27.358C188.461 28.049 183.79 27.5375 180.093 27.546L151.827 27.5513C143.36 27.528 134.625 28.0018 126.201 27.3259C132.656 26.9076 139.2 27.1146 145.671 27.1381L166.583 27.1098Z"/>
	<path d="M201.619 52.2198C207.87 51.7274 214.355 52.0494 220.625 52.0542L255.277 52.0767L282.584 52.0739C287.907 52.0566 293.478 51.6882 298.77 52.2754C302.156 52.6228 305.393 53.8475 308.161 55.8286C312.245 58.785 314.977 63.2518 315.748 68.2337C316.603 73.4648 315.29 78.8186 312.111 83.0605C308.676 87.611 304.171 89.8025 298.634 90.6278C292.394 91.0702 285.976 90.7741 279.712 90.7766L245.046 90.7811L217.661 90.7784C212.397 90.7815 206.899 91.1046 201.665 90.5512C197.99 90.1626 195.136 89.3785 192.107 87.1941C187.794 84.0815 184.922 79.3571 184.147 74.0955C183.439 68.9892 184.804 63.8117 187.938 59.7179C191.387 55.1245 196.048 53.0007 201.619 52.2198Z"/>
	<path d="M291.225 73.5633C290.376 71.5691 290.836 69.7084 291.705 67.7792C292.162 66.7624 292.925 65.9904 294.001 65.6485C295.493 65.1747 297.229 65.6699 298.546 66.4101C300.18 67.3286 301.585 68.945 302.05 70.7734C302.342 71.9186 302.138 73.0646 301.461 74.0334C300.333 75.6493 299.157 75.997 297.345 76.4127C296.454 76.6548 295.23 76.8165 294.33 76.5794C292.771 76.1688 292.012 74.8357 291.225 73.5633Z"/>
	<path fill="#161527" d="M291.225 73.5633C290.376 71.5691 290.836 69.7084 291.705 67.7792C292.162 66.7624 292.925 65.9904 294.001 65.6485C295.493 65.1747 297.229 65.6699 298.546 66.4101C300.18 67.3286 301.585 68.945 302.05 70.7734C302.342 71.9186 302.138 73.0646 301.461 74.0334C300.333 75.6493 299.157 75.997 297.345 76.4127L298.943 75.0228C299.348 75.0033 299.492 74.9112 299.843 74.7251C300.474 73.2567 300.309 71.1556 299.725 69.6859C298.382 68.9832 296.799 70.6618 295.005 70.2348C294.784 69.8133 294.59 69.4043 294.431 68.9558L294.282 68.5257L293.475 68.4371C293.23 68.6458 293.032 68.7968 292.883 69.0914C292.163 70.5197 291.889 71.7532 292.29 73.2533L291.225 73.5633Z"/>
	<path fill="#1B1B1B" d="M292.29 73.2533L292.539 73.5171C293.265 74.2981 293.452 75.0087 294.533 75.2624L294.988 74.6192C296.003 75.1121 296.644 75.4296 297.785 75.3437L298.608 74.6259L298.943 75.0228L297.345 76.4127C296.454 76.6548 295.23 76.8165 294.33 76.5794C292.771 76.1688 292.012 74.8357 291.225 73.5633L292.29 73.2533Z"/>
	<path fill="#161527" d="M294.988 74.6192C295.606 73.618 295.706 73.2309 296.796 72.7242C297.766 73.1327 298.196 73.638 298.608 74.6259L297.785 75.3437C296.644 75.4296 296.003 75.1121 294.988 74.6192Z"/>
	<path fill="#C7C6C5" d="M404.703 65.2465C407.323 65.1732 409.908 65.1835 412.527 65.2922C414.516 65.228 416.768 65.2642 418.278 66.7671C420.317 68.7972 419.929 72.4003 419.879 75.0502C419.567 75.6723 419.256 76.3337 418.867 76.9113C418.139 77.9919 417.362 78.6489 416.076 78.9196C413.151 79.5357 396.859 79.676 394.803 77.9892C393.63 77.0273 393.267 75.0286 393.18 73.5853C393.05 71.4355 393.006 68.4802 394.603 66.8317C396.822 64.5406 401.777 65.2196 404.703 65.2465Z"/>
	<path fill="#1B1B1B" d="M398.208 77.1289C397.624 76.9727 396.974 76.7798 396.447 76.481C395.887 76.163 395.553 75.3916 395.44 74.7859C395.172 73.3499 394.947 70.2384 395.927 69.0669C398.37 66.1462 411.31 68.138 415.36 67.5397C415.449 67.5266 415.537 67.5105 415.625 67.496C416.926 68.561 417.321 69.0866 417.48 70.7617C417.637 72.4081 417.924 74.3841 416.694 75.7131C415.264 77.2587 412.585 77.1377 410.654 77.1041C406.605 77.0335 402.219 76.565 398.208 77.1289Z"/>
	<defs>
		<linearGradient id="gradient_3" gradientUnits="userSpaceOnUse" x1="406.30807" y1="62.961388" x2="400.89282" y2="79.228477">
			<stop offset="0" stop-color="#CBCBCB"/>
			<stop offset="1" stop-color="#F9F9F9"/>
		</linearGradient>
	</defs>
	<path fill="url(#gradient_3)" d="M404.703 65.2465C407.323 65.1732 409.908 65.1835 412.527 65.2922L412.877 65.7875C413.673 65.7667 414.458 65.7674 415.253 65.7964L415.867 66.4451C415.806 66.7491 415.861 66.5315 415.721 66.9097C415.585 67.2799 415.615 67.1175 415.625 67.496C415.537 67.5105 415.449 67.5266 415.36 67.5397C411.31 68.138 398.37 66.1462 395.927 69.0669C394.947 70.2384 395.172 73.3499 395.44 74.7859C395.553 75.3916 395.887 76.163 396.447 76.481C396.974 76.7798 397.624 76.9727 398.208 77.1289L400.424 77.3259L400.379 77.289L400.856 78.0182C399.227 78.2363 397.464 78.1274 395.97 77.3757C395.19 76.9833 394.369 76.2891 394.153 75.4035C393.676 73.4534 393.751 69.8363 394.905 68.1079C396.588 65.5864 401.937 65.7134 404.703 65.2465Z"/>
	<path d="M99.7035 65.5598C101.448 65.4872 102.975 65.5912 104.342 66.8022C105.714 68.0174 106.297 69.8321 106.334 71.623C106.378 73.7596 105.679 76.161 104.09 77.6543C103.224 78.4682 102.123 78.953 100.922 78.8384C99.8627 78.7373 98.1526 77.9913 97.531 77.0795C97.0041 76.3065 97.1716 75.8518 97.3846 75.0423C98.9724 75.5701 99.5794 76.7943 101.323 76.9366C102.165 76.6124 102.824 76.2584 103.429 75.5681C104.131 74.7665 104.314 74.1122 104.243 73.09L103.823 72.7667C102.738 73.588 101.549 74.3859 100.12 74.2032C99.0242 74.063 98.1051 73.3877 97.4923 72.4883C96.7859 71.4516 96.5483 69.9998 96.8478 68.7864C97.2522 67.1481 98.3835 66.4178 99.7035 65.5598Z"/>
	<path fill="#FEFEF8" d="M100.159 67.5527C101.425 66.966 102.929 67.4871 103.56 68.7315C104.192 69.9759 103.724 71.4968 102.503 72.172C101.673 72.6305 100.659 72.5997 99.8587 72.0916C99.0583 71.5834 98.5993 70.679 98.6618 69.7332C98.7243 68.7875 99.2983 67.9513 100.159 67.5527Z"/>
	<path d="M119.377 65.9187C120.236 65.8315 120.922 65.8023 121.772 65.9687C123.596 68.1096 121.994 71.3233 122.586 73.9202C123.339 74.1847 123.942 74.3325 124.444 74.9996L124.243 75.6397L122.852 76.134C122.531 76.7488 122.426 77.2206 122.34 77.9096L122.312 78.1501L121.43 78.5394C120.545 78.0605 120.509 77.7306 120.072 76.8488L120.154 76.1948C118.707 75.4109 116.88 76.6442 115.392 75.8539C114.677 75.4742 114.726 75.1396 114.538 74.4318C115.114 71.4788 117.727 68.41 119.377 65.9187Z"/>
	<path fill="#FEFEF8" d="M120.031 67.933L120.431 68.3623C120.704 70.3828 121.113 71.8968 120.076 73.773C118.926 74.5376 118.152 74.316 116.792 74.2959L116.518 73.9512C117.238 71.8538 118.84 69.8102 120.031 67.933Z"/>
	<path d="M374.293 66.3838C375.523 66.2964 376.801 66.2078 378.029 66.358C380.138 66.6159 384.054 67.5498 385.387 69.2307C385.376 70.2337 385.155 70.283 384.509 71.009C383.126 71.3903 380.906 69.5818 379.42 69.0049L379.031 68.8557C372.359 68.2896 372.753 70.9545 368.49 71.0888L367.745 70.1677C367.793 70.0715 367.838 69.9736 367.89 69.879C369.096 67.652 372.076 66.9876 374.293 66.3838Z"/>
	<path d="M356.431 66.1466C357.415 66.1774 358.611 66.0369 359.401 66.6977C359.939 70.5742 359.568 74.8414 359.533 78.7651C358.623 78.7905 357.796 78.747 356.898 78.6005C355.431 76.7637 356.333 68.7768 356.431 66.1466Z"/>
	<path d="M130.809 65.5103C131.107 65.7167 130.962 65.5883 131.259 65.9864C132.105 67.1234 131.745 76.3336 131.481 78.1187C130.821 78.4313 130.677 78.4159 129.941 78.3547C129.277 77.3235 129.506 76.4304 129.528 75.2292L129.47 67.795C128.638 68.4852 127.616 69.5108 126.499 69.4499L126.444 68.8796C127.624 66.9513 128.812 66.3688 130.809 65.5103Z"/>
	<path d="M350.761 68.5564C351.707 68.5422 352.391 68.516 353.253 68.9348C354.902 71.1684 353.954 76.1706 353.826 78.8785C352.892 78.8914 352.212 78.9092 351.354 78.5143C349.653 76.328 350.623 71.2431 350.761 68.5564Z"/>
	<path d="M374.479 70.6299C374.898 70.5853 375.305 70.5502 375.725 70.5331C377.537 70.4594 379.621 70.5629 380.969 71.9466C381.629 72.623 381.759 72.8925 381.753 73.8167L381.123 74.3666C380.034 74.3939 379.807 74.1068 378.912 73.5269C378.823 73.5089 378.734 73.4889 378.644 73.473C378.494 73.4467 378.344 73.4256 378.194 73.4004C375.916 73.0183 374.033 74.3261 371.874 73.9938C371.266 73.9002 371.28 73.7871 370.911 73.2971L371.116 72.6622C372.062 71.6532 373.244 71.1969 374.479 70.6299Z"/>
	<path d="M345.056 71.4665C346.256 71.525 346.966 71.3837 347.957 72.1503C348.857 74.0712 348.321 76.751 348.198 78.8489C347.057 78.8195 346.441 78.9378 345.448 78.2762C344.425 76.3487 344.939 73.6084 345.056 71.4665Z"/>
	<path d="M339.553 73.9271C340.87 73.9868 341.508 73.9752 342.496 74.8312C342.978 76.1752 342.568 77.6406 342.356 79.0193C341.244 78.9323 340.529 78.9318 339.66 78.1892C339.023 76.935 339.42 75.2902 339.553 73.9271Z"/>
	<path d="M375.782 74.7455C376.454 74.7972 377.167 74.8187 377.799 75.0689C378.553 75.3676 378.587 75.4487 378.911 76.1887C378.618 77.3766 377.683 78.1039 376.839 78.9369C376.792 78.9363 376.745 78.9443 376.699 78.9351C376.006 78.7949 375.143 77.9859 374.769 77.4051C374.308 76.6914 374.385 76.1752 374.59 75.4139L375.782 74.7455Z"/>
	<path fill="#C7C6C5" fill-opacity="0.98431373" d="M22.4544 366.472L23.5923 366.625C24.6612 368.199 24.0644 369.761 23.7282 371.531L23.5938 372.227C23.3528 372.441 23.1423 372.443 22.8341 372.509C21.983 370.885 22.3171 368.258 22.4544 366.472Z"/>
</svg>
