<?xml version="1.0" encoding="utf-8" ?>
<svg xmlns="http://www.w3.org/2000/svg" xmlns:xlink="http://www.w3.org/1999/xlink" width="4096" height="1032">
	<path transform="scale(1 1)" d="M1592.24 587.985C1594.15 592.501 1592.48 601.077 1591.95 605.979C1589.87 625.125 1585.12 644.045 1579.58 662.437C1575.47 676.068 1571.35 689.721 1565.71 702.816C1544.59 751.865 1508.89 797.482 1467.41 830.848C1387.22 895.346 1286.07 914.381 1185.44 903.454C1093.69 893.492 1012.01 851.124 954.013 778.845C890.424 699.599 869.718 591.703 880.934 492.326C891.741 396.574 932.884 312.468 1008.92 251.975C1087.73 189.269 1192.03 171.118 1290.26 182.492C1383.05 193.236 1463.92 235.804 1522.28 309.538C1556.84 353.198 1577.22 402.673 1588.26 456.966C1590.47 467.851 1594.05 481.515 1592.6 492.539C1592.57 492.744 1592.53 492.948 1592.5 493.152C1596.68 506.296 1598.24 576.783 1592.55 587.441C1592.45 587.625 1592.34 587.804 1592.24 587.985ZM1510.37 630.197C1511.11 629.202 1511.74 628.178 1512.13 626.996C1515.28 617.394 1521.55 568.438 1517.39 560.799C1517.48 560.642 1517.56 560.483 1517.65 560.328C1519.17 557.664 1519.25 555.28 1519.36 552.302C1522.87 459.983 1497.54 358.689 1433.2 289.863C1384.92 238.218 1317.01 211.364 1247.02 209.074C1174.42 206.698 1105.67 228.597 1052.3 278.816C1013.57 315.255 985.741 364.982 970.662 415.715C967.351 426.853 963.571 439.371 963.225 451.067C951.921 481.509 953.964 553.297 956.483 586.477C957.438 599.066 959.685 611.666 960.315 624.252C976.377 706.921 1013.67 785.374 1085.52 833.853C1145.3 874.188 1224.99 885.116 1295.01 871.439C1363.71 858.019 1421.71 818.648 1460.65 760.674C1483.16 727.128 1499.35 689.756 1508.44 650.395C1509.45 645.899 1512.07 637.733 1511.29 633.28C1511.16 632.528 1510.95 631.851 1510.7 631.136L1510.37 630.197Z"/>
	<path fill="#FFFEFF" fill-opacity="0.011764706" transform="scale(1 1)" d="M963.225 451.067C965.069 455.194 960.661 518.839 960.549 529.667C960.38 546.094 965.356 610.197 961.927 619.965C961.686 620.653 961.338 621.261 961.066 621.928C960.764 622.666 960.553 623.494 960.315 624.252C959.685 611.666 957.438 599.066 956.483 586.477C953.964 553.297 951.921 481.509 963.225 451.067Z"/>
	<path fill="#FFFEFF" fill-opacity="0.0078431377" transform="scale(1 1)" d="M1510.37 630.197C1511.33 615.424 1508.83 599.745 1510.96 585.117C1511.86 578.98 1518.02 564.999 1517.39 560.799C1521.55 568.438 1515.28 617.394 1512.13 626.996C1511.74 628.178 1511.11 629.202 1510.37 630.197Z"/>
	<path transform="scale(1 1)" d="M1742.77 178.499C1745.47 178.291 1747.36 178.454 1750 179.081C1766.92 192.262 1783.53 213.404 1798.41 229.302C1829.98 262.486 1861.28 295.935 1892.28 329.646L2169.94 626.515C2182.99 640.316 2292.69 756.311 2293.86 759.405C2294.34 758.496 2294.8 757.586 2295.2 756.637C2297.19 751.942 2294.96 398.068 2294.94 367.423C2294.92 333.537 2296.76 299.435 2295.56 265.586C2295.25 256.706 2293.85 248.349 2290.33 240.141C2280.78 217.832 2259.16 204.137 2235.33 202.658C2230.08 202.332 2221.39 203.814 2216.72 201.673C2214.77 200.782 2214.82 200.004 2214.2 198.105C2214.62 196.722 2214.76 194.889 2216.02 194.108C2217.93 192.922 2408.96 191.785 2419.69 194.286C2420.96 196.363 2420.64 196.903 2420.41 199.261C2418.83 201.245 2418.12 201.545 2415.63 202.09C2397.82 205.981 2387.93 200.842 2369.31 212.067C2354.81 220.807 2345.78 233.986 2342.47 250.56C2338.56 270.152 2340.54 306.87 2340.58 328.419L2340.31 441.542L2340.3 658.068C2340.05 708.839 2338.7 759.821 2340.02 810.573C2340.23 818.646 2340.38 826.706 2341.05 834.759C2341.86 844.42 2348.41 900.698 2347.43 904.501C2347.22 905.297 2346.65 905.795 2346.13 906.42C2341.55 906.838 2339.9 905.349 2336.65 902.268C2329.94 895.895 2324.49 888.342 2318.03 881.722C2283.69 846.573 2250.79 810.007 2216.98 774.338L1899.35 435.995C1884.18 419.856 1806.5 332.602 1793.58 326.447C1798.51 338.332 1795.74 475.219 1795.74 496.255L1795.83 740.256L1795.79 799.601C1795.79 811.086 1794.58 824.512 1796.98 835.699C1802.54 861.623 1824.39 879.267 1850.24 881.953C1856.66 882.619 1870.06 881.358 1875.1 884.927C1876.26 885.751 1876.04 886.655 1876.21 887.991C1875.64 888.905 1874.97 890.425 1874.1 891.034C1873.04 891.778 1872.16 892.152 1870.87 892.253C1860.52 893.061 1849.58 892.361 1839.17 892.358L1774.81 892.337L1710.9 892.297C1697.28 892.283 1683.24 892.946 1669.72 891.139L1668.73 888.399C1671.38 880.016 1695.58 882.896 1703.03 881.278C1714.82 878.715 1726.4 871.925 1734.58 863.087C1742.91 854.074 1747.84 843.332 1749.69 831.248C1752.75 811.222 1750.97 789.276 1750.92 769.001L1750.76 662.254C1751.44 568.532 1751.18 474.806 1749.97 381.09C1749.7 343.051 1750.48 305.153 1749.34 267.095C1748.78 248.701 1747.8 230.579 1745.63 212.302C1744.42 202.062 1741.7 190.785 1741.36 180.667C1741.32 179.633 1742.08 179.223 1742.77 178.499Z"/>
	<path transform="scale(1 1)" d="M2840.14 787.829C2842.09 786.235 2843.65 784.714 2844.73 782.405C2862.78 743.527 2878.67 703.249 2895.07 663.625L2981.63 454.759C3002.13 406.154 3023.15 357.834 3042.91 308.915C3050.69 289.674 3061.03 269.889 3065.05 249.462C3067.01 239.559 3063.56 228.663 3057.91 220.514C3047.23 205.082 3039.58 205.946 3023.18 203.026C3019.01 202.284 3016.37 201.701 3013.88 198.135C3014.11 196.008 3013.91 195.599 3015.48 194.039C3028.44 192.175 3042.01 193.021 3055.09 193.036L3119.35 193.136C3136.31 193.17 3153.31 193.548 3170.27 193.357C3181.04 193.235 3192.3 192.149 3202.98 192.981C3206.73 193.274 3210.52 193.828 3213.07 196.869C3213.46 199.172 3213.6 199.506 3212.59 201.578C3209.46 203.532 3205.33 203.103 3201.75 203.121C3170.38 206.037 3148.29 220.039 3129.15 244.961C3116.72 261.15 3108.44 286.436 3099.84 305.372C3075.87 358.139 3053.03 411.322 3029.68 464.357L2910.15 731.786C2896.1 763.067 2880.76 793.897 2867.25 825.388C2858.95 844.715 2851.12 864.31 2845.23 884.517C2843.59 890.157 2842.55 902.349 2838.95 906.036C2836.74 906.885 2835.26 906.592 2832.99 906.099C2825.33 894.759 2820.58 878.605 2814.89 865.999C2798.8 831.19 2783.18 796.169 2768.02 760.945L2618.21 418.036C2602.06 380.3 2585.57 342.714 2568.74 305.282C2560.1 285.856 2552.9 266.012 2541.9 247.714C2529.06 226.351 2505.38 209.778 2481.01 204.814C2473.11 203.205 2464.9 203.648 2457.1 201.714C2455.5 199.202 2456.02 196.439 2455.98 193.5C2471.06 192.375 2486.58 193.056 2501.72 193.056L2584.51 193.163L2642.51 193.32C2654.39 193.36 2667.09 192.571 2678.81 194.497C2680.5 196.356 2681.16 196.501 2681.14 199.093C2677.3 203.976 2656.61 202.18 2646.47 209.194C2633.45 218.187 2627.29 232.765 2628.9 248.426C2630.71 266.058 2647.93 301.139 2655.22 319C2662.63 337.15 2669.51 355.527 2676.84 373.71L2730.79 510.883C2742.85 541.158 2841.56 780.015 2840.14 787.829Z"/>
	<path transform="scale(1 1)" d="M110.086 506.561C112.863 496.561 112.629 480.067 114.789 468.386C123.581 420.829 137.745 377.568 163.405 336.315C210.556 260.509 284.891 210.225 371.287 190.21C486.325 163.371 607.323 183.89 707.081 247.155C708.791 265.703 712.862 284.668 715.724 303.109C719.002 324.228 721.341 345.816 725.501 366.747C726.38 373.948 727.326 381.081 727.331 388.347C724.34 388.074 720.867 388.263 718.528 386.201C713.36 371.36 709.648 356.638 703.241 342.152C681.953 294.022 642.162 257.818 595.322 235.273C527.292 202.529 439.525 200.507 368.62 225.594C300.93 249.543 249.326 301.693 218.901 365.765C212.135 380.015 205.591 394.479 200.986 409.592C176.552 489.772 175.786 603.533 204.038 682.469C229.472 753.528 279.497 818.435 348.822 851.031C419.448 884.239 505.571 884.368 578.475 857.93C643.456 834.365 689.637 788.221 718.557 726.143C726.648 708.776 732.417 690.707 736.867 672.101C738.825 663.917 739.919 654.119 742.917 646.369L743.539 645.706C748.707 640.107 749.214 633.397 751.044 626.391C750.608 645.898 748.398 674.677 751.082 693.459C751.479 699.381 746.852 750.455 745.387 755.722C743.897 761.077 740.313 766.528 737.154 771.078C689.247 840.072 622.16 885.193 539.094 900.19C444.356 917.293 336.044 901.16 256.187 845.439C186.406 797.441 137.615 724.583 119.802 641.783C117.024 629.417 114.151 616.458 112.609 603.896C111.549 595.256 111.617 586.54 110.085 577.951C111.476 570.485 109.006 551.101 108.971 542.094C108.927 530.682 111.503 517.556 110.086 506.561Z"/>
	<path transform="scale(1 1)" d="M3616.9 321.836C3617.68 321.168 3618.46 320.377 3618.79 319.387C3620.15 315.378 3620.47 310.507 3621.56 306.332C3624.9 293.52 3629.27 281.191 3635.21 269.334C3646.03 247.745 3663.58 227.214 3682.69 212.538C3725.9 179.363 3780.8 175.82 3833.02 182.166C3848.88 184.093 3864.54 187.322 3880.39 189.368C3888.96 191.916 3900.31 190.562 3909.28 190.49C3911.97 195.092 3911.56 279.219 3910.21 291.08C3908.84 286.625 3906.83 276.795 3902.61 274.534C3901.66 274.024 3900.81 273.954 3899.75 273.834C3900.82 268.605 3894.91 259.797 3892.01 255.445C3876.21 231.682 3850.17 217.228 3822.56 211.771C3788.85 205.107 3752.27 209.059 3723.33 228.537C3697.51 245.912 3679.94 271.638 3673.99 302.196C3668.05 332.722 3672.9 365.501 3690.47 391.427C3705.79 414.032 3727.98 431.36 3747.85 449.756L3843.6 538.477C3872.65 565.492 3920.97 603.686 3938.92 637.027C3958.85 674.049 3961.94 723.429 3954.24 764.217C3946 809.613 3919.87 849.796 3881.72 875.744C3830.58 910.608 3765.51 910.865 3706.77 899.622C3679.13 894.332 3650.37 885.902 3626.66 870.359C3618.57 865.062 3610.62 856.714 3602.25 852.514C3603.39 844.729 3600.01 835.148 3599.82 827.02C3599 792.284 3601.16 760.075 3610.76 726.52C3611.91 722.512 3612.07 716.889 3614.87 713.785C3617.44 713.221 3618.91 713.177 3621.39 714.094C3623.04 717.02 3621.45 741.644 3621.78 746.821C3625.47 804.022 3659.2 856.039 3716.16 871.89C3753.88 882.388 3800.37 877.056 3834.47 857.777C3863.34 841.455 3886.71 814.441 3895.56 782.239C3905.09 747.573 3902.09 708.355 3884.14 676.938C3869.07 650.588 3834.65 624.032 3811.91 603.16L3715.55 513.563C3696.04 495.45 3674.91 477.875 3657.16 458.046C3645.87 445.612 3636.63 431.456 3629.8 416.111C3626.62 408.925 3620.62 381.482 3617.12 377.839C3617.41 377.109 3617.66 323.8 3616.9 321.836Z"/>
	<path transform="scale(1 1)" d="M3268.32 192.948C3317.32 193.801 3366.39 193.326 3415.4 193.392C3434.17 193.417 3453.42 192.313 3472.12 193.241C3475.58 193.413 3478.93 193.714 3482.09 195.23C3483.33 197.249 3483.23 197.33 3482.81 199.681L3480.37 202.086C3471.29 204.314 3461.27 203.21 3451.85 205.508C3436.44 209.265 3422.88 218.223 3414.69 232.017C3409.19 241.282 3405.67 252.318 3405 263.061C3402.9 296.594 3405.03 331.302 3405.09 364.941L3405.07 572C3404.48 633.935 3404.25 695.874 3404.39 757.812C3404.38 777.72 3401.37 817.821 3406 835.606C3411.78 857.814 3432.78 876.824 3455.15 880.901C3461.91 882.133 3473.84 881.295 3479.47 884.972C3481.45 886.262 3481.38 886.806 3481.9 888.987C3481.3 890.125 3481.24 890.79 3479.98 891.305C3477.71 892.237 3271.6 894.344 3264.39 891.215C3262.99 888.873 3262.44 888.661 3263.04 886.046C3267.95 880.835 3284.07 882.387 3291.5 880.76C3298.08 879.369 3304.37 876.855 3310.1 873.329C3324.79 864.219 3334.62 849.212 3338.32 832.458C3341.05 820.101 3340.28 806.743 3340.36 794.153C3340.51 774.502 3340.45 754.849 3340.19 735.198L3339.98 591.244L3340.34 352.737L3340.03 292.481C3340.03 281.708 3340.72 270.744 3339.99 260C3339.31 249.94 3336.09 240.219 3330.61 231.752C3321.03 216.931 3304.41 206.379 3286.93 203.954C3279.99 202.991 3272.92 203.334 3266.06 201.867C3264.6 199.924 3264.61 199.286 3264.35 196.831C3265.6 194.104 3265.55 194.069 3268.32 192.948Z"/>
	<path transform="scale(1 1)" d="M3909.71 189.149C3912.2 189.6 3913.61 189.492 3915.48 191.386C3916.25 205.211 3917.12 307.143 3914.46 310.919L3910.68 311.848C3904.9 310.272 3906.01 282.355 3899.75 273.834C3900.81 273.954 3901.66 274.024 3902.61 274.534C3906.83 276.795 3908.84 286.625 3910.21 291.08C3911.56 279.219 3911.97 195.092 3909.28 190.49C3900.31 190.562 3888.96 191.916 3880.39 189.368C3889.85 189.365 3900.38 190.326 3909.71 189.149Z"/>
	<path fill="#FFFEFF" fill-opacity="0.011764706" transform="scale(1 1)" d="M3909.71 189.149C3913.43 188.723 3917.43 187.91 3921.06 189.166C3924.47 195.433 3921.23 294.491 3920.57 309.158C3919.59 310.79 3919.37 311.647 3917.41 312.172C3915.4 312.709 3912.74 312.122 3910.68 311.848L3914.46 310.919C3917.12 307.143 3916.25 205.211 3915.48 191.386C3913.61 189.492 3912.2 189.6 3909.71 189.149Z"/>
	<path fill="#FFFEFF" fill-opacity="0.011764706" transform="scale(1 1)" d="M1592.5 493.152C1594.78 493.615 1595.54 493.438 1596.92 495.428C1605.3 507.561 1603.17 566.196 1599.68 581.268C1598.81 585.066 1597.81 589.815 1594.28 592.025C1593.02 590.786 1592.72 589.664 1592.24 587.985C1592.34 587.804 1592.45 587.625 1592.55 587.441C1598.24 576.783 1596.68 506.296 1592.5 493.152Z"/>
	<path transform="scale(1 1)" d="M742.917 646.369C744.543 631.939 746.058 616.378 749.361 602.258C752.003 600.278 756 600.821 759.161 600.822C754.577 614.753 755.53 641.965 753.302 658.165C752.29 669.661 752.917 682.183 751.082 693.459C748.398 674.677 750.608 645.898 751.044 626.391C749.214 633.397 748.707 640.107 743.539 645.706L742.917 646.369Z"/>
	<path fill="#FFFEFF" fill-opacity="0.011764706" transform="scale(1 1)" d="M3268.32 192.948C3270.08 192.243 3271.79 191.737 3273.7 191.636C3287.99 190.876 3302.57 191.484 3316.9 191.485L3398.79 191.508L3451.92 191.549C3463.38 191.56 3475.35 190.885 3486.7 192.56C3488.91 194.565 3489.05 194.862 3489.71 197.777C3488.69 200.615 3488.39 201.15 3486.08 203.076C3483.82 203.343 3482.46 202.956 3480.37 202.086L3482.81 199.681C3483.23 197.33 3483.33 197.249 3482.09 195.23C3478.93 193.714 3475.58 193.413 3472.12 193.241C3453.42 192.313 3434.17 193.417 3415.4 193.392C3366.39 193.326 3317.32 193.801 3268.32 192.948Z"/>
	<path fill="#FFFEFF" fill-opacity="0.011764706" transform="scale(1 1)" d="M110.085 577.951L109.181 577.125C108.053 572.842 105.973 568.889 104.891 564.536C101.459 550.725 101.239 532.031 104.679 518.203C105.519 514.829 107.534 512.079 108.383 508.867C108.699 507.67 109.221 507.4 110.086 506.561C111.503 517.556 108.927 530.682 108.971 542.094C109.006 551.101 111.476 570.485 110.085 577.951Z"/>
	<path fill="#FFFEFF" fill-opacity="0.011764706" transform="scale(1 1)" d="M3617.12 377.839L3615.95 379.06L3614.61 378.574C3609.08 368.663 3608.37 342.616 3611.53 331.571C3612.57 327.925 3616.22 325.815 3616.85 322.254C3616.87 322.115 3616.89 321.975 3616.9 321.836C3617.66 323.8 3617.41 377.109 3617.12 377.839Z"/>
	<path fill="#FFFEFF" fill-opacity="0.011764706" transform="scale(1 1)" d="M759.161 600.822C761.878 603.38 761.483 605.766 761.581 609.372C761.905 621.303 764.503 649.807 756.32 658.587C754.692 658.935 754.73 659 753.302 658.165C755.53 641.965 754.577 614.753 759.161 600.822Z"/>
	<path fill="#FFFEFF" fill-opacity="0.011764706" transform="scale(1 1)" d="M725.501 366.747C728.368 367.445 729.275 367.535 730.85 370.137C733.943 375.25 734.244 380.713 732.998 386.358L731.5 388.136L727.331 388.347C727.326 381.081 726.38 373.948 725.501 366.747Z"/>
</svg>
