<?xml version="1.0" encoding="utf-8" ?>
<svg xmlns="http://www.w3.org/2000/svg" xmlns:xlink="http://www.w3.org/1999/xlink" width="2800" height="1576">
	<path transform="matrix(0.933333 0 0 0.933649 0 -7.62939e-06)" d="M1092.3 685.895C1190.14 675.448 1277.95 746.235 1288.51 844.066C1299.07 941.898 1228.39 1029.79 1130.57 1040.46C1032.59 1051.15 944.52 980.329 933.943 882.337C923.367 784.346 994.293 696.359 1092.3 685.895ZM1244.4 911.334C1249.76 878.811 1251.03 848.06 1244.61 815.605C1236.41 777.182 1217.23 742.305 1183.78 720.335C1154.43 701.056 1114.55 695.43 1080.48 702.862C1045.93 710.4 1017.73 731.481 998.967 761.232C972.155 803.75 966.974 862.567 978.069 911.183C986.848 949.648 1007.27 986.555 1041.59 1007.76C1072.38 1026.79 1112.27 1030.48 1147.02 1021.94C1180.76 1013.65 1207.72 992.053 1225.32 962.351C1235.03 945.965 1239.68 929.565 1244.4 911.334Z"/>
	<path fill="white" fill-opacity="0.011764706" transform="matrix(0.933333 0 0 0.933649 0 -7.62939e-06)" d="M1244.4 911.334C1240.94 898.106 1244.55 875.468 1244.57 861.118C1244.58 848.022 1243.15 834.945 1243.55 821.833C1243.62 819.649 1243.97 817.696 1244.61 815.605C1251.03 848.06 1249.76 878.811 1244.4 911.334Z"/>
	<path transform="matrix(0.933333 0 0 0.933649 0 -7.62939e-06)" d="M1338.37 1028.58L1339.49 1028.17C1349.25 1024.47 1357.64 1019.72 1360.92 1008.97C1364.27 997.969 1361.87 968.331 1361.79 955.308L1361.67 881.451L1361.64 784.193C1361.69 767.074 1362.38 749.845 1361.89 732.737C1361.63 724.006 1356.94 691.962 1359.33 686.646L1361.21 686.627C1372.05 692.297 1417.07 744.76 1429.5 757.94C1467.19 797.671 1504.65 837.623 1541.87 877.796C1570.69 908.289 1600.48 938.244 1627.67 970.202C1628.62 952.63 1628.17 934.865 1628.19 917.272L1628.29 828.746L1628.66 763.239C1628.75 751.05 1629.46 738.529 1628.58 726.382C1628.2 721.181 1627.37 716.187 1624.67 711.628C1619.75 703.306 1610.02 698.457 1600.59 697.463C1597.67 697.154 1594.18 697.356 1591.38 696.505C1589.5 695.937 1589.48 695.582 1588.73 693.92C1589.28 693.378 1589.36 693.213 1590.19 692.87C1593.94 691.305 1687.2 691.39 1690.56 693.439C1689.17 697.691 1665.29 696.851 1656.24 708.066C1652.5 712.71 1650.64 718.622 1649.89 724.476C1648.53 735.119 1649.32 746.571 1649.3 757.328L1649.26 818.001L1649.33 933.697C1649.42 952.932 1649.02 972.343 1649.84 991.558C1650.57 1008.83 1652.78 1026.22 1654.15 1043.47C1638.85 1029.14 1625.15 1013.38 1610.87 998.057L1551.17 934.434L1383.95 755.144C1383.08 777.385 1384.2 799.99 1384.08 822.278C1383.94 848.997 1380.63 997.347 1386.23 1012.12C1389.1 1019.69 1397.16 1024.37 1404.02 1027.77L1403.3 1030.27C1395.47 1033.77 1345.19 1031.58 1333.23 1031.55C1334.94 1030.58 1336.74 1029.68 1338.37 1028.58Z"/>
	<path transform="matrix(0.933333 0 0 0.933649 0 -7.62939e-06)" d="M1707.1 692.486C1719.54 691.619 1732.46 692.293 1744.95 692.296C1764.86 692.3 1784.85 691.995 1804.75 692.432C1807.65 692.496 1813.96 692.121 1815.88 694.124C1810.9 699.903 1800.73 696.76 1794.9 704.387C1791.53 708.784 1789.99 713.983 1790.78 719.487C1792.56 731.842 1799.6 745.075 1804.33 756.559L1824.4 805.731L1890.72 972.372C1891.76 974.949 1892.47 977.377 1894.73 979.061C1898.83 977.036 1901.5 967.976 1903.41 963.703C1922.14 921.861 1938.62 879.135 1956.74 837.053L1984.57 770.594C1990.72 755.934 1998.12 740.717 2002.43 725.46C2004 719.917 2004.94 714.216 2002.58 708.72C1998.89 700.09 1993.19 699.838 1985.41 696.828C1983.34 696.028 1980.89 695.602 1979.97 693.533C1986.3 691.025 2060.4 691.579 2070.08 692.617C2072.66 692.895 2074.96 692.797 2076.65 694.866C2074.25 696.86 2071.76 696.751 2068.75 696.989C2056.21 699.07 2044.23 706.494 2036.73 716.733C2027.24 729.676 2021.47 746.043 2014.87 760.611C2000.39 792.578 1986.81 824.913 1972.73 857.054C1951.28 906.026 1927.49 954.09 1906.41 1003.19C1902.65 1011.96 1896.19 1038.89 1890.48 1043.7C1890.4 1040.84 1889.93 1038.72 1888.88 1036.06C1881.9 1018.22 1873.32 1000.99 1865.45 983.537C1856.53 963.747 1848.16 943.647 1839.51 923.729L1793.93 820.352C1780.96 790.572 1768.54 760.33 1754.69 730.957C1752.07 725.407 1748.74 719.751 1745.15 714.78C1731.01 695.205 1712.69 700.953 1706.54 694.822L1707.1 692.486Z"/>
	<path transform="matrix(0.933333 0 0 0.933649 0 -7.62939e-06)" d="M871.969 960.439C871.913 963.095 871.592 965.537 870.598 968.023C861.133 991.68 824.951 1019.23 801.682 1028.35C756.203 1046.16 702.502 1044.33 657.959 1024.75C618.694 1007.72 588.033 975.476 573.013 935.403C555.037 888.264 556.026 827.473 576.682 781.443C594.366 742.681 626.58 712.426 666.373 697.205C709.043 681.052 764.06 681.768 806.972 696.569C822.235 701.833 835.924 709.546 850.537 716.203C851.021 729.757 858.233 760.887 856.604 770.697L855.579 771.193C853.314 767.178 853.069 764.493 848.949 761.911C835.951 735.236 812.975 716.95 785.084 707.494C749.671 695.487 707.731 697.238 674.207 714.026C639.997 731.157 617.924 759.735 605.976 795.72C590.065 843.639 592.362 905.982 615.199 951.141C631.617 983.609 657.652 1008.4 692.586 1019.63C728.213 1031.09 770.315 1028.29 803.652 1010.99C826.876 998.94 850.642 976.715 858.951 951.19C859.366 950.917 859.795 950.663 860.197 950.37C866.166 946.015 865.804 935.135 870.655 929.669C873.119 934.434 871.336 953.688 871.969 960.439Z"/>
	<path transform="matrix(0.933333 0 0 0.933649 0 -7.62939e-06)" d="M2408.06 723.832C2408.04 723.499 2408.06 723.162 2408.01 722.832C2407.24 717.841 2398.57 711.319 2394.35 708.894C2379.42 700.304 2360.69 697.54 2344.03 702.089C2327.79 706.524 2315.41 716.336 2307.22 730.958C2284.55 771.412 2318.02 799.577 2345.31 824.487L2391.54 867.005C2402.88 877.483 2415.39 887.816 2424.68 900.183C2430.58 907.925 2434.93 916.73 2437.49 926.117C2444.07 949.703 2440.75 977.295 2428.66 998.595C2417.74 1017.82 2398.75 1031.31 2377.52 1037.04C2348.25 1044.94 2306.3 1039.44 2280.05 1024.28C2273.47 1020.49 2267.69 1015.52 2265.86 1007.81C2262.8 994.914 2267.02 958.423 2273.8 947.613C2277.18 948.071 2276.69 963.793 2277 967.411C2278.19 981.462 2284.06 995.644 2293.75 1005.96C2306.39 1019.41 2323.27 1025.41 2341.47 1025.96C2360.48 1026.54 2379.4 1021.04 2393.31 1007.65C2406.07 995.248 2413.26 978.204 2413.23 960.412C2413.29 948.944 2410.4 937.75 2404.36 927.967C2394.15 911.42 2376.8 898.388 2362.52 885.397C2341.19 865.997 2319.02 846.984 2298.79 826.459C2282.89 810.335 2273.05 791.373 2273.35 768.371C2273.66 745.344 2283.89 722.407 2300.49 706.462C2334.64 673.66 2377.01 690.136 2417.73 691.167C2421.14 703.701 2417.02 719.409 2417.01 732.406L2415.99 733.741C2413.99 730.012 2414.34 727.843 2410.94 724.549L2408.06 723.832Z"/>
	<path transform="matrix(0.933333 0 0 0.933649 0 -7.62939e-06)" d="M2112.94 698.116C2114.58 695.788 2115.07 695.134 2117.94 694.693C2124.26 693.718 2186.37 694.152 2189.94 695.532L2189.57 698.103C2183.6 705.495 2176.49 705.66 2172.4 716.422C2168.98 725.429 2169.77 971.881 2170.61 996.53C2170.75 1000.61 2170.73 1005.4 2172.43 1009.19C2172.59 1009.56 2172.78 1009.92 2172.96 1010.28C2183.05 1031.64 2191.89 1022.47 2205.76 1029.23C2207.53 1030.09 2207.8 1030.2 2208.44 1032.11C2206.62 1033.59 2204.3 1033.67 2202.04 1033.83C2182.41 1035.21 2161.8 1033.82 2142.09 1033.81C2129.92 1033.81 2115.83 1035.35 2103.84 1033.82C2101.76 1033.55 2101.64 1033.33 2100.4 1031.77C2104.9 1025.97 2119.87 1027.87 2126.98 1023.5C2132.12 1020.34 2135.38 1014.5 2136.73 1008.74C2140.33 993.37 2138.64 974.976 2138.63 959.245L2138.77 897.014L2139 788.227C2139.03 767.456 2139.98 746.022 2138.37 725.322C2137.97 720.191 2136.83 715.838 2134.03 711.451C2129.45 704.293 2122.34 700.103 2114.19 698.375L2112.94 698.116Z"/>
	<path transform="matrix(0.933333 0 0 0.933649 0 -7.62939e-06)" d="M858.951 951.19C863.219 940.383 866.502 929.213 868.758 917.815C870.078 911.263 870.727 904.374 872.585 897.962C873.197 895.85 873.689 894.215 875.283 892.627C879.243 898.509 873.952 950.479 872.163 959.599C872.108 959.881 872.034 960.159 871.969 960.439C871.336 953.688 873.119 934.434 870.655 929.669C865.804 935.135 866.166 946.015 860.197 950.37C859.795 950.663 859.366 950.917 858.951 951.19Z"/>
	<path transform="matrix(0.933333 0 0 0.933649 0 -7.62939e-06)" d="M2112.94 698.116C2109.43 697.688 2106.03 697.76 2103.36 695.203L2103.29 693.58C2104.18 693.062 2104.87 692.607 2105.91 692.454C2113.57 691.328 2200.01 691.537 2204.8 692.985C2206.05 693.365 2206.17 693.508 2207.12 694.113C2206.08 695.8 2205.35 696.106 2203.45 696.471C2198.92 697.344 2194.16 697.31 2189.57 698.103L2189.94 695.532C2186.37 694.152 2124.26 693.718 2117.94 694.693C2115.07 695.134 2114.58 695.788 2112.94 698.116Z"/>
	<path transform="matrix(0.933333 0 0 0.933649 0 -7.62939e-06)" d="M1404.02 1027.77C1409.99 1028.69 1416.98 1028.2 1422.52 1030.41L1422.77 1031.74C1421.62 1032.63 1420.77 1033.05 1419.31 1033.2C1402.82 1034.88 1385 1033.74 1368.39 1033.78C1354.78 1033.81 1339.99 1034.95 1326.52 1033.68C1325.3 1033.56 1324.08 1033.3 1322.89 1033.02L1322.29 1031.58C1325.82 1028.28 1333.58 1028.91 1338.37 1028.58C1336.74 1029.68 1334.94 1030.58 1333.23 1031.55C1345.19 1031.58 1395.47 1033.77 1403.3 1030.27L1404.02 1027.77Z"/>
	<path transform="matrix(0.933333 0 0 0.933649 0 -7.62939e-06)" d="M850.537 716.203C851.261 716.992 852.586 718.079 853.083 718.976C855.594 723.505 861.655 775.008 861.215 781.409C861.123 782.734 860.84 783.877 860.49 785.152L859.271 785.477C853.977 779.517 851.912 769.262 848.949 761.911C853.069 764.493 853.314 767.178 855.579 771.193L856.604 770.697C858.233 760.887 851.021 729.757 850.537 716.203Z"/>
	<path transform="matrix(0.933333 0 0 0.933649 0 -7.62939e-06)" d="M2417.73 691.167L2420.2 692.726C2421.29 699.506 2421.32 745.406 2419.3 750.017L2417.92 749.96C2412.46 742.817 2415.72 730.247 2408.06 723.832L2410.94 724.549C2414.34 727.843 2413.99 730.012 2415.99 733.741L2417.01 732.406C2417.02 719.409 2421.14 703.701 2417.73 691.167Z"/>
</svg>
