<svg width="900" height="900" viewBox="0 0 900 900" fill="none" xmlns="http://www.w3.org/2000/svg">
<g filter="url(#filter0_ii_1037_608)">
<path d="M635.022 364.701C653.863 332.067 695.592 320.886 728.225 339.727C760.859 358.568 772.04 400.297 753.199 432.93L571.679 747.332C552.838 779.966 511.11 791.147 478.476 772.306C445.842 753.465 434.661 711.736 453.502 679.103L635.022 364.701Z" fill="url(#paint0_radial_1037_608)"/>
<path d="M635.022 364.701C653.863 332.067 695.592 320.886 728.225 339.727C760.859 358.568 772.04 400.297 753.199 432.93L571.679 747.332C552.838 779.966 511.11 791.147 478.476 772.306C445.842 753.465 434.661 711.736 453.502 679.103L635.022 364.701Z" fill="#1F2E7E" fill-opacity="0.2"/>
</g>
<g filter="url(#filter1_ii_1037_608)">
<path d="M680.182 320.601C716.58 310.848 753.993 332.448 763.745 368.846C773.498 405.244 751.898 442.657 715.5 452.41L222.713 584.452C186.315 594.204 148.902 572.604 139.149 536.206C129.397 499.808 150.997 462.395 187.395 452.643L680.182 320.601Z" fill="url(#paint1_radial_1037_608)"/>
<path d="M680.182 320.601C716.58 310.848 753.993 332.448 763.745 368.846C773.498 405.244 751.898 442.657 715.5 452.41L222.713 584.452C186.315 594.204 148.902 572.604 139.149 536.206C129.397 499.808 150.997 462.395 187.395 452.643L680.182 320.601Z" fill="#1F2E7E" fill-opacity="0.2"/>
</g>
<mask id="mask0_1037_608" style="mask-type:alpha" maskUnits="userSpaceOnUse" x="112" y="68" width="394" height="545">
<path d="M112.917 544.194L231.094 612.424L505.796 136.625L387.619 68.3956L112.917 544.194Z" fill="url(#paint2_linear_1037_608)"/>
</mask>
<g mask="url(#mask0_1037_608)">
<g filter="url(#filter2_ii_1037_608)">
<path d="M147.032 485.106C128.191 517.739 139.372 559.468 172.005 578.309C204.639 597.15 246.367 585.969 265.208 553.335L471.681 195.713C490.522 163.08 479.341 121.351 446.708 102.51C414.074 83.6692 372.346 94.8504 353.505 127.484L147.032 485.106Z" fill="url(#paint3_radial_1037_608)"/>
<path d="M147.032 485.106C128.191 517.739 139.372 559.468 172.005 578.309C204.639 597.15 246.367 585.969 265.208 553.335L471.681 195.713C490.522 163.08 479.341 121.351 446.708 102.51C414.074 83.6692 372.346 94.8504 353.505 127.484L147.032 485.106Z" fill="#1F2E7E" fill-opacity="0.2"/>
</g>
</g>
<defs>
<filter id="filter0_ii_1037_608" x="426.693" y="330.575" width="361.011" height="481.783" filterUnits="userSpaceOnUse" color-interpolation-filters="sRGB">
<feFlood flood-opacity="0" result="BackgroundImageFix"/>
<feBlend mode="normal" in="SourceGraphic" in2="BackgroundImageFix" result="shape"/>
<feColorMatrix in="SourceAlpha" type="matrix" values="0 0 0 0 0 0 0 0 0 0 0 0 0 0 0 0 0 0 127 0" result="hardAlpha"/>
<feOffset dx="-17.657" dy="30.8998"/>
<feGaussianBlur stdDeviation="37.5212"/>
<feComposite in2="hardAlpha" operator="arithmetic" k2="-1" k3="1"/>
<feColorMatrix type="matrix" values="0 0 0 0 1 0 0 0 0 1 0 0 0 0 1 0 0 0 0.87 0"/>
<feBlend mode="lighten" in2="shape" result="effect1_innerShadow_1037_608"/>
<feColorMatrix in="SourceAlpha" type="matrix" values="0 0 0 0 0 0 0 0 0 0 0 0 0 0 0 0 0 0 127 0" result="hardAlpha"/>
<feOffset dx="25.3522" dy="14.7888"/>
<feGaussianBlur stdDeviation="14.7888"/>
<feComposite in2="hardAlpha" operator="arithmetic" k2="-1" k3="1"/>
<feColorMatrix type="matrix" values="0 0 0 0 0.168627 0 0 0 0 0.180392 0 0 0 0 0.239216 0 0 0 0.9 0"/>
<feBlend mode="multiply" in2="effect1_innerShadow_1037_608" result="effect2_innerShadow_1037_608"/>
</filter>
<filter id="filter1_ii_1037_608" x="119.151" y="318.259" width="672.289" height="299.434" filterUnits="userSpaceOnUse" color-interpolation-filters="sRGB">
<feFlood flood-opacity="0" result="BackgroundImageFix"/>
<feBlend mode="normal" in="SourceGraphic" in2="BackgroundImageFix" result="shape"/>
<feColorMatrix in="SourceAlpha" type="matrix" values="0 0 0 0 0 0 0 0 0 0 0 0 0 0 0 0 0 0 127 0" result="hardAlpha"/>
<feOffset dx="-17.657" dy="30.8998"/>
<feGaussianBlur stdDeviation="37.5212"/>
<feComposite in2="hardAlpha" operator="arithmetic" k2="-1" k3="1"/>
<feColorMatrix type="matrix" values="0 0 0 0 1 0 0 0 0 1 0 0 0 0 1 0 0 0 0.87 0"/>
<feBlend mode="lighten" in2="shape" result="effect1_innerShadow_1037_608"/>
<feColorMatrix in="SourceAlpha" type="matrix" values="0 0 0 0 0 0 0 0 0 0 0 0 0 0 0 0 0 0 127 0" result="hardAlpha"/>
<feOffset dx="25.3522" dy="14.7888"/>
<feGaussianBlur stdDeviation="14.7888"/>
<feComposite in2="hardAlpha" operator="arithmetic" k2="-1" k3="1"/>
<feColorMatrix type="matrix" values="0 0 0 0 0.168627 0 0 0 0 0.180392 0 0 0 0 0.239216 0 0 0 0.9 0"/>
<feBlend mode="multiply" in2="effect1_innerShadow_1037_608" result="effect2_innerShadow_1037_608"/>
</filter>
<filter id="filter2_ii_1037_608" x="120.222" y="93.3579" width="385.964" height="525.003" filterUnits="userSpaceOnUse" color-interpolation-filters="sRGB">
<feFlood flood-opacity="0" result="BackgroundImageFix"/>
<feBlend mode="normal" in="SourceGraphic" in2="BackgroundImageFix" result="shape"/>
<feColorMatrix in="SourceAlpha" type="matrix" values="0 0 0 0 0 0 0 0 0 0 0 0 0 0 0 0 0 0 127 0" result="hardAlpha"/>
<feOffset dx="-17.657" dy="30.8998"/>
<feGaussianBlur stdDeviation="37.5212"/>
<feComposite in2="hardAlpha" operator="arithmetic" k2="-1" k3="1"/>
<feColorMatrix type="matrix" values="0 0 0 0 1 0 0 0 0 1 0 0 0 0 1 0 0 0 0.87 0"/>
<feBlend mode="lighten" in2="shape" result="effect1_innerShadow_1037_608"/>
<feColorMatrix in="SourceAlpha" type="matrix" values="0 0 0 0 0 0 0 0 0 0 0 0 0 0 0 0 0 0 127 0" result="hardAlpha"/>
<feOffset dx="25.3522" dy="14.7888"/>
<feGaussianBlur stdDeviation="14.7888"/>
<feComposite in2="hardAlpha" operator="arithmetic" k2="-1" k3="1"/>
<feColorMatrix type="matrix" values="0 0 0 0 0.168627 0 0 0 0 0.180392 0 0 0 0 0.239216 0 0 0 0.9 0"/>
<feBlend mode="multiply" in2="effect1_innerShadow_1037_608" result="effect2_innerShadow_1037_608"/>
</filter>
<radialGradient id="paint0_radial_1037_608" cx="0" cy="0" r="1" gradientUnits="userSpaceOnUse" gradientTransform="translate(718.165 286.845) rotate(119.455) scale(177.915 90.5859)">
<stop stop-color="#949494"/>
<stop offset="0.635171" stop-color="#181818"/>
<stop offset="1" stop-color="#1D1D1D"/>
</radialGradient>
<radialGradient id="paint1_radial_1037_608" cx="0" cy="0" r="1" gradientUnits="userSpaceOnUse" gradientTransform="translate(805.624 321.231) rotate(164.579) scale(230.316 90.5875)">
<stop stop-color="#949494"/>
<stop offset="0.635171" stop-color="#181818"/>
<stop offset="1" stop-color="#1D1D1D"/>
</radialGradient>
<linearGradient id="paint2_linear_1037_608" x1="74" y1="706" x2="-8.16681" y2="604.964" gradientUnits="userSpaceOnUse">
<stop offset="0.132716" stop-opacity="0"/>
<stop offset="0.486392"/>
</linearGradient>
<radialGradient id="paint3_radial_1037_608" cx="0" cy="0" r="1" gradientUnits="userSpaceOnUse" gradientTransform="translate(119.141 599.565) rotate(-59.5044) scale(195.689 90.5866)">
<stop stop-color="#949494"/>
<stop offset="0.635171" stop-color="#181818"/>
<stop offset="1" stop-color="#1D1D1D"/>
</radialGradient>
</defs>
</svg>
