<svg width="900" height="900" viewBox="0 0 900 900" fill="none" xmlns="http://www.w3.org/2000/svg">
<mask id="mask0_1037_603" style="mask-type:alpha" maskUnits="userSpaceOnUse" x="68" y="68" width="764" height="764">
<rect x="68" y="68" width="764" height="764" fill="url(#paint0_linear_1037_603)"/>
</mask>
<g mask="url(#mask0_1037_603)">
<g opacity="0.5" filter="url(#filter0_i_1037_603)">
<circle cx="450" cy="450" r="320.988" fill="#1F2E7E" fill-opacity="0.2"/>
</g>
<g filter="url(#filter1_i_1037_603)">
<path d="M467.049 800.39C467.696 810.245 459.876 818.595 450 818.595C440.123 818.595 432.304 810.245 432.951 800.39L443.779 635.413C443.995 632.135 446.716 629.587 450 629.587C453.284 629.587 456.005 632.135 456.22 635.413L467.049 800.39Z" fill="url(#paint1_linear_1037_603)"/>
<path d="M467.049 800.39C467.696 810.245 459.876 818.595 450 818.595C440.123 818.595 432.304 810.245 432.951 800.39L443.779 635.413C443.995 632.135 446.716 629.587 450 629.587C453.284 629.587 456.005 632.135 456.22 635.413L467.049 800.39Z" fill="#1F2E7E" fill-opacity="0.2"/>
</g>
<g filter="url(#filter2_i_1037_603)">
<path d="M432.951 99.6103C432.304 89.755 440.123 81.4055 450 81.4055C459.876 81.4055 467.696 89.755 467.049 99.6103L456.22 264.588C456.005 267.865 453.284 270.413 450 270.413C446.715 270.413 443.995 267.865 443.779 264.588L432.951 99.6103Z" fill="url(#paint2_linear_1037_603)"/>
<path d="M432.951 99.6103C432.304 89.755 440.123 81.4055 450 81.4055C459.876 81.4055 467.696 89.755 467.049 99.6103L456.22 264.588C456.005 267.865 453.284 270.413 450 270.413C446.715 270.413 443.995 267.865 443.779 264.588L432.951 99.6103Z" fill="#1F2E7E" fill-opacity="0.2"/>
</g>
<g filter="url(#filter3_i_1037_603)">
<path d="M99.6103 467.049C89.755 467.696 81.4055 459.877 81.4055 450C81.4055 440.124 89.755 432.304 99.6103 432.951L264.588 443.78C267.865 443.995 270.413 446.716 270.413 450C270.413 453.285 267.865 456.006 264.588 456.221L99.6103 467.049Z" fill="url(#paint3_linear_1037_603)"/>
<path d="M99.6103 467.049C89.755 467.696 81.4055 459.877 81.4055 450C81.4055 440.124 89.755 432.304 99.6103 432.951L264.588 443.78C267.865 443.995 270.413 446.716 270.413 450C270.413 453.285 267.865 456.006 264.588 456.221L99.6103 467.049Z" fill="#1F2E7E" fill-opacity="0.2"/>
</g>
<g filter="url(#filter4_i_1037_603)">
<path d="M800.39 432.951C810.245 432.304 818.595 440.124 818.595 450C818.595 459.877 810.245 467.696 800.39 467.049L635.413 456.221C632.135 456.005 629.587 453.284 629.587 450C629.587 446.716 632.135 443.995 635.413 443.78L800.39 432.951Z" fill="url(#paint4_linear_1037_603)"/>
<path d="M800.39 432.951C810.245 432.304 818.595 440.124 818.595 450C818.595 459.877 810.245 467.696 800.39 467.049L635.413 456.221C632.135 456.005 629.587 453.284 629.587 450C629.587 446.716 632.135 443.995 635.413 443.78L800.39 432.951Z" fill="#1F2E7E" fill-opacity="0.2"/>
</g>
<g filter="url(#filter5_i_1037_603)">
<path d="M426.542 217.417C434.6 195.641 465.4 195.641 473.458 217.417L491.358 265.792C515.847 331.973 568.027 384.153 634.207 408.642L682.583 426.542C704.359 434.6 704.359 465.4 682.583 473.458L634.208 491.358C568.027 515.847 515.847 568.027 491.358 634.207L473.458 682.583C465.4 704.359 434.6 704.359 426.542 682.583L408.642 634.208C384.153 568.027 331.973 515.847 265.792 491.358L217.417 473.458C195.641 465.4 195.641 434.6 217.417 426.542L265.792 408.642C331.973 384.153 384.153 331.973 408.642 265.792L426.542 217.417Z" fill="url(#paint5_linear_1037_603)"/>
<path d="M426.542 217.417C434.6 195.641 465.4 195.641 473.458 217.417L491.358 265.792C515.847 331.973 568.027 384.153 634.207 408.642L682.583 426.542C704.359 434.6 704.359 465.4 682.583 473.458L634.208 491.358C568.027 515.847 515.847 568.027 491.358 634.207L473.458 682.583C465.4 704.359 434.6 704.359 426.542 682.583L408.642 634.208C384.153 568.027 331.973 515.847 265.792 491.358L217.417 473.458C195.641 465.4 195.641 434.6 217.417 426.542L265.792 408.642C331.973 384.153 384.153 331.973 408.642 265.792L426.542 217.417Z" fill="#1F2E7E" fill-opacity="0.2"/>
</g>
<g filter="url(#filter6_i_1037_603)">
<rect x="182.822" y="639.675" width="112.554" height="112.554" rx="25.0121" transform="rotate(-45 182.822 639.675)" fill="url(#paint6_linear_1037_603)"/>
<rect x="182.822" y="639.675" width="112.554" height="112.554" rx="25.0121" transform="rotate(-45 182.822 639.675)" fill="#1F2E7E" fill-opacity="0.2"/>
</g>
<g filter="url(#filter7_i_1037_603)">
<rect x="549.665" y="272.831" width="112.554" height="112.554" rx="25.0121" transform="rotate(-45 549.665 272.831)" fill="url(#paint7_linear_1037_603)"/>
<rect x="549.665" y="272.831" width="112.554" height="112.554" rx="25.0121" transform="rotate(-45 549.665 272.831)" fill="#1F2E7E" fill-opacity="0.2"/>
</g>
<line x1="180.505" y1="179.259" x2="722.433" y2="717.784" stroke="url(#paint8_linear_1037_603)" stroke-width="4.16868"/>
<line x1="178.411" y1="718.641" x2="718.641" y2="178.411" stroke="url(#paint9_linear_1037_603)" stroke-width="4.16868"/>
<line x1="447.916" y1="832" x2="447.916" y2="67.9999" stroke="url(#paint10_linear_1037_603)" stroke-width="4.16868"/>
<line x1="832" y1="445.831" x2="67.9999" y2="445.831" stroke="url(#paint11_linear_1037_603)" stroke-width="4.16868"/>
<g filter="url(#filter8_i_1037_603)">
<circle cx="450" cy="450" r="87.5423" fill="url(#paint12_linear_1037_603)"/>
<circle cx="450" cy="450" r="87.5423" fill="#1F2E7E" fill-opacity="0.2"/>
</g>
<g filter="url(#filter9_i_1037_603)">
<circle cx="218.118" cy="320.25" r="42.208" fill="url(#paint13_linear_1037_603)"/>
<circle cx="218.118" cy="320.25" r="42.208" fill="#1F2E7E" fill-opacity="0.2"/>
</g>
<g filter="url(#filter10_i_1037_603)">
<circle cx="697.023" cy="583.179" r="23.092" fill="url(#paint14_linear_1037_603)"/>
<circle cx="697.023" cy="583.179" r="23.092" fill="#1F2E7E" fill-opacity="0.2"/>
</g>
</g>
<defs>
<filter id="filter0_i_1037_603" x="129.012" y="129.012" width="641.977" height="677.251" filterUnits="userSpaceOnUse" color-interpolation-filters="sRGB">
<feFlood flood-opacity="0" result="BackgroundImageFix"/>
<feBlend mode="normal" in="SourceGraphic" in2="BackgroundImageFix" result="shape"/>
<feColorMatrix in="SourceAlpha" type="matrix" values="0 0 0 0 0 0 0 0 0 0 0 0 0 0 0 0 0 0 127 0" result="hardAlpha"/>
<feOffset dy="35.2748"/>
<feGaussianBlur stdDeviation="43.9155"/>
<feComposite in2="hardAlpha" operator="arithmetic" k2="-1" k3="1"/>
<feColorMatrix type="matrix" values="0 0 0 0 1 0 0 0 0 1 0 0 0 0 1 0 0 0 0.8 0"/>
<feBlend mode="lighten" in2="shape" result="effect1_innerShadow_1037_603"/>
</filter>
<filter id="filter1_i_1037_603" x="432.913" y="629.587" width="34.1731" height="197.476" filterUnits="userSpaceOnUse" color-interpolation-filters="sRGB">
<feFlood flood-opacity="0" result="BackgroundImageFix"/>
<feBlend mode="normal" in="SourceGraphic" in2="BackgroundImageFix" result="shape"/>
<feColorMatrix in="SourceAlpha" type="matrix" values="0 0 0 0 0 0 0 0 0 0 0 0 0 0 0 0 0 0 127 0" result="hardAlpha"/>
<feOffset dy="8.46814"/>
<feGaussianBlur stdDeviation="6.87986"/>
<feComposite in2="hardAlpha" operator="arithmetic" k2="-1" k3="1"/>
<feColorMatrix type="matrix" values="0 0 0 0 1 0 0 0 0 1 0 0 0 0 1 0 0 0 0.8 0"/>
<feBlend mode="lighten" in2="shape" result="effect1_innerShadow_1037_603"/>
</filter>
<filter id="filter2_i_1037_603" x="432.913" y="81.4055" width="34.1731" height="197.476" filterUnits="userSpaceOnUse" color-interpolation-filters="sRGB">
<feFlood flood-opacity="0" result="BackgroundImageFix"/>
<feBlend mode="normal" in="SourceGraphic" in2="BackgroundImageFix" result="shape"/>
<feColorMatrix in="SourceAlpha" type="matrix" values="0 0 0 0 0 0 0 0 0 0 0 0 0 0 0 0 0 0 127 0" result="hardAlpha"/>
<feOffset dy="8.46814"/>
<feGaussianBlur stdDeviation="6.87986"/>
<feComposite in2="hardAlpha" operator="arithmetic" k2="-1" k3="1"/>
<feColorMatrix type="matrix" values="0 0 0 0 1 0 0 0 0 1 0 0 0 0 1 0 0 0 0.8 0"/>
<feBlend mode="lighten" in2="shape" result="effect1_innerShadow_1037_603"/>
</filter>
<filter id="filter3_i_1037_603" x="81.4055" y="432.914" width="189.008" height="42.6412" filterUnits="userSpaceOnUse" color-interpolation-filters="sRGB">
<feFlood flood-opacity="0" result="BackgroundImageFix"/>
<feBlend mode="normal" in="SourceGraphic" in2="BackgroundImageFix" result="shape"/>
<feColorMatrix in="SourceAlpha" type="matrix" values="0 0 0 0 0 0 0 0 0 0 0 0 0 0 0 0 0 0 127 0" result="hardAlpha"/>
<feOffset dy="8.46814"/>
<feGaussianBlur stdDeviation="6.87986"/>
<feComposite in2="hardAlpha" operator="arithmetic" k2="-1" k3="1"/>
<feColorMatrix type="matrix" values="0 0 0 0 1 0 0 0 0 1 0 0 0 0 1 0 0 0 0.8 0"/>
<feBlend mode="lighten" in2="shape" result="effect1_innerShadow_1037_603"/>
</filter>
<filter id="filter4_i_1037_603" x="629.587" y="432.914" width="189.008" height="42.6412" filterUnits="userSpaceOnUse" color-interpolation-filters="sRGB">
<feFlood flood-opacity="0" result="BackgroundImageFix"/>
<feBlend mode="normal" in="SourceGraphic" in2="BackgroundImageFix" result="shape"/>
<feColorMatrix in="SourceAlpha" type="matrix" values="0 0 0 0 0 0 0 0 0 0 0 0 0 0 0 0 0 0 127 0" result="hardAlpha"/>
<feOffset dy="8.46814"/>
<feGaussianBlur stdDeviation="6.87986"/>
<feComposite in2="hardAlpha" operator="arithmetic" k2="-1" k3="1"/>
<feColorMatrix type="matrix" values="0 0 0 0 1 0 0 0 0 1 0 0 0 0 1 0 0 0 0.8 0"/>
<feBlend mode="lighten" in2="shape" result="effect1_innerShadow_1037_603"/>
</filter>
<filter id="filter5_i_1037_603" x="201.085" y="201.085" width="497.83" height="522.017" filterUnits="userSpaceOnUse" color-interpolation-filters="sRGB">
<feFlood flood-opacity="0" result="BackgroundImageFix"/>
<feBlend mode="normal" in="SourceGraphic" in2="BackgroundImageFix" result="shape"/>
<feColorMatrix in="SourceAlpha" type="matrix" values="0 0 0 0 0 0 0 0 0 0 0 0 0 0 0 0 0 0 127 0" result="hardAlpha"/>
<feOffset dy="24.1867"/>
<feGaussianBlur stdDeviation="19.6503"/>
<feComposite in2="hardAlpha" operator="arithmetic" k2="-1" k3="1"/>
<feColorMatrix type="matrix" values="0 0 0 0 1 0 0 0 0 1 0 0 0 0 1 0 0 0 0.8 0"/>
<feBlend mode="lighten" in2="shape" result="effect1_innerShadow_1037_603"/>
</filter>
<filter id="filter6_i_1037_603" x="193.182" y="570.447" width="138.455" height="162.642" filterUnits="userSpaceOnUse" color-interpolation-filters="sRGB">
<feFlood flood-opacity="0" result="BackgroundImageFix"/>
<feBlend mode="normal" in="SourceGraphic" in2="BackgroundImageFix" result="shape"/>
<feColorMatrix in="SourceAlpha" type="matrix" values="0 0 0 0 0 0 0 0 0 0 0 0 0 0 0 0 0 0 127 0" result="hardAlpha"/>
<feOffset dy="24.1867"/>
<feGaussianBlur stdDeviation="19.6503"/>
<feComposite in2="hardAlpha" operator="arithmetic" k2="-1" k3="1"/>
<feColorMatrix type="matrix" values="0 0 0 0 1 0 0 0 0 1 0 0 0 0 1 0 0 0 0.8 0"/>
<feBlend mode="lighten" in2="shape" result="effect1_innerShadow_1037_603"/>
</filter>
<filter id="filter7_i_1037_603" x="560.026" y="203.603" width="138.455" height="162.642" filterUnits="userSpaceOnUse" color-interpolation-filters="sRGB">
<feFlood flood-opacity="0" result="BackgroundImageFix"/>
<feBlend mode="normal" in="SourceGraphic" in2="BackgroundImageFix" result="shape"/>
<feColorMatrix in="SourceAlpha" type="matrix" values="0 0 0 0 0 0 0 0 0 0 0 0 0 0 0 0 0 0 127 0" result="hardAlpha"/>
<feOffset dy="24.1867"/>
<feGaussianBlur stdDeviation="19.6503"/>
<feComposite in2="hardAlpha" operator="arithmetic" k2="-1" k3="1"/>
<feColorMatrix type="matrix" values="0 0 0 0 1 0 0 0 0 1 0 0 0 0 1 0 0 0 0.8 0"/>
<feBlend mode="lighten" in2="shape" result="effect1_innerShadow_1037_603"/>
</filter>
<filter id="filter8_i_1037_603" x="362.458" y="362.458" width="175.084" height="199.271" filterUnits="userSpaceOnUse" color-interpolation-filters="sRGB">
<feFlood flood-opacity="0" result="BackgroundImageFix"/>
<feBlend mode="normal" in="SourceGraphic" in2="BackgroundImageFix" result="shape"/>
<feColorMatrix in="SourceAlpha" type="matrix" values="0 0 0 0 0 0 0 0 0 0 0 0 0 0 0 0 0 0 127 0" result="hardAlpha"/>
<feOffset dy="24.1867"/>
<feGaussianBlur stdDeviation="19.6503"/>
<feComposite in2="hardAlpha" operator="arithmetic" k2="-1" k3="1"/>
<feColorMatrix type="matrix" values="0 0 0 0 1 0 0 0 0 1 0 0 0 0 1 0 0 0 0.8 0"/>
<feBlend mode="lighten" in2="shape" result="effect1_innerShadow_1037_603"/>
</filter>
<filter id="filter9_i_1037_603" x="175.91" y="278.042" width="84.416" height="108.603" filterUnits="userSpaceOnUse" color-interpolation-filters="sRGB">
<feFlood flood-opacity="0" result="BackgroundImageFix"/>
<feBlend mode="normal" in="SourceGraphic" in2="BackgroundImageFix" result="shape"/>
<feColorMatrix in="SourceAlpha" type="matrix" values="0 0 0 0 0 0 0 0 0 0 0 0 0 0 0 0 0 0 127 0" result="hardAlpha"/>
<feOffset dy="24.1867"/>
<feGaussianBlur stdDeviation="19.6503"/>
<feComposite in2="hardAlpha" operator="arithmetic" k2="-1" k3="1"/>
<feColorMatrix type="matrix" values="0 0 0 0 1 0 0 0 0 1 0 0 0 0 1 0 0 0 0.8 0"/>
<feBlend mode="lighten" in2="shape" result="effect1_innerShadow_1037_603"/>
</filter>
<filter id="filter10_i_1037_603" x="673.931" y="560.087" width="46.1838" height="59.4164" filterUnits="userSpaceOnUse" color-interpolation-filters="sRGB">
<feFlood flood-opacity="0" result="BackgroundImageFix"/>
<feBlend mode="normal" in="SourceGraphic" in2="BackgroundImageFix" result="shape"/>
<feColorMatrix in="SourceAlpha" type="matrix" values="0 0 0 0 0 0 0 0 0 0 0 0 0 0 0 0 0 0 127 0" result="hardAlpha"/>
<feOffset dy="13.2325"/>
<feGaussianBlur stdDeviation="10.7506"/>
<feComposite in2="hardAlpha" operator="arithmetic" k2="-1" k3="1"/>
<feColorMatrix type="matrix" values="0 0 0 0 1 0 0 0 0 1 0 0 0 0 1 0 0 0 0.8 0"/>
<feBlend mode="lighten" in2="shape" result="effect1_innerShadow_1037_603"/>
</filter>
<linearGradient id="paint0_linear_1037_603" x1="617.763" y1="68" x2="793.293" y2="789.283" gradientUnits="userSpaceOnUse">
<stop/>
<stop offset="1" stop-opacity="0"/>
</linearGradient>
<linearGradient id="paint1_linear_1037_603" x1="456.519" y1="900.733" x2="394.469" y2="882.956" gradientUnits="userSpaceOnUse">
<stop stop-color="#949494"/>
<stop offset="0.635171" stop-color="#181818"/>
<stop offset="1" stop-color="#1D1D1D"/>
</linearGradient>
<linearGradient id="paint2_linear_1037_603" x1="443.481" y1="-0.732654" x2="505.531" y2="17.0442" gradientUnits="userSpaceOnUse">
<stop stop-color="#949494"/>
<stop offset="0.635171" stop-color="#181818"/>
<stop offset="1" stop-color="#1D1D1D"/>
</linearGradient>
<linearGradient id="paint3_linear_1037_603" x1="-0.732652" y1="456.519" x2="17.0442" y2="394.469" gradientUnits="userSpaceOnUse">
<stop stop-color="#949494"/>
<stop offset="0.635171" stop-color="#181818"/>
<stop offset="1" stop-color="#1D1D1D"/>
</linearGradient>
<linearGradient id="paint4_linear_1037_603" x1="900.733" y1="443.481" x2="882.956" y2="505.531" gradientUnits="userSpaceOnUse">
<stop stop-color="#949494"/>
<stop offset="0.635171" stop-color="#181818"/>
<stop offset="1" stop-color="#1D1D1D"/>
</linearGradient>
<linearGradient id="paint5_linear_1037_603" x1="344.242" y1="-103.225" x2="684.392" y2="401.566" gradientUnits="userSpaceOnUse">
<stop stop-color="#949494"/>
<stop offset="0.635171" stop-color="#181818"/>
<stop offset="1" stop-color="#1D1D1D"/>
</linearGradient>
<linearGradient id="paint6_linear_1037_603" x1="218.99" y1="590.761" x2="283.666" y2="686.743" gradientUnits="userSpaceOnUse">
<stop stop-color="#949494"/>
<stop offset="0.635171" stop-color="#181818"/>
<stop offset="1" stop-color="#1D1D1D"/>
</linearGradient>
<linearGradient id="paint7_linear_1037_603" x1="585.834" y1="223.918" x2="650.51" y2="319.899" gradientUnits="userSpaceOnUse">
<stop stop-color="#949494"/>
<stop offset="0.635171" stop-color="#181818"/>
<stop offset="1" stop-color="#1D1D1D"/>
</linearGradient>
<linearGradient id="paint8_linear_1037_603" x1="196.697" y1="197.902" x2="195.492" y2="199.125" gradientUnits="userSpaceOnUse">
<stop stop-color="#949494"/>
<stop offset="0.635171" stop-color="#181818"/>
<stop offset="1" stop-color="#1D1D1D"/>
</linearGradient>
<linearGradient id="paint9_linear_1037_603" x1="197.106" y1="702.508" x2="198.325" y2="703.716" gradientUnits="userSpaceOnUse">
<stop stop-color="#949494"/>
<stop offset="0.635171" stop-color="#181818"/>
<stop offset="1" stop-color="#1D1D1D"/>
</linearGradient>
<linearGradient id="paint10_linear_1037_603" x1="449.727" y1="807.373" x2="451.443" y2="807.366" gradientUnits="userSpaceOnUse">
<stop stop-color="#949494"/>
<stop offset="0.635171" stop-color="#181818"/>
<stop offset="1" stop-color="#1D1D1D"/>
</linearGradient>
<linearGradient id="paint11_linear_1037_603" x1="807.373" y1="444.02" x2="807.366" y2="442.304" gradientUnits="userSpaceOnUse">
<stop stop-color="#949494"/>
<stop offset="0.635171" stop-color="#181818"/>
<stop offset="1" stop-color="#1D1D1D"/>
</linearGradient>
<linearGradient id="paint12_linear_1037_603" x1="418.72" y1="286.37" x2="519.327" y2="435.675" gradientUnits="userSpaceOnUse">
<stop stop-color="#949494"/>
<stop offset="0.635171" stop-color="#181818"/>
<stop offset="1" stop-color="#1D1D1D"/>
</linearGradient>
<linearGradient id="paint13_linear_1037_603" x1="203.036" y1="241.357" x2="251.543" y2="313.343" gradientUnits="userSpaceOnUse">
<stop stop-color="#949494"/>
<stop offset="0.635171" stop-color="#181818"/>
<stop offset="1" stop-color="#1D1D1D"/>
</linearGradient>
<linearGradient id="paint14_linear_1037_603" x1="688.772" y1="540.017" x2="715.31" y2="579.4" gradientUnits="userSpaceOnUse">
<stop stop-color="#949494"/>
<stop offset="0.635171" stop-color="#181818"/>
<stop offset="1" stop-color="#1D1D1D"/>
</linearGradient>
</defs>
</svg>
