<svg width="900" height="900" viewBox="0 0 900 900" fill="none" xmlns="http://www.w3.org/2000/svg">
<g clip-path="url(#clip0_1037_605)">
<mask id="mask0_1037_605" style="mask-type:alpha" maskUnits="userSpaceOnUse" x="-93" y="316" width="909" height="418">
<path d="M17.1461 734H-92.9026V648.92H-10.5973L65.2346 593.434H347.292L432.372 316H816V401.08H495.257L410.177 678.513H92.9779L17.1461 734Z" fill="url(#paint0_linear_1037_605)"/>
</mask>
<g mask="url(#mask0_1037_605)">
<g filter="url(#filter0_ii_1037_605)">
<path d="M17.1461 734H-92.9026V648.92H-10.5973L58.9052 598.065C63.0178 595.056 67.9814 593.434 73.0774 593.434H329.549C340.093 593.434 349.403 586.551 352.494 576.47L427.17 332.963C430.261 322.882 439.57 316 450.115 316H816V401.08H513C502.456 401.08 493.146 407.962 490.055 418.043L415.379 661.55C412.288 671.631 402.978 678.513 392.434 678.513H100.821C95.7248 678.513 90.7611 680.135 86.6485 683.145L17.1461 734Z" fill="url(#paint1_radial_1037_605)"/>
<path d="M17.1461 734H-92.9026V648.92H-10.5973L58.9052 598.065C63.0178 595.056 67.9814 593.434 73.0774 593.434H329.549C340.093 593.434 349.403 586.551 352.494 576.47L427.17 332.963C430.261 322.882 439.57 316 450.115 316H816V401.08H513C502.456 401.08 493.146 407.962 490.055 418.043L415.379 661.55C412.288 671.631 402.978 678.513 392.434 678.513H100.821C95.7248 678.513 90.7611 680.135 86.6485 683.145L17.1461 734Z" fill="#1F2E7E" fill-opacity="0.2"/>
</g>
</g>
<mask id="mask1_1037_605" style="mask-type:alpha" maskUnits="userSpaceOnUse" x="-96" y="128" width="908" height="418">
<path d="M546.256 128L812 128L812 213.08L574 213.08L498.168 268.566L383.61 268.566L298.531 546L-96 546L-96 460.92L235.646 460.92L320.725 183.487L470.424 183.487L546.256 128Z" fill="url(#paint2_linear_1037_605)"/>
</mask>
<g mask="url(#mask1_1037_605)">
<g filter="url(#filter1_ii_1037_605)">
<path d="M546.256 128L812 128L812 213.08L574 213.08L504.497 263.935C500.385 266.944 495.421 268.566 490.325 268.566L401.353 268.566C390.809 268.566 381.5 275.449 378.408 285.53L303.733 529.036C300.642 539.117 291.332 546 280.788 546L-96 546L-96 460.92L217.903 460.92C228.447 460.92 237.757 454.038 240.848 443.957L315.523 200.45C318.615 190.369 327.924 183.487 338.469 183.487L462.582 183.487C467.678 183.487 472.641 181.865 476.754 178.855L546.256 128Z" fill="url(#paint3_radial_1037_605)"/>
<path d="M546.256 128L812 128L812 213.08L574 213.08L504.497 263.935C500.385 266.944 495.421 268.566 490.325 268.566L401.353 268.566C390.809 268.566 381.5 275.449 378.408 285.53L303.733 529.036C300.642 539.117 291.332 546 280.788 546L-96 546L-96 460.92L217.903 460.92C228.447 460.92 237.757 454.038 240.848 443.957L315.523 200.45C318.615 190.369 327.924 183.487 338.469 183.487L462.582 183.487C467.678 183.487 472.641 181.865 476.754 178.855L546.256 128Z" fill="#1F2E7E" fill-opacity="0.2"/>
</g>
</g>
<mask id="mask2_1037_605" style="mask-type:alpha" maskUnits="userSpaceOnUse" x="294" y="454" width="524" height="363">
<path d="M444.194 731.434H294L294 816.513H507.079L592.159 539.08L817.806 539.08V454H529.274L444.194 731.434Z" fill="url(#paint4_linear_1037_605)"/>
</mask>
<g mask="url(#mask2_1037_605)">
<g filter="url(#filter2_ii_1037_605)">
<path d="M426.451 731.434H294L294 816.513H489.336C499.881 816.513 509.19 809.631 512.282 799.55L586.957 556.043C590.049 545.962 599.358 539.08 609.902 539.08L817.806 539.08V454H547.017C536.473 454 527.164 460.882 524.072 470.963L449.396 714.47C446.305 724.551 436.996 731.434 426.451 731.434Z" fill="url(#paint5_radial_1037_605)"/>
<path d="M426.451 731.434H294L294 816.513H489.336C499.881 816.513 509.19 809.631 512.282 799.55L586.957 556.043C590.049 545.962 599.358 539.08 609.902 539.08L817.806 539.08V454H547.017C536.473 454 527.164 460.882 524.072 470.963L449.396 714.47C446.305 724.551 436.996 731.434 426.451 731.434Z" fill="#1F2E7E" fill-opacity="0.2"/>
</g>
</g>
</g>
<defs>
<filter id="filter0_ii_1037_605" x="-111.254" y="316" width="953.604" height="450.115" filterUnits="userSpaceOnUse" color-interpolation-filters="sRGB">
<feFlood flood-opacity="0" result="BackgroundImageFix"/>
<feBlend mode="normal" in="SourceGraphic" in2="BackgroundImageFix" result="shape"/>
<feColorMatrix in="SourceAlpha" type="matrix" values="0 0 0 0 0 0 0 0 0 0 0 0 0 0 0 0 0 0 127 0" result="hardAlpha"/>
<feOffset dx="-18.3516" dy="32.1153"/>
<feGaussianBlur stdDeviation="38.9971"/>
<feComposite in2="hardAlpha" operator="arithmetic" k2="-1" k3="1"/>
<feColorMatrix type="matrix" values="0 0 0 0 1 0 0 0 0 1 0 0 0 0 1 0 0 0 0.87 0"/>
<feBlend mode="lighten" in2="shape" result="effect1_innerShadow_1037_605"/>
<feColorMatrix in="SourceAlpha" type="matrix" values="0 0 0 0 0 0 0 0 0 0 0 0 0 0 0 0 0 0 127 0" result="hardAlpha"/>
<feOffset dx="26.3494" dy="15.3705"/>
<feGaussianBlur stdDeviation="15.3705"/>
<feComposite in2="hardAlpha" operator="arithmetic" k2="-1" k3="1"/>
<feColorMatrix type="matrix" values="0 0 0 0 0.168627 0 0 0 0 0.180392 0 0 0 0 0.239216 0 0 0 0.9 0"/>
<feBlend mode="multiply" in2="effect1_innerShadow_1037_605" result="effect2_innerShadow_1037_605"/>
</filter>
<filter id="filter1_ii_1037_605" x="-114.352" y="128" width="952.701" height="450.115" filterUnits="userSpaceOnUse" color-interpolation-filters="sRGB">
<feFlood flood-opacity="0" result="BackgroundImageFix"/>
<feBlend mode="normal" in="SourceGraphic" in2="BackgroundImageFix" result="shape"/>
<feColorMatrix in="SourceAlpha" type="matrix" values="0 0 0 0 0 0 0 0 0 0 0 0 0 0 0 0 0 0 127 0" result="hardAlpha"/>
<feOffset dx="-18.3516" dy="32.1153"/>
<feGaussianBlur stdDeviation="38.9971"/>
<feComposite in2="hardAlpha" operator="arithmetic" k2="-1" k3="1"/>
<feColorMatrix type="matrix" values="0 0 0 0 1 0 0 0 0 1 0 0 0 0 1 0 0 0 0.87 0"/>
<feBlend mode="lighten" in2="shape" result="effect1_innerShadow_1037_605"/>
<feColorMatrix in="SourceAlpha" type="matrix" values="0 0 0 0 0 0 0 0 0 0 0 0 0 0 0 0 0 0 127 0" result="hardAlpha"/>
<feOffset dx="26.3494" dy="15.3705"/>
<feGaussianBlur stdDeviation="15.3705"/>
<feComposite in2="hardAlpha" operator="arithmetic" k2="-1" k3="1"/>
<feColorMatrix type="matrix" values="0 0 0 0 0.168627 0 0 0 0 0.180392 0 0 0 0 0.239216 0 0 0 0.9 0"/>
<feBlend mode="multiply" in2="effect1_innerShadow_1037_605" result="effect2_innerShadow_1037_605"/>
</filter>
<filter id="filter2_ii_1037_605" x="275.648" y="454" width="568.507" height="394.629" filterUnits="userSpaceOnUse" color-interpolation-filters="sRGB">
<feFlood flood-opacity="0" result="BackgroundImageFix"/>
<feBlend mode="normal" in="SourceGraphic" in2="BackgroundImageFix" result="shape"/>
<feColorMatrix in="SourceAlpha" type="matrix" values="0 0 0 0 0 0 0 0 0 0 0 0 0 0 0 0 0 0 127 0" result="hardAlpha"/>
<feOffset dx="-18.3516" dy="32.1153"/>
<feGaussianBlur stdDeviation="38.9971"/>
<feComposite in2="hardAlpha" operator="arithmetic" k2="-1" k3="1"/>
<feColorMatrix type="matrix" values="0 0 0 0 1 0 0 0 0 1 0 0 0 0 1 0 0 0 0.87 0"/>
<feBlend mode="lighten" in2="shape" result="effect1_innerShadow_1037_605"/>
<feColorMatrix in="SourceAlpha" type="matrix" values="0 0 0 0 0 0 0 0 0 0 0 0 0 0 0 0 0 0 127 0" result="hardAlpha"/>
<feOffset dx="26.3494" dy="15.3705"/>
<feGaussianBlur stdDeviation="15.3705"/>
<feComposite in2="hardAlpha" operator="arithmetic" k2="-1" k3="1"/>
<feColorMatrix type="matrix" values="0 0 0 0 0.168627 0 0 0 0 0.180392 0 0 0 0 0.239216 0 0 0 0.9 0"/>
<feBlend mode="multiply" in2="effect1_innerShadow_1037_605" result="effect2_innerShadow_1037_605"/>
</filter>
<linearGradient id="paint0_linear_1037_605" x1="38" y1="480.867" x2="506.169" y2="554.353" gradientUnits="userSpaceOnUse">
<stop offset="0.119214" stop-opacity="0"/>
<stop offset="1"/>
</linearGradient>
<radialGradient id="paint1_radial_1037_605" cx="0" cy="0" r="1" gradientUnits="userSpaceOnUse" gradientTransform="translate(182.878 281.885) rotate(84.5848) scale(149.547 751.959)">
<stop stop-color="#949494"/>
<stop offset="0.635171" stop-color="#181818"/>
<stop offset="1" stop-color="#1D1D1D"/>
</radialGradient>
<linearGradient id="paint2_linear_1037_605" x1="758" y1="381.133" x2="215.343" y2="296.04" gradientUnits="userSpaceOnUse">
<stop offset="0.119214" stop-opacity="0"/>
<stop offset="1"/>
</linearGradient>
<radialGradient id="paint3_radial_1037_605" cx="0" cy="0" r="1" gradientUnits="userSpaceOnUse" gradientTransform="translate(661.122 580.115) rotate(-95.4152) scale(149.547 751.959)">
<stop stop-color="#949494"/>
<stop offset="0.635171" stop-color="#181818"/>
<stop offset="1" stop-color="#1D1D1D"/>
</radialGradient>
<linearGradient id="paint4_linear_1037_605" x1="536" y1="876" x2="692" y2="494" gradientUnits="userSpaceOnUse">
<stop offset="0.119214" stop-opacity="0"/>
<stop offset="0.546875" stop-opacity="0.485545"/>
<stop offset="1"/>
</linearGradient>
<radialGradient id="paint5_radial_1037_605" cx="0" cy="0" r="1" gradientUnits="userSpaceOnUse" gradientTransform="translate(351.103 424.413) rotate(84.5837) scale(129.696 652.276)">
<stop stop-color="#949494"/>
<stop offset="0.635171" stop-color="#181818"/>
<stop offset="1" stop-color="#1D1D1D"/>
</radialGradient>
<clipPath id="clip0_1037_605">
<rect width="900" height="900" fill="white"/>
</clipPath>
</defs>
</svg>
