<svg width="900" height="900" viewBox="0 0 900 900" fill="none" xmlns="http://www.w3.org/2000/svg">
<mask id="mask0_1037_599" style="mask-type:alpha" maskUnits="userSpaceOnUse" x="113" y="113" width="674" height="674">
<circle cx="450" cy="450" r="337" fill="url(#paint0_linear_1037_599)"/>
</mask>
<g mask="url(#mask0_1037_599)">
<g filter="url(#filter0_ii_1037_599)">
<path d="M647.752 450C647.752 559.215 559.215 647.752 450 647.752C340.785 647.752 252.248 559.215 252.248 450C252.248 340.785 340.785 252.248 450 252.248C559.215 252.248 647.752 340.785 647.752 450ZM342.076 450C342.076 509.605 390.395 557.924 450 557.924C509.605 557.924 557.924 509.605 557.924 450C557.924 390.395 509.605 342.076 450 342.076C390.395 342.076 342.076 390.395 342.076 450Z" fill="url(#paint1_linear_1037_599)"/>
<path d="M647.752 450C647.752 559.215 559.215 647.752 450 647.752C340.785 647.752 252.248 559.215 252.248 450C252.248 340.785 340.785 252.248 450 252.248C559.215 252.248 647.752 340.785 647.752 450ZM342.076 450C342.076 509.605 390.395 557.924 450 557.924C509.605 557.924 557.924 509.605 557.924 450C557.924 390.395 509.605 342.076 450 342.076C390.395 342.076 342.076 390.395 342.076 450Z" fill="#1F2E7E" fill-opacity="0.2"/>
</g>
<g filter="url(#filter1_ii_1037_599)">
<path d="M518.174 450C518.174 487.651 487.651 518.174 450 518.174C412.349 518.174 381.826 487.651 381.826 450C381.826 412.349 412.349 381.826 450 381.826C487.651 381.826 518.174 412.349 518.174 450ZM412.794 450C412.794 470.548 429.452 487.206 450 487.206C470.548 487.206 487.206 470.548 487.206 450C487.206 429.452 470.548 412.794 450 412.794C429.452 412.794 412.794 429.452 412.794 450Z" fill="url(#paint2_linear_1037_599)"/>
<path d="M518.174 450C518.174 487.651 487.651 518.174 450 518.174C412.349 518.174 381.826 487.651 381.826 450C381.826 412.349 412.349 381.826 450 381.826C487.651 381.826 518.174 412.349 518.174 450ZM412.794 450C412.794 470.548 429.452 487.206 450 487.206C470.548 487.206 487.206 470.548 487.206 450C487.206 429.452 470.548 412.794 450 412.794C429.452 412.794 412.794 429.452 412.794 450Z" fill="#1F2E7E" fill-opacity="0.2"/>
</g>
<g filter="url(#filter2_iif_1037_599)">
<path d="M787 450C787 636.12 636.12 787 450 787C263.88 787 113 636.12 113 450C113 263.88 263.88 113 450 113C636.12 113 787 263.88 787 450ZM186.911 450C186.911 595.3 304.7 713.089 450 713.089C595.3 713.089 713.089 595.3 713.089 450C713.089 304.7 595.3 186.911 450 186.911C304.7 186.911 186.911 304.7 186.911 450Z" fill="url(#paint3_linear_1037_599)"/>
<path d="M787 450C787 636.12 636.12 787 450 787C263.88 787 113 636.12 113 450C113 263.88 263.88 113 450 113C636.12 113 787 263.88 787 450ZM186.911 450C186.911 595.3 304.7 713.089 450 713.089C595.3 713.089 713.089 595.3 713.089 450C713.089 304.7 595.3 186.911 450 186.911C304.7 186.911 186.911 304.7 186.911 450Z" fill="#1F2E7E" fill-opacity="0.2"/>
</g>
</g>
<defs>
<filter id="filter0_ii_1037_599" x="252.248" y="252.248" width="408.244" height="418.712" filterUnits="userSpaceOnUse" color-interpolation-filters="sRGB">
<feFlood flood-opacity="0" result="BackgroundImageFix"/>
<feBlend mode="normal" in="SourceGraphic" in2="BackgroundImageFix" result="shape"/>
<feColorMatrix in="SourceAlpha" type="matrix" values="0 0 0 0 0 0 0 0 0 0 0 0 0 0 0 0 0 0 127 0" result="hardAlpha"/>
<feOffset dy="23.208"/>
<feGaussianBlur stdDeviation="18.8551"/>
<feComposite in2="hardAlpha" operator="arithmetic" k2="-1" k3="1"/>
<feColorMatrix type="matrix" values="0 0 0 0 1 0 0 0 0 1 0 0 0 0 1 0 0 0 0.8 0"/>
<feBlend mode="lighten" in2="shape" result="effect1_innerShadow_1037_599"/>
<feColorMatrix in="SourceAlpha" type="matrix" values="0 0 0 0 0 0 0 0 0 0 0 0 0 0 0 0 0 0 127 0" result="hardAlpha"/>
<feOffset dx="12.74" dy="7.43165"/>
<feGaussianBlur stdDeviation="7.43165"/>
<feComposite in2="hardAlpha" operator="arithmetic" k2="-1" k3="1"/>
<feColorMatrix type="matrix" values="0 0 0 0 0.168627 0 0 0 0 0.180392 0 0 0 0 0.239216 0 0 0 0.9 0"/>
<feBlend mode="multiply" in2="effect1_innerShadow_1037_599" result="effect2_innerShadow_1037_599"/>
</filter>
<filter id="filter1_ii_1037_599" x="381.826" y="381.826" width="149.087" height="159.555" filterUnits="userSpaceOnUse" color-interpolation-filters="sRGB">
<feFlood flood-opacity="0" result="BackgroundImageFix"/>
<feBlend mode="normal" in="SourceGraphic" in2="BackgroundImageFix" result="shape"/>
<feColorMatrix in="SourceAlpha" type="matrix" values="0 0 0 0 0 0 0 0 0 0 0 0 0 0 0 0 0 0 127 0" result="hardAlpha"/>
<feOffset dy="23.208"/>
<feGaussianBlur stdDeviation="18.8551"/>
<feComposite in2="hardAlpha" operator="arithmetic" k2="-1" k3="1"/>
<feColorMatrix type="matrix" values="0 0 0 0 1 0 0 0 0 1 0 0 0 0 1 0 0 0 0.8 0"/>
<feBlend mode="lighten" in2="shape" result="effect1_innerShadow_1037_599"/>
<feColorMatrix in="SourceAlpha" type="matrix" values="0 0 0 0 0 0 0 0 0 0 0 0 0 0 0 0 0 0 127 0" result="hardAlpha"/>
<feOffset dx="12.74" dy="7.43165"/>
<feGaussianBlur stdDeviation="7.43165"/>
<feComposite in2="hardAlpha" operator="arithmetic" k2="-1" k3="1"/>
<feColorMatrix type="matrix" values="0 0 0 0 0.168627 0 0 0 0 0.180392 0 0 0 0 0.239216 0 0 0 0.9 0"/>
<feBlend mode="multiply" in2="effect1_innerShadow_1037_599" result="effect2_innerShadow_1037_599"/>
</filter>
<filter id="filter2_iif_1037_599" x="75.9687" y="75.9687" width="748.063" height="748.063" filterUnits="userSpaceOnUse" color-interpolation-filters="sRGB">
<feFlood flood-opacity="0" result="BackgroundImageFix"/>
<feBlend mode="normal" in="SourceGraphic" in2="BackgroundImageFix" result="shape"/>
<feColorMatrix in="SourceAlpha" type="matrix" values="0 0 0 0 0 0 0 0 0 0 0 0 0 0 0 0 0 0 127 0" result="hardAlpha"/>
<feOffset dy="23.208"/>
<feGaussianBlur stdDeviation="18.8551"/>
<feComposite in2="hardAlpha" operator="arithmetic" k2="-1" k3="1"/>
<feColorMatrix type="matrix" values="0 0 0 0 1 0 0 0 0 1 0 0 0 0 1 0 0 0 0.8 0"/>
<feBlend mode="lighten" in2="shape" result="effect1_innerShadow_1037_599"/>
<feColorMatrix in="SourceAlpha" type="matrix" values="0 0 0 0 0 0 0 0 0 0 0 0 0 0 0 0 0 0 127 0" result="hardAlpha"/>
<feOffset dx="12.74" dy="7.43165"/>
<feGaussianBlur stdDeviation="7.43165"/>
<feComposite in2="hardAlpha" operator="arithmetic" k2="-1" k3="1"/>
<feColorMatrix type="matrix" values="0 0 0 0 0.168627 0 0 0 0 0.180392 0 0 0 0 0.239216 0 0 0 0.9 0"/>
<feBlend mode="multiply" in2="effect1_innerShadow_1037_599" result="effect2_innerShadow_1037_599"/>
<feGaussianBlur stdDeviation="18.5157" result="effect3_foregroundBlur_1037_599"/>
</filter>
<linearGradient id="paint0_linear_1037_599" x1="598" y1="787" x2="472.785" y2="272.472" gradientUnits="userSpaceOnUse">
<stop offset="0.137931" stop-opacity="0"/>
<stop offset="1"/>
</linearGradient>
<linearGradient id="paint1_linear_1037_599" x1="379.34" y1="80.3719" x2="606.605" y2="417.64" gradientUnits="userSpaceOnUse">
<stop stop-color="#949494"/>
<stop offset="0.635171" stop-color="#181818"/>
<stop offset="1" stop-color="#1D1D1D"/>
</linearGradient>
<linearGradient id="paint2_linear_1037_599" x1="425.64" y1="322.573" x2="503.989" y2="438.844" gradientUnits="userSpaceOnUse">
<stop stop-color="#949494"/>
<stop offset="0.635171" stop-color="#181818"/>
<stop offset="1" stop-color="#1D1D1D"/>
</linearGradient>
<linearGradient id="paint3_linear_1037_599" x1="329.584" y1="-179.904" x2="716.88" y2="394.853" gradientUnits="userSpaceOnUse">
<stop stop-color="#949494"/>
<stop offset="0.635171" stop-color="#181818"/>
<stop offset="1" stop-color="#1D1D1D"/>
</linearGradient>
</defs>
</svg>
