<svg width="900" height="900" viewBox="0 0 900 900" fill="none" xmlns="http://www.w3.org/2000/svg">
<mask id="mask0_1037_589" style="mask-type:alpha" maskUnits="userSpaceOnUse" x="117" y="210" width="666" height="480">
<path d="M379.854 352.195C382.954 312.508 368.279 271.787 335.826 242.849C286.011 198.615 209.531 199.028 160.129 244.296C104.32 295.145 102.873 381.753 155.582 434.462C184.107 462.78 222.14 475.596 259.346 472.495C263.687 472.289 268.235 471.669 272.575 470.842C275.883 469.808 278.983 468.981 282.29 468.568C303.167 465.467 325.284 471.875 341.407 487.998C348.022 494.613 352.983 502.054 356.29 510.115C358.977 516.11 360.217 522.517 360.837 529.132C361.044 530.992 361.251 532.852 361.664 534.713C363.111 542.361 365.798 549.802 369.932 556.83C372.826 561.584 376.547 566.338 380.681 570.472C407.965 597.964 452.613 597.344 479.484 569.025C503.669 543.394 504.289 502.674 480.931 476.423C475.971 470.635 470.183 466.088 464.189 462.574C457.161 458.44 449.719 455.752 442.071 454.306C440.211 453.892 438.351 453.685 436.49 453.479C430.083 452.652 423.468 451.412 417.474 448.931C409.412 445.624 401.971 440.663 395.357 434.049C380.061 418.959 373.446 398.082 375.513 378.239C375.651 376.861 375.973 375.483 376.294 374.105C376.455 373.416 376.616 372.727 376.753 372.038C377.374 369.764 377.787 367.697 378.2 365.423C378.82 361.083 379.441 356.535 379.854 352.195Z" fill="url(#paint0_linear_1037_589)"/>
<path d="M520.146 547.805C517.046 587.492 531.722 628.213 564.174 657.151C613.989 701.385 690.469 700.972 739.871 655.704C795.681 604.855 797.128 518.247 744.418 465.538C715.893 437.22 677.86 424.404 640.654 427.505C636.313 427.711 631.766 428.332 627.425 429.158C624.118 430.192 621.017 431.019 617.71 431.432C596.833 434.533 574.716 428.125 558.593 412.002C551.978 405.388 547.018 397.946 543.71 389.885C541.023 383.89 539.783 377.483 539.163 370.868C538.956 369.008 538.749 367.148 538.336 365.287C536.889 357.639 534.202 350.198 530.068 343.17C527.174 338.416 523.453 333.662 519.319 329.528C492.035 302.036 447.387 302.656 420.516 330.975C396.331 356.606 395.711 397.326 419.069 423.577C424.03 429.365 429.817 433.912 435.812 437.426C442.84 441.56 450.281 444.248 457.929 445.694C459.789 446.108 461.649 446.315 463.51 446.521C469.918 447.348 476.532 448.588 482.526 451.069C490.588 454.376 498.029 459.337 504.644 465.951C519.94 481.041 526.554 501.918 524.487 521.761C524.349 523.139 524.028 524.517 523.706 525.895C523.545 526.584 523.385 527.273 523.247 527.962C522.627 530.236 522.213 532.303 521.8 534.577C521.18 538.917 520.56 543.465 520.146 547.805Z" fill="url(#paint1_linear_1037_589)"/>
<path d="M615.561 413.591C583.567 413.591 557.631 387.654 557.631 355.66C557.631 323.666 583.567 297.729 615.561 297.729C647.556 297.729 673.492 323.666 673.492 355.66C673.492 387.654 647.556 413.591 615.561 413.591Z" fill="url(#paint2_linear_1037_589)"/>
<path d="M233.218 546.004C233.218 577.998 259.155 603.935 291.149 603.935C323.143 603.935 349.08 577.998 349.08 546.004C349.08 514.01 323.143 488.073 291.149 488.073C259.155 488.073 233.218 514.01 233.218 546.004Z" fill="url(#paint3_linear_1037_589)"/>
</mask>
<g mask="url(#mask0_1037_589)">
<g filter="url(#filter0_ii_1037_589)">
<path fill-rule="evenodd" clip-rule="evenodd" d="M520.146 547.806C517.045 587.492 531.721 628.213 564.173 657.151C613.989 701.385 690.469 700.972 739.871 655.704C795.68 604.855 797.127 518.247 744.418 465.538C715.893 437.22 677.86 424.404 640.653 427.505C636.313 427.711 631.765 428.332 627.424 429.158C624.117 430.192 621.017 431.019 617.709 431.432C596.832 434.533 574.715 428.125 558.592 412.002C551.978 405.388 547.017 397.946 543.71 389.885C541.023 383.891 539.783 377.483 539.162 370.868C538.956 369.008 538.749 367.148 538.336 365.287C536.889 357.639 534.202 350.198 530.068 343.17C527.174 338.416 523.453 333.662 519.319 329.528C492.034 302.036 447.387 302.656 420.515 330.975C396.331 356.606 395.711 397.326 419.068 423.577C424.029 429.365 429.817 433.912 435.811 437.426C442.839 441.56 450.28 444.248 457.928 445.695C459.789 446.108 461.649 446.315 463.509 446.521C469.917 447.348 476.532 448.588 482.526 451.069C490.587 454.376 498.029 459.337 504.643 465.951C519.939 481.041 526.554 501.918 524.487 521.761C524.349 523.139 524.027 524.517 523.706 525.895C523.545 526.584 523.384 527.273 523.246 527.962C522.626 530.236 522.213 532.303 521.799 534.577C521.179 538.917 520.559 543.465 520.146 547.806ZM379.853 352.195C382.954 312.508 368.278 271.787 335.826 242.849C286.011 198.615 209.531 199.028 160.129 244.296C104.319 295.145 102.872 381.753 155.581 434.462C184.106 462.78 222.139 475.596 259.346 472.495C263.687 472.289 268.234 471.669 272.575 470.842C275.882 469.808 278.983 468.981 282.29 468.568C303.167 465.467 325.284 471.875 341.407 487.998C348.021 494.613 352.982 502.054 356.289 510.115C358.976 516.11 360.217 522.517 360.837 529.132C361.044 530.992 361.25 532.852 361.664 534.713C363.111 542.361 365.798 549.802 369.932 556.83C372.826 561.584 376.546 566.338 380.68 570.472C407.965 597.964 452.613 597.344 479.484 569.025C503.668 543.394 504.288 502.674 480.931 476.423C475.97 470.635 470.182 466.088 464.188 462.574C457.16 458.44 449.719 455.752 442.071 454.306C440.211 453.892 438.351 453.686 436.491 453.479L436.49 453.479C430.082 452.652 423.468 451.412 417.473 448.931C409.412 445.624 401.971 440.663 395.356 434.049C380.06 418.959 373.446 398.082 375.513 378.239C375.65 376.861 375.972 375.483 376.294 374.105C376.454 373.416 376.615 372.727 376.753 372.038C377.373 369.764 377.786 367.697 378.2 365.423C378.82 361.083 379.44 356.535 379.853 352.195ZM615.561 413.591C583.566 413.591 557.63 387.654 557.63 355.66C557.63 323.666 583.566 297.729 615.561 297.729C647.555 297.729 673.492 323.666 673.492 355.66C673.492 387.654 647.555 413.591 615.561 413.591ZM233.218 546.004C233.218 577.998 259.154 603.935 291.148 603.935C323.143 603.935 349.079 577.998 349.079 546.004C349.079 514.01 323.143 488.073 291.148 488.073C259.154 488.073 233.218 514.01 233.218 546.004Z" fill="url(#paint4_radial_1037_589)"/>
<path fill-rule="evenodd" clip-rule="evenodd" d="M520.146 547.806C517.045 587.492 531.721 628.213 564.173 657.151C613.989 701.385 690.469 700.972 739.871 655.704C795.68 604.855 797.127 518.247 744.418 465.538C715.893 437.22 677.86 424.404 640.653 427.505C636.313 427.711 631.765 428.332 627.424 429.158C624.117 430.192 621.017 431.019 617.709 431.432C596.832 434.533 574.715 428.125 558.592 412.002C551.978 405.388 547.017 397.946 543.71 389.885C541.023 383.891 539.783 377.483 539.162 370.868C538.956 369.008 538.749 367.148 538.336 365.287C536.889 357.639 534.202 350.198 530.068 343.17C527.174 338.416 523.453 333.662 519.319 329.528C492.034 302.036 447.387 302.656 420.515 330.975C396.331 356.606 395.711 397.326 419.068 423.577C424.029 429.365 429.817 433.912 435.811 437.426C442.839 441.56 450.28 444.248 457.928 445.695C459.789 446.108 461.649 446.315 463.509 446.521C469.917 447.348 476.532 448.588 482.526 451.069C490.587 454.376 498.029 459.337 504.643 465.951C519.939 481.041 526.554 501.918 524.487 521.761C524.349 523.139 524.027 524.517 523.706 525.895C523.545 526.584 523.384 527.273 523.246 527.962C522.626 530.236 522.213 532.303 521.799 534.577C521.179 538.917 520.559 543.465 520.146 547.806ZM379.853 352.195C382.954 312.508 368.278 271.787 335.826 242.849C286.011 198.615 209.531 199.028 160.129 244.296C104.319 295.145 102.872 381.753 155.581 434.462C184.106 462.78 222.139 475.596 259.346 472.495C263.687 472.289 268.234 471.669 272.575 470.842C275.882 469.808 278.983 468.981 282.29 468.568C303.167 465.467 325.284 471.875 341.407 487.998C348.021 494.613 352.982 502.054 356.289 510.115C358.976 516.11 360.217 522.517 360.837 529.132C361.044 530.992 361.25 532.852 361.664 534.713C363.111 542.361 365.798 549.802 369.932 556.83C372.826 561.584 376.546 566.338 380.68 570.472C407.965 597.964 452.613 597.344 479.484 569.025C503.668 543.394 504.288 502.674 480.931 476.423C475.97 470.635 470.182 466.088 464.188 462.574C457.16 458.44 449.719 455.752 442.071 454.306C440.211 453.892 438.351 453.686 436.491 453.479L436.49 453.479C430.082 452.652 423.468 451.412 417.473 448.931C409.412 445.624 401.971 440.663 395.356 434.049C380.06 418.959 373.446 398.082 375.513 378.239C375.65 376.861 375.972 375.483 376.294 374.105C376.454 373.416 376.615 372.727 376.753 372.038C377.373 369.764 377.786 367.697 378.2 365.423C378.82 361.083 379.44 356.535 379.853 352.195ZM615.561 413.591C583.566 413.591 557.63 387.654 557.63 355.66C557.63 323.666 583.566 297.729 615.561 297.729C647.555 297.729 673.492 323.666 673.492 355.66C673.492 387.654 647.555 413.591 615.561 413.591ZM233.218 546.004C233.218 577.998 259.154 603.935 291.148 603.935C323.143 603.935 349.079 577.998 349.079 546.004C349.079 514.01 323.143 488.073 291.148 488.073C259.154 488.073 233.218 514.01 233.218 546.004Z" fill="#1F2E7E" fill-opacity="0.2"/>
</g>
</g>
<defs>
<filter id="filter0_ii_1037_589" x="98.7778" y="185.375" width="710.442" height="536.734" filterUnits="userSpaceOnUse" color-interpolation-filters="sRGB">
<feFlood flood-opacity="0" result="BackgroundImageFix"/>
<feBlend mode="normal" in="SourceGraphic" in2="BackgroundImageFix" result="shape"/>
<feColorMatrix in="SourceAlpha" type="matrix" values="0 0 0 0 0 0 0 0 0 0 0 0 0 0 0 0 0 0 127 0" result="hardAlpha"/>
<feOffset dx="-18.3516" dy="32.1153"/>
<feGaussianBlur stdDeviation="38.9971"/>
<feComposite in2="hardAlpha" operator="arithmetic" k2="-1" k3="1"/>
<feColorMatrix type="matrix" values="0 0 0 0 1 0 0 0 0 1 0 0 0 0 1 0 0 0 0.87 0"/>
<feBlend mode="lighten" in2="shape" result="effect1_innerShadow_1037_589"/>
<feColorMatrix in="SourceAlpha" type="matrix" values="0 0 0 0 0 0 0 0 0 0 0 0 0 0 0 0 0 0 127 0" result="hardAlpha"/>
<feOffset dx="26.35" dy="-24.63"/>
<feGaussianBlur stdDeviation="15.3705"/>
<feComposite in2="hardAlpha" operator="arithmetic" k2="-1" k3="1"/>
<feColorMatrix type="matrix" values="0 0 0 0 0.168627 0 0 0 0 0.180392 0 0 0 0 0.239216 0 0 0 0.9 0"/>
<feBlend mode="multiply" in2="effect1_innerShadow_1037_589" result="effect2_innerShadow_1037_589"/>
</filter>
<linearGradient id="paint0_linear_1037_589" x1="230" y1="798" x2="686" y2="318" gradientUnits="userSpaceOnUse">
<stop offset="0.243977" stop-opacity="0"/>
<stop offset="1"/>
</linearGradient>
<linearGradient id="paint1_linear_1037_589" x1="230" y1="798" x2="686" y2="318" gradientUnits="userSpaceOnUse">
<stop offset="0.243977" stop-opacity="0"/>
<stop offset="1"/>
</linearGradient>
<linearGradient id="paint2_linear_1037_589" x1="230" y1="798" x2="686" y2="318" gradientUnits="userSpaceOnUse">
<stop offset="0.243977" stop-opacity="0"/>
<stop offset="1"/>
</linearGradient>
<linearGradient id="paint3_linear_1037_589" x1="230" y1="798" x2="686" y2="318" gradientUnits="userSpaceOnUse">
<stop offset="0.243977" stop-opacity="0"/>
<stop offset="1"/>
</linearGradient>
<radialGradient id="paint4_radial_1037_589" cx="0" cy="0" r="1" gradientUnits="userSpaceOnUse" gradientTransform="translate(837.205 372.663) rotate(178.087) scale(252.129 473.07)">
<stop stop-color="#949494"/>
<stop offset="0.635171" stop-color="#181818"/>
<stop offset="1" stop-color="#1D1D1D"/>
</radialGradient>
</defs>
</svg>
