<svg width="900" height="900" viewBox="0 0 900 900" fill="none" xmlns="http://www.w3.org/2000/svg">
<mask id="mask0_1037_600" style="mask-type:alpha" maskUnits="userSpaceOnUse" x="198" y="60" width="504" height="780">
<path d="M450 207.573C365.431 207.573 296.6 141.356 296.6 60.0001L198 60.0001C198 193.709 311.011 302.428 450 302.428C534.569 302.428 603.4 368.644 603.4 450C603.4 531.356 534.569 597.573 450 597.573C311.011 597.39 198 706.108 198 839.818H296.6C296.6 758.461 365.431 692.245 450 692.245C588.989 692.245 702 583.527 702 449.818C702 316.109 588.799 207.573 450 207.573Z" fill="url(#paint0_linear_1037_600)"/>
</mask>
<g mask="url(#mask0_1037_600)">
<g filter="url(#filter0_ii_1037_600)">
<path d="M450 207.573C365.431 207.573 296.6 141.356 296.6 60.0001L198 60.0001C198 193.709 311.011 302.428 450 302.428C534.569 302.428 603.4 368.644 603.4 450C603.4 531.356 534.569 597.573 450 597.573C311.011 597.39 198 706.108 198 839.818H296.6C296.6 758.461 365.431 692.245 450 692.245C588.989 692.245 702 583.527 702 449.818C702 316.109 588.799 207.573 450 207.573Z" fill="url(#paint1_radial_1037_600)"/>
<path d="M450 207.573C365.431 207.573 296.6 141.356 296.6 60.0001L198 60.0001C198 193.709 311.011 302.428 450 302.428C534.569 302.428 603.4 368.644 603.4 450C603.4 531.356 534.569 597.573 450 597.573C311.011 597.39 198 706.108 198 839.818H296.6C296.6 758.461 365.431 692.245 450 692.245C588.989 692.245 702 583.527 702 449.818C702 316.109 588.799 207.573 450 207.573Z" fill="#1F2E7E" fill-opacity="0.2"/>
</g>
</g>
<mask id="mask1_1037_600" style="mask-type:alpha" maskUnits="userSpaceOnUse" x="198" y="60" width="504" height="780">
<path d="M450 207.573C534.569 207.573 603.4 141.356 603.4 60.0001L702 60.0001C702 193.709 588.989 302.428 450 302.428C365.431 302.428 296.6 368.644 296.6 450C296.6 531.356 365.431 597.572 450 597.572C588.989 597.572 702 706.291 702 840H603.4C603.4 758.644 534.569 692.427 450 692.427C311.011 692.245 198 583.527 198 449.818C198 316.109 311.011 207.573 450 207.573Z" fill="url(#paint2_linear_1037_600)"/>
</mask>
<g mask="url(#mask1_1037_600)">
<g filter="url(#filter1_ii_1037_600)">
<path d="M450 207.573C534.569 207.573 603.4 141.356 603.4 60.0001L702 60.0001C702 193.709 588.989 302.428 450 302.428C365.431 302.428 296.6 368.644 296.6 450C296.6 531.356 365.431 597.572 450 597.572C588.989 597.572 702 706.291 702 840H603.4C603.4 758.644 534.569 692.427 450 692.427C311.011 692.245 198 583.527 198 449.818C198 316.109 311.011 207.573 450 207.573Z" fill="url(#paint3_radial_1037_600)"/>
<path d="M450 207.573C534.569 207.573 603.4 141.356 603.4 60.0001L702 60.0001C702 193.709 588.989 302.428 450 302.428C365.431 302.428 296.6 368.644 296.6 450C296.6 531.356 365.431 597.572 450 597.572C588.989 597.572 702 706.291 702 840H603.4C603.4 758.644 534.569 692.427 450 692.427C311.011 692.245 198 583.527 198 449.818C198 316.109 311.011 207.573 450 207.573Z" fill="#1F2E7E" fill-opacity="0.2"/>
</g>
</g>
<defs>
<filter id="filter0_ii_1037_600" x="179.648" y="60.0001" width="548.701" height="811.933" filterUnits="userSpaceOnUse" color-interpolation-filters="sRGB">
<feFlood flood-opacity="0" result="BackgroundImageFix"/>
<feBlend mode="normal" in="SourceGraphic" in2="BackgroundImageFix" result="shape"/>
<feColorMatrix in="SourceAlpha" type="matrix" values="0 0 0 0 0 0 0 0 0 0 0 0 0 0 0 0 0 0 127 0" result="hardAlpha"/>
<feOffset dx="-18.3516" dy="32.1153"/>
<feGaussianBlur stdDeviation="38.9971"/>
<feComposite in2="hardAlpha" operator="arithmetic" k2="-1" k3="1"/>
<feColorMatrix type="matrix" values="0 0 0 0 1 0 0 0 0 1 0 0 0 0 1 0 0 0 0.87 0"/>
<feBlend mode="lighten" in2="shape" result="effect1_innerShadow_1037_600"/>
<feColorMatrix in="SourceAlpha" type="matrix" values="0 0 0 0 0 0 0 0 0 0 0 0 0 0 0 0 0 0 127 0" result="hardAlpha"/>
<feOffset dx="26.3494" dy="15.3705"/>
<feGaussianBlur stdDeviation="15.3705"/>
<feComposite in2="hardAlpha" operator="arithmetic" k2="-1" k3="1"/>
<feColorMatrix type="matrix" values="0 0 0 0 0.168627 0 0 0 0 0.180392 0 0 0 0 0.239216 0 0 0 0.9 0"/>
<feBlend mode="multiply" in2="effect1_innerShadow_1037_600" result="effect2_innerShadow_1037_600"/>
</filter>
<filter id="filter1_ii_1037_600" x="179.648" y="60.0001" width="548.701" height="812.115" filterUnits="userSpaceOnUse" color-interpolation-filters="sRGB">
<feFlood flood-opacity="0" result="BackgroundImageFix"/>
<feBlend mode="normal" in="SourceGraphic" in2="BackgroundImageFix" result="shape"/>
<feColorMatrix in="SourceAlpha" type="matrix" values="0 0 0 0 0 0 0 0 0 0 0 0 0 0 0 0 0 0 127 0" result="hardAlpha"/>
<feOffset dx="-18.3516" dy="32.1153"/>
<feGaussianBlur stdDeviation="38.9971"/>
<feComposite in2="hardAlpha" operator="arithmetic" k2="-1" k3="1"/>
<feColorMatrix type="matrix" values="0 0 0 0 1 0 0 0 0 1 0 0 0 0 1 0 0 0 0.87 0"/>
<feBlend mode="lighten" in2="shape" result="effect1_innerShadow_1037_600"/>
<feColorMatrix in="SourceAlpha" type="matrix" values="0 0 0 0 0 0 0 0 0 0 0 0 0 0 0 0 0 0 127 0" result="hardAlpha"/>
<feOffset dx="26.3494" dy="15.3705"/>
<feGaussianBlur stdDeviation="15.3705"/>
<feComposite in2="hardAlpha" operator="arithmetic" k2="-1" k3="1"/>
<feColorMatrix type="matrix" values="0 0 0 0 0.168627 0 0 0 0 0.180392 0 0 0 0 0.239216 0 0 0 0.9 0"/>
<feBlend mode="multiply" in2="effect1_innerShadow_1037_600" result="effect2_innerShadow_1037_600"/>
</filter>
<linearGradient id="paint0_linear_1037_600" x1="758.448" y1="796.519" x2="620.429" y2="429.97" gradientUnits="userSpaceOnUse">
<stop offset="0.416991" stop-opacity="0"/>
<stop offset="1"/>
</linearGradient>
<radialGradient id="paint1_radial_1037_600" cx="0" cy="0" r="1" gradientUnits="userSpaceOnUse" gradientTransform="translate(368.795 -3.64552) rotate(88.2848) scale(295.299 496.789)">
<stop stop-color="#949494"/>
<stop offset="0.635171" stop-color="#181818"/>
<stop offset="1" stop-color="#1D1D1D"/>
</radialGradient>
<linearGradient id="paint2_linear_1037_600" x1="368" y1="6.00007" x2="635.829" y2="717.129" gradientUnits="userSpaceOnUse">
<stop offset="0.137931" stop-opacity="0"/>
<stop offset="1"/>
</linearGradient>
<radialGradient id="paint3_radial_1037_600" cx="0" cy="0" r="1" gradientUnits="userSpaceOnUse" gradientTransform="translate(368.795 -3.6604) rotate(88.2852) scale(295.368 496.79)">
<stop stop-color="#949494"/>
<stop offset="0.635171" stop-color="#181818"/>
<stop offset="1" stop-color="#1D1D1D"/>
</radialGradient>
</defs>
</svg>
