<svg width="900" height="900" viewBox="0 0 900 900" fill="none" xmlns="http://www.w3.org/2000/svg">
<mask id="mask0_1037_590" style="mask-type:alpha" maskUnits="userSpaceOnUse" x="149" y="126" width="602" height="601">
<path fill-rule="evenodd" clip-rule="evenodd" d="M449.71 230.435C341.462 230.435 254.038 317.438 254.038 426.107C254.038 535.015 341.12 622.36 449.71 622.36C558.458 622.36 645.962 534.856 645.962 426.107H750.398C750.398 592.534 616.136 726.795 449.71 726.795C283.124 726.795 149.603 592.374 149.603 426.107C149.603 259.601 283.944 126 449.71 126V230.435Z" fill="url(#paint0_linear_1037_590)"/>
</mask>
<g mask="url(#mask0_1037_590)">
<g filter="url(#filter0_ii_1037_590)">
<path fill-rule="evenodd" clip-rule="evenodd" d="M449.71 230.435C341.462 230.435 254.038 317.438 254.038 426.107C254.038 535.015 341.12 622.36 449.71 622.36C558.458 622.36 645.962 534.856 645.962 426.107H750.398C750.398 592.534 616.136 726.795 449.71 726.795C283.124 726.795 149.603 592.374 149.603 426.107C149.603 259.601 283.944 126 449.71 126V230.435Z" fill="url(#paint1_radial_1037_590)"/>
<path fill-rule="evenodd" clip-rule="evenodd" d="M449.71 230.435C341.462 230.435 254.038 317.438 254.038 426.107C254.038 535.015 341.12 622.36 449.71 622.36C558.458 622.36 645.962 534.856 645.962 426.107H750.398C750.398 592.534 616.136 726.795 449.71 726.795C283.124 726.795 149.603 592.374 149.603 426.107C149.603 259.601 283.944 126 449.71 126V230.435Z" fill="#1F2E7E" fill-opacity="0.2"/>
</g>
</g>
<mask id="mask1_1037_590" style="mask-type:alpha" maskUnits="userSpaceOnUse" x="299" y="275" width="302" height="303">
<path fill-rule="evenodd" clip-rule="evenodd" d="M450.226 379.581C424.414 379.581 403.7 400.435 403.7 426.107H299.264C299.264 343.07 366.424 275.145 450.226 275.145C534.341 275.145 600.735 343.384 600.735 426.107C600.735 509.145 533.576 577.069 449.773 577.069V472.634C475.586 472.634 496.3 451.779 496.3 426.107C496.3 400.121 475.726 379.581 450.226 379.581Z" fill="url(#paint2_linear_1037_590)"/>
</mask>
<g mask="url(#mask1_1037_590)">
<g filter="url(#filter1_ii_1037_590)">
<path fill-rule="evenodd" clip-rule="evenodd" d="M450.226 379.581C424.414 379.581 403.7 400.435 403.7 426.107H299.264C299.264 343.07 366.424 275.145 450.226 275.145C534.341 275.145 600.735 343.384 600.735 426.107C600.735 509.145 533.576 577.069 449.773 577.069V472.634C475.586 472.634 496.3 451.779 496.3 426.107C496.3 400.121 475.726 379.581 450.226 379.581Z" fill="url(#paint3_radial_1037_590)"/>
<path fill-rule="evenodd" clip-rule="evenodd" d="M450.226 379.581C424.414 379.581 403.7 400.435 403.7 426.107H299.264C299.264 343.07 366.424 275.145 450.226 275.145C534.341 275.145 600.735 343.384 600.735 426.107C600.735 509.145 533.576 577.069 449.773 577.069V472.634C475.586 472.634 496.3 451.779 496.3 426.107C496.3 400.121 475.726 379.581 450.226 379.581Z" fill="#1F2E7E" fill-opacity="0.2"/>
</g>
</g>
<defs>
<filter id="filter0_ii_1037_590" x="131.251" y="126" width="645.496" height="632.91" filterUnits="userSpaceOnUse" color-interpolation-filters="sRGB">
<feFlood flood-opacity="0" result="BackgroundImageFix"/>
<feBlend mode="normal" in="SourceGraphic" in2="BackgroundImageFix" result="shape"/>
<feColorMatrix in="SourceAlpha" type="matrix" values="0 0 0 0 0 0 0 0 0 0 0 0 0 0 0 0 0 0 127 0" result="hardAlpha"/>
<feOffset dx="-18.3516" dy="32.1153"/>
<feGaussianBlur stdDeviation="38.9971"/>
<feComposite in2="hardAlpha" operator="arithmetic" k2="-1" k3="1"/>
<feColorMatrix type="matrix" values="0 0 0 0 1 0 0 0 0 1 0 0 0 0 1 0 0 0 0.87 0"/>
<feBlend mode="lighten" in2="shape" result="effect1_innerShadow_1037_590"/>
<feColorMatrix in="SourceAlpha" type="matrix" values="0 0 0 0 0 0 0 0 0 0 0 0 0 0 0 0 0 0 127 0" result="hardAlpha"/>
<feOffset dx="26.3494" dy="15.3705"/>
<feGaussianBlur stdDeviation="15.3705"/>
<feComposite in2="hardAlpha" operator="arithmetic" k2="-1" k3="1"/>
<feColorMatrix type="matrix" values="0 0 0 0 0.168627 0 0 0 0 0.180392 0 0 0 0 0.239216 0 0 0 0.9 0"/>
<feBlend mode="multiply" in2="effect1_innerShadow_1037_590" result="effect2_innerShadow_1037_590"/>
</filter>
<filter id="filter1_ii_1037_590" x="280.913" y="275.145" width="346.172" height="334.039" filterUnits="userSpaceOnUse" color-interpolation-filters="sRGB">
<feFlood flood-opacity="0" result="BackgroundImageFix"/>
<feBlend mode="normal" in="SourceGraphic" in2="BackgroundImageFix" result="shape"/>
<feColorMatrix in="SourceAlpha" type="matrix" values="0 0 0 0 0 0 0 0 0 0 0 0 0 0 0 0 0 0 127 0" result="hardAlpha"/>
<feOffset dx="-18.3516" dy="32.1153"/>
<feGaussianBlur stdDeviation="38.9971"/>
<feComposite in2="hardAlpha" operator="arithmetic" k2="-1" k3="1"/>
<feColorMatrix type="matrix" values="0 0 0 0 1 0 0 0 0 1 0 0 0 0 1 0 0 0 0.87 0"/>
<feBlend mode="lighten" in2="shape" result="effect1_innerShadow_1037_590"/>
<feColorMatrix in="SourceAlpha" type="matrix" values="0 0 0 0 0 0 0 0 0 0 0 0 0 0 0 0 0 0 127 0" result="hardAlpha"/>
<feOffset dx="26.3494" dy="15.3705"/>
<feGaussianBlur stdDeviation="15.3705"/>
<feComposite in2="hardAlpha" operator="arithmetic" k2="-1" k3="1"/>
<feColorMatrix type="matrix" values="0 0 0 0 0.168627 0 0 0 0 0.180392 0 0 0 0 0.239216 0 0 0 0.9 0"/>
<feBlend mode="multiply" in2="effect1_innerShadow_1037_590" result="effect2_innerShadow_1037_590"/>
</filter>
<linearGradient id="paint0_linear_1037_590" x1="804.615" y1="204.424" x2="484.098" y2="426.398" gradientUnits="userSpaceOnUse">
<stop offset="0.616767" stop-opacity="0"/>
<stop offset="1"/>
</linearGradient>
<radialGradient id="paint1_radial_1037_590" cx="0" cy="0" r="1" gradientUnits="userSpaceOnUse" gradientTransform="translate(353.199 76.9655) rotate(87.3472) scale(227.65 591.83)">
<stop stop-color="#949494"/>
<stop offset="0.635171" stop-color="#181818"/>
<stop offset="1" stop-color="#1D1D1D"/>
</radialGradient>
<linearGradient id="paint2_linear_1037_590" x1="450" y1="603.366" x2="474.17" y2="388.585" gradientUnits="userSpaceOnUse">
<stop offset="0.515679" stop-opacity="0"/>
<stop offset="1"/>
</linearGradient>
<radialGradient id="paint3_radial_1037_590" cx="0" cy="0" r="1" gradientUnits="userSpaceOnUse" gradientTransform="translate(401.426 250.504) rotate(87.3512) scale(114.403 296.973)">
<stop stop-color="#949494"/>
<stop offset="0.635171" stop-color="#181818"/>
<stop offset="1" stop-color="#1D1D1D"/>
</radialGradient>
</defs>
</svg>
